<svg xmlns="http://www.w3.org/2000/svg" xmlns:xlink="http://www.w3.org/1999/xlink" width="279.939" height="187.107" viewBox="0 0 279.939 187.107">
  <defs>
    <linearGradient id="linear-gradient" x1="0.5" x2="0.5" y2="1" gradientUnits="objectBoundingBox">
      <stop offset="0" stop-color="#89f995"/>
      <stop offset="1" stop-color="#32c8d9"/>
    </linearGradient>
  </defs>
  <g id="Group_47215" data-name="Group 47215" transform="translate(-2048.199 -1321.982)">
    <g id="Group_46964" data-name="Group 46964" transform="translate(1655 1113.011)">
      <g id="Group_45082" data-name="Group 45082" transform="translate(391 220)">
        <g id="Group_44501" data-name="Group 44501" transform="translate(3.934 8.781)">
          <path id="Path_27059" data-name="Path 27059" d="M533.753,247.387c24.165,1.705,54.375-7.877,67.7-28.887,5.518-8.7,9.182-19.866,5.341-29.492-2.909-7.288-15.217-15.528-17.874-22.921-2.693-7.5-2.311-15.938-.929-23.819,3.974-22.648-18.121-58-64.784-61.776-35.381-2.861-51.385,24.641-81.5,28.395-30.387,3.788-66.018-18.939-87.755,0-26.994,23.522-14.327,47.067-11.041,58.083,4.22,14.152-16.409,30.3-12.156,51.137,9.513,46.587,78.65,15.171,98.913,13.2,20.58-2,41,3.861,61.171,8.562s41.528,8.24,61.242,1.785Z" transform="translate(-330.178 -80.284)" fill="#fff" opacity="0.61"/>
        </g>
        <g id="Group_44513" data-name="Group 44513" transform="translate(2.199 38.785)">
          <g id="Group_44508" data-name="Group 44508" transform="translate(4.057 7.49)">
            <g id="Group_44507" data-name="Group 44507">
              <g id="Group_44506" data-name="Group 44506">
                <g id="Group_44505" data-name="Group 44505">
                  <path id="Path_27060" data-name="Path 27060" d="M332.754,137.944l-.439.05c-.98-8.634,1.664-17.022,8.32-26.4l.359.256C334.405,121.134,331.787,129.426,332.754,137.944Z" transform="translate(-332.117 -111.595)" fill="#2e4882"/>
                </g>
              </g>
            </g>
          </g>
          <g id="Group_44512" data-name="Group 44512">
            <g id="Group_44511" data-name="Group 44511">
              <g id="Group_44510" data-name="Group 44510">
                <g id="Group_44509" data-name="Group 44509">
                  <path id="Path_27061" data-name="Path 27061" d="M330.641,144.961l-.422.132c-5.051-16.093,3.615-29.126,12.758-39.753l.335.289C334.249,116.163,325.655,129.074,330.641,144.961Z" transform="translate(-328.729 -105.34)" fill="#2e4882"/>
                </g>
              </g>
            </g>
          </g>
        </g>
        <g id="Group_44522" data-name="Group 44522" transform="translate(183.974 0)">
          <g id="Group_44517" data-name="Group 44517" transform="translate(6.201 4.04)">
            <g id="Group_44516" data-name="Group 44516">
              <g id="Group_44515" data-name="Group 44515">
                <g id="Group_44514" data-name="Group 44514">
                  <path id="Path_27062" data-name="Path 27062" d="M512.826,82.154c-10.135-5.182-18.718-6.578-27.008-4.394l-.113-.426c8.4-2.215,17.083-.808,27.322,4.426Z" transform="translate(-485.705 -76.324)" fill="#2e4882"/>
                </g>
              </g>
            </g>
          </g>
          <g id="Group_44521" data-name="Group 44521">
            <g id="Group_44520" data-name="Group 44520">
              <g id="Group_44519" data-name="Group 44519">
                <g id="Group_44518" data-name="Group 44518">
                  <path id="Path_27063" data-name="Path 27063" d="M521.467,83.378c-11.731-7.451-25.746-14.094-40.748-6.869l-.192-.4c15.2-7.318,29.342-.621,41.177,6.9Z" transform="translate(-480.527 -72.951)" fill="#2e4882"/>
                </g>
              </g>
            </g>
          </g>
        </g>
      </g>
    </g>
    <g id="Group_46591" data-name="Group 46591" transform="translate(1999.9 1213.008)">
      <g id="Group_46176" data-name="Group 46176" transform="translate(57.099 108.973)">
        <g id="Group_46173" data-name="Group 46173" transform="translate(30.091 0)">
          <g id="Group_46172" data-name="Group 46172" transform="translate(39.547 53.152)">
            <ellipse id="Ellipse_4093" data-name="Ellipse 4093" cx="30.133" cy="30.133" rx="30.133" ry="30.133" transform="translate(70.332 10.813)" fill="rgba(255,255,255,0.65)"/>
            <ellipse id="Ellipse_4094" data-name="Ellipse 4094" cx="19.171" cy="19.171" rx="19.171" ry="19.171" transform="translate(0 91.295) rotate(-80.783)" fill="rgba(255,255,255,0.65)"/>
            <path id="Path_27568" data-name="Path 27568" d="M326.339,167.56v26.878h-7.61V167.56c0-10.233-7.772-18.555-17.325-18.555s-17.325,8.322-17.325,18.555v26.878h-7.61V167.56c0-14.653,11.188-26.57,24.935-26.57S326.339,152.907,326.339,167.56Z" transform="translate(-241.37 -140.99)" fill="#1c0f54"/>
            <rect id="Rectangle_16000" data-name="Rectangle 16000" width="69.364" height="62.919" transform="translate(25.352 38.163)" fill="url(#linear-gradient)"/>
            <path id="Path_27571" data-name="Path 27571" d="M297.29,189.777l2.914,13.779H287.866l2.914-13.779a6.169,6.169,0,1,1,6.477,0Z" transform="translate(-234.325 -117.855)" fill="#fff"/>
          </g>
          <g id="freepik--speech-bubble--inject-45" transform="translate(0 0)">
            <path id="Path_27686" data-name="Path 27686" d="M175.349,165.014a5.694,5.694,0,1,1-6.16-5.186h0A5.685,5.685,0,0,1,175.348,165Z" transform="translate(-156.281 -109.033)" fill="#fff"/>
            <path id="Path_27687" data-name="Path 27687" d="M175.321,165a5.86,5.86,0,1,1-6.387-5.4c.068-.006.137-.013.2-.018A5.934,5.934,0,0,1,175.321,165Zm0,0a5.454,5.454,0,0,0-5.887-4.982c-.084.007-.166.016-.249.027a5.536,5.536,0,0,0-4.743,5.9,5.46,5.46,0,0,0,10.9-.693c0-.083-.009-.165-.017-.248Z" transform="translate(-156.253 -109.015)" fill="#263238"/>
            <path id="Path_27688" data-name="Path 27688" d="M162.471,176.577a3.165,3.165,0,1,1-3.433-2.888A3.166,3.166,0,0,1,162.471,176.577Z" transform="translate(-155.676 -110.104)" fill="#fff"/>
            <path id="Path_27689" data-name="Path 27689" d="M162.431,176.562a3.4,3.4,0,1,1-.024-.194C162.417,176.433,162.425,176.5,162.431,176.562Zm0,0a3.016,3.016,0,0,0-1.163-2.1,2.944,2.944,0,1,0,.378,4.374A3.017,3.017,0,0,0,162.431,176.562Z" transform="translate(-155.636 -110.089)" fill="#263238"/>
            <path id="Path_27690" data-name="Path 27690" d="M217.315,134.3a16.61,16.61,0,0,1-22.959,17.32,13.942,13.942,0,0,1-22.146-.046,10.418,10.418,0,0,1-1.846.388A11.313,11.313,0,0,1,159.7,134.249,16.61,16.61,0,0,1,182.083,110.2,13.943,13.943,0,0,1,206.02,114a8.827,8.827,0,0,1,1.79-.406,9.117,9.117,0,0,1,7.844,15.2A16.235,16.235,0,0,1,217.315,134.3Z" transform="translate(-155.67 -104.798)" fill="#fff"/>
            <path id="Path_27691" data-name="Path 27691" d="M217.281,134.29a16.862,16.862,0,0,1-1.19,8.508,17.709,17.709,0,0,1-2.187,3.756,17.163,17.163,0,0,1-3.091,3.036,16.786,16.786,0,0,1-16.545,2.15h.157a14.191,14.191,0,0,1-22.534.065l.332.111a11.489,11.489,0,0,1-3.543.489,10.966,10.966,0,0,1-3.534-.591,11.709,11.709,0,0,1-5.74-4.2,12.546,12.546,0,0,1-1.633-3.211,12.23,12.23,0,0,1-.591-3.553,11.712,11.712,0,0,1,2.113-6.819v.48a17.006,17.006,0,0,1,.923-22.146,17.191,17.191,0,0,1,10.556-5.3,16.93,16.93,0,0,1,11.405,2.888l-.406.065A14.182,14.182,0,0,1,206.06,114l-.12-.055a9.292,9.292,0,0,1,5.943.074,9.163,9.163,0,0,1,3.691,14.829h0A16.223,16.223,0,0,1,217.281,134.29Zm0,0a16.28,16.28,0,0,0-1.689-5.537h0a9.071,9.071,0,0,0-3.756-14.672,8.957,8.957,0,0,0-5.832,0h-.092v-.092a13.842,13.842,0,0,0-4.245-5.795,13.716,13.716,0,0,0-19.369,2.159l-.166.221-.24-.166a16.261,16.261,0,0,0-21.86,23.531l.194.249-.185.268a10.807,10.807,0,0,0-1.984,6.312,11.213,11.213,0,0,0,.526,3.313,11.584,11.584,0,0,0,1.5,3,11.146,11.146,0,0,0,5.324,3.977,10.406,10.406,0,0,0,3.322.6,10.568,10.568,0,0,0,3.35-.415l.2-.065.138.175a13.935,13.935,0,0,0,4.762,4,13.749,13.749,0,0,0,17.062-3.839l.065-.083h.092a16.369,16.369,0,0,0,16.379-1.975,17.4,17.4,0,0,0,3.1-3.008,17.591,17.591,0,0,0,2.2-3.691A16.81,16.81,0,0,0,217.281,134.29Z" transform="translate(-155.636 -104.784)" fill="url(#linear-gradient)"/>
            <path id="Path_27692" data-name="Path 27692" d="M198.561,134.877l-.526,2.519a1.845,1.845,0,0,1-2.106,1.542,1.74,1.74,0,0,1-.183-.038,1.938,1.938,0,0,1-1.506-2.289l0-.008.84-4.032.055-.065c.055-.065,0,0,0-.092a1.993,1.993,0,0,1,2.3-1.495,4.443,4.443,0,0,0,1.846-8.693h0a4.412,4.412,0,0,0-4.171,1.366,1.947,1.947,0,0,1-3.039-2.435,1.908,1.908,0,0,1,.141-.158,8.3,8.3,0,1,1,6.413,13.842Zm-1.762,8.489-.148.7a1.9,1.9,0,0,1-2.216,1.521c-.028,0-.054-.01-.081-.017a1.956,1.956,0,0,1-1.5-2.3l.148-.7a1.965,1.965,0,0,1,2.3-1.486A1.938,1.938,0,0,1,196.8,143.367Z" transform="translate(-158.417 -105.822)" fill="url(#linear-gradient)"/>
            <path id="Path_27693" data-name="Path 27693" d="M176.846,129.759l-.268-2.51a1.845,1.845,0,0,1,1.488-2.144,1.826,1.826,0,0,1,.2-.025,1.947,1.947,0,0,1,2.159,1.689l.508,4.088v.083c0,.083,0,0,.046.074a1.984,1.984,0,0,1-1.689,2.159,4.439,4.439,0,1,0,.746,8.846c.115-.009.23-.024.343-.042a4.354,4.354,0,0,0,3.507-2.621,1.956,1.956,0,0,1,2.558-1.054l.026.011a1.93,1.93,0,0,1,1,2.538l0,.009a8.3,8.3,0,1,1-10.547-11.073Zm-1.061-8.6-.092-.711a1.845,1.845,0,0,1,1.689-2.159,1.928,1.928,0,0,1,2.157,1.669l0,.019.092.7a1.975,1.975,0,0,1-1.689,2.169,1.919,1.919,0,0,1-2.155-1.651Z" transform="translate(-156.864 -105.825)" fill="url(#linear-gradient)"/>
          </g>
        </g>
      </g>
      <g id="freepik--speech-bubble--inject-15" transform="translate(255.029 234.633)">
        <path id="Path_27908" data-name="Path 27908" d="M286.894,236.974a29.874,29.874,0,0,1-47.688,24l-14.636,3.737,6.092-13.632a29.882,29.882,0,1,1,56.232-14.1Z" transform="translate(-223.953 -206.959)" fill="#fff"/>
        <path id="Path_27909" data-name="Path 27909" d="M287.511,236.943a30.088,30.088,0,0,1-4.5,15.641,32.927,32.927,0,0,1-2.379,3.35,33.5,33.5,0,0,1-2.865,2.955c-.527.445-.988.955-1.556,1.35l-1.646,1.218c-.552.412-1.169.724-1.745,1.087l-.881.527c-.3.173-.617.3-.93.453-.617.288-1.235.593-1.86.873l-1.926.7a15.02,15.02,0,0,1-1.976.568c-.667.156-1.317.37-1.992.461a28.428,28.428,0,0,1-4.075.445,24.34,24.34,0,0,1-4.116-.058,29.735,29.735,0,0,1-7.952-1.852,30.343,30.343,0,0,1-7.121-3.968l-.107-.082h-.14l-14.653,3.671.42.5,6.125-13.624.082-.173-.1-.173a29.586,29.586,0,0,1-.98-25.856,30.8,30.8,0,0,1,7.944-10.7,29.536,29.536,0,0,1,11.829-6.125A29.648,29.648,0,0,1,287.5,236.869Zm0,0a30.081,30.081,0,1,0-60.143,1.177,29.7,29.7,0,0,0,3.564,13.171v-.354l-6.059,13.649-.3.683.724-.189,14.62-3.8-.247-.049a29.9,29.9,0,0,0,15.386,5.762,26.857,26.857,0,0,0,4.116,0,30.093,30.093,0,0,0,4.116-.5c.683-.1,1.342-.329,2.017-.486a16.551,16.551,0,0,0,1.976-.6l1.943-.724c.626-.288,1.243-.609,1.86-.906.3-.156.626-.3.922-.461l.881-.543c.584-.379,1.194-.7,1.745-1.111l1.646-1.251a18.652,18.652,0,0,0,1.556-1.35,33.751,33.751,0,0,0,2.865-2.98,34.578,34.578,0,0,0,2.371-3.383A30.03,30.03,0,0,0,287.511,236.943Z" transform="translate(-224.57 -206.928)" fill="#263238"/>
        <path id="Path_27910" data-name="Path 27910" d="M257.389,226.252a9.812,9.812,0,1,1-6.944-2.879,9.821,9.821,0,0,1,6.944,2.879Zm-1.992,2a1.836,1.836,0,1,0,.54,1.3,1.836,1.836,0,0,0-.54-1.3Z" transform="translate(-210.541 -209.836)" fill="#1c0f54"/>
        <rect id="Rectangle_16028" data-name="Rectangle 16028" width="2.972" height="9.014" transform="translate(29.522 27.383) rotate(-45)" fill="#e0e0e0"/>
        <path id="Path_27911" data-name="Path 27911" d="M272.479,241.42l4.322,4.322-1.062,1.062-1.786-.552.552,1.786-1.753,1.753-2.379-.486.494,2.371-.4.4-1.786-.552.552,1.786-1.795-.552.56,1.795-1.4,1.391-2.371-.494.494,2.371-1.218,1.218-4.816.486.494-4.807Z" transform="translate(-241.946 -213.027)" fill="#ebebeb"/>
        <rect id="Rectangle_16029" data-name="Rectangle 16029" width="17.518" height="0.42" transform="translate(19.43 43.262) rotate(-45)" fill="#dbdbdb"/>
        <path id="Path_27912" data-name="Path 27912" d="M259.451,233.455a8.578,8.578,0,0,1-2.519,6.018,8.438,8.438,0,1,1,0-12.035A8.578,8.578,0,0,1,259.451,233.455Zm0,0a8.635,8.635,0,1,0-5.354,7.987,8.627,8.627,0,0,0,5.354-7.987Z" transform="translate(-211.006 -210.091)" opacity="0.1"/>
      </g>
    </g>
  </g>
</svg>
