<svg xmlns="http://www.w3.org/2000/svg" xmlns:xlink="http://www.w3.org/1999/xlink" width="271.982" height="160.199" viewBox="0 0 271.982 160.199">
  <defs>
    <linearGradient id="linear-gradient" x1="0.5" x2="0.5" y2="1" gradientUnits="objectBoundingBox">
      <stop offset="0" stop-color="#89f995"/>
      <stop offset="1" stop-color="#32c8d9"/>
    </linearGradient>
    <linearGradient id="linear-gradient-4" y1="-0.345" xlink:href="#linear-gradient"/>
  </defs>
  <g id="Group_47217" data-name="Group 47217" transform="translate(-66 -121)">
    <g id="Group_38737" data-name="Group 38737" transform="translate(120.296 121.404)">
      <g id="Group_38680" data-name="Group 38680" transform="translate(-0.001 0)">
        <g id="Group_38677" data-name="Group 38677" transform="translate(0.296 0.295)">
          <rect id="Rectangle_15228" data-name="Rectangle 15228" width="217.145" height="135.682" rx="6.56" transform="translate(-8 -0.699)" fill="#fff"/>
        </g>
        <g id="Group_38679" data-name="Group 38679">
          <g id="Group_38678" data-name="Group 38678">
            <path id="Path_10494" data-name="Path 10494" d="M878.422,147.192s.179-.013.533-.029a10.822,10.822,0,0,0,1.555-.2,9.406,9.406,0,0,0,2.309-.793,6.006,6.006,0,0,0,2.25-1.863,4.356,4.356,0,0,0,.708-3.017q-.007-1.717-.014-3.751c-.008-2.712-.017-5.839-.027-9.359-.023-14.09-.054-34.471-.094-59.652-.011-12.592-.023-26.386-.036-41.192q-.015-5.547-.031-11.282c-.13-1.854-2.024-3.6-4.649-4.24a15.7,15.7,0,0,0-4.18-.309l-4.359,0-35.989.008-160.245.015a9.465,9.465,0,0,0-4.688,1.181,4.65,4.65,0,0,0-2.386,2.958A9.378,9.378,0,0,0,669,17.43v5.351q0,7.117,0,14.138,0,14.038,0,27.64c-.007,18.122-.013,35.6-.017,52.253q-.007,12.488-.012,24.333c.006.489-.02.994.032,1.46a3.718,3.718,0,0,0,.488,1.375,5.845,5.845,0,0,0,2.571,2.176,9.673,9.673,0,0,0,3.885.858l4.254.008,16.705.005,60.936.024,88.233.063,23.989.038,6.238.02c1.405.007,2.125.021,2.125.021s-.72.014-2.125.02l-6.238.02-23.989.038-88.233.064-60.936.024-16.705,0-4.268-.005a10.374,10.374,0,0,1-4.164-.916,6.269,6.269,0,0,1-2.756-2.33,4,4,0,0,1-.525-1.474c-.055-.515-.028-1-.035-1.491q-.007-11.833-.012-24.333c-.006-16.652-.011-34.131-.017-52.253q0-13.591,0-27.64,0-7.02,0-14.138,0-1.78,0-3.564V17.43a9.673,9.673,0,0,1,.086-1.814,5.04,5.04,0,0,1,2.584-3.2,10.237,10.237,0,0,1,5.074-1.279l160.245.016,35.989.008h4.359a16.434,16.434,0,0,1,4.359.334c2.813.688,4.834,2.557,4.974,4.543q.008,5.744.016,11.3c-.014,14.806-.025,28.6-.036,41.192-.04,25.182-.071,45.562-.094,59.652-.01,3.521-.019,6.648-.027,9.359q-.007,2.034-.014,3.751a4.419,4.419,0,0,1-.749,3.051,6.1,6.1,0,0,1-2.3,1.877,9.442,9.442,0,0,1-2.345.784,10.286,10.286,0,0,1-1.57.178C878.6,147.193,878.422,147.192,878.422,147.192Z" transform="translate(-668.409 -11.133)" fill="#32c8d9"/>
          </g>
        </g>
      </g>
      <g id="Group_38681" data-name="Group 38681" transform="translate(9.176 10.469)">
        <path id="Path_10495" data-name="Path 10495" d="M684.02,24.132a3.754,3.754,0,1,1-3.754-3.754A3.754,3.754,0,0,1,684.02,24.132Z" transform="translate(-676.512 -20.378)" fill="url(#linear-gradient)"/>
      </g>
      <g id="Group_38682" data-name="Group 38682" transform="translate(20.14 10.469)">
        <ellipse id="Ellipse_2438" data-name="Ellipse 2438" cx="3.754" cy="3.754" rx="3.754" ry="3.754" fill="url(#linear-gradient)"/>
      </g>
      <g id="Group_38683" data-name="Group 38683" transform="translate(31.104 10.469)">
        <ellipse id="Ellipse_2439" data-name="Ellipse 2439" cx="3.754" cy="3.754" rx="3.754" ry="3.754" fill="url(#linear-gradient)"/>
      </g>
      <g id="Group_38685" data-name="Group 38685" transform="translate(0.296 24.578)">
        <g id="Group_38684" data-name="Group 38684">
          <path id="Path_10496" data-name="Path 10496" d="M885.816,33.131c0,.163-48.614.3-108.568.3-59.974,0-108.577-.132-108.577-.3s48.6-.294,108.577-.294C837.2,32.837,885.816,32.969,885.816,33.131Z" transform="translate(-668.671 -32.837)" fill="#32c8d9"/>
        </g>
      </g>
      <g id="Group_38732" data-name="Group 38732" transform="translate(72.489 43.69)">
        <g id="Group_38708" data-name="Group 38708">
          <g id="Group_38707" data-name="Group 38707">
            <g id="Group_38688" data-name="Group 38688" transform="translate(9.887 5.173)">
              <g id="Group_38687" data-name="Group 38687">
                <g id="Group_38686" data-name="Group 38686">
                  <path id="Path_10497" data-name="Path 10497" d="M798.32,106s.086-.12.259-.349l.146-.193c.05-.074.094-.162.148-.254a4.02,4.02,0,0,0,.33-.66c.052-.13.113-.265.165-.412l.131-.477a3.379,3.379,0,0,0,.11-.53,5.739,5.739,0,0,0,.08-.584,11.03,11.03,0,0,0-.129-2.817,25.314,25.314,0,0,0-2.586-7.285,56.845,56.845,0,0,0-5.556-8.639,88.4,88.4,0,0,0-8.285-9.306,101.287,101.287,0,0,0-10.876-9.283c-2.03-1.491-4.172-2.939-6.429-4.3a62.256,62.256,0,0,0-7.141-3.745,33.427,33.427,0,0,0-7.946-2.49,14.058,14.058,0,0,0-4.237-.1,7.968,7.968,0,0,0-2.046.592,5.109,5.109,0,0,0-2.774,3.105,7.945,7.945,0,0,0-.357,2.1,14.009,14.009,0,0,0,.583,4.2,33.312,33.312,0,0,0,3.379,7.613,61.9,61.9,0,0,0,4.533,6.67c1.611,2.088,3.293,4.052,5.006,5.9A101.388,101.388,0,0,0,765.292,94.5a88.344,88.344,0,0,0,10.188,7.172A56.73,56.73,0,0,0,784.7,106.2a25.336,25.336,0,0,0,7.532,1.741,11.023,11.023,0,0,0,2.813-.193,5.749,5.749,0,0,0,.571-.147,3.336,3.336,0,0,0,.514-.169l.459-.185c.14-.069.267-.145.391-.211a4.042,4.042,0,0,0,.618-.4c.085-.065.168-.118.236-.176L798,106.3c.207-.2.317-.3.317-.3s-.1.108-.306.31l-.172.171c-.068.059-.149.114-.233.179a3.808,3.808,0,0,1-.617.412c-.123.068-.251.146-.392.216l-.46.189a3.329,3.329,0,0,1-.516.174,5.709,5.709,0,0,1-.573.152,11.018,11.018,0,0,1-2.827.209,25.315,25.315,0,0,1-7.561-1.718,56.818,56.818,0,0,1-9.244-4.523,88.225,88.225,0,0,1-10.214-7.165,101.108,101.108,0,0,1-10.487-9.753C753,83,751.313,81.038,749.7,78.947a62,62,0,0,1-4.548-6.686,33.438,33.438,0,0,1-3.4-7.652,14.136,14.136,0,0,1-.591-4.249,8.113,8.113,0,0,1,.366-2.149,5.988,5.988,0,0,1,1.091-1.907,5.926,5.926,0,0,1,1.771-1.3,8.082,8.082,0,0,1,2.093-.607,14.2,14.2,0,0,1,4.288.105,33.467,33.467,0,0,1,7.986,2.5,62.2,62.2,0,0,1,7.158,3.757c2.261,1.368,4.405,2.82,6.438,4.316a101.139,101.139,0,0,1,10.881,9.308,88.22,88.22,0,0,1,8.281,9.332,56.706,56.706,0,0,1,5.545,8.67,25.285,25.285,0,0,1,2.567,7.316,11.028,11.028,0,0,1,.114,2.832,5.739,5.739,0,0,1-.086.588,3.3,3.3,0,0,1-.114.532l-.136.478c-.053.148-.117.284-.169.414a3.994,3.994,0,0,1-.34.66c-.056.091-.1.179-.152.253l-.151.19C798.414,105.886,798.32,106,798.32,106Z" transform="translate(-741.154 -54.283)" fill="#89f995"/>
                </g>
              </g>
            </g>
            <g id="Group_38691" data-name="Group 38691" transform="translate(2.686 18.406)">
              <g id="Group_38690" data-name="Group 38690">
                <g id="Group_38689" data-name="Group 38689">
                  <path id="Path_10498" data-name="Path 10498" d="M809.442,79.636s-.016-.146-.038-.433l-.019-.241c-.013-.088-.037-.183-.059-.288a3.894,3.894,0,0,0-.193-.712c-.049-.131-.093-.273-.152-.418s-.143-.288-.22-.443a3.321,3.321,0,0,0-.271-.469,5.7,5.7,0,0,0-.328-.49,11.012,11.012,0,0,0-1.971-2.016,25.328,25.328,0,0,0-6.78-3.714,56.84,56.84,0,0,0-9.9-2.749,88.432,88.432,0,0,0-12.376-1.43,101.293,101.293,0,0,0-14.3.313c-2.508.238-5.07.583-7.662,1.069a62.147,62.147,0,0,0-7.821,1.959A33.363,33.363,0,0,0,739.772,73a14.071,14.071,0,0,0-3.232,2.743,7.949,7.949,0,0,0-1.132,1.805,5.1,5.1,0,0,0,0,4.164,7.927,7.927,0,0,0,1.132,1.806,13.994,13.994,0,0,0,3.231,2.745,33.331,33.331,0,0,0,7.588,3.432,61.993,61.993,0,0,0,7.824,1.96c2.592.486,5.155.831,7.663,1.069a101.3,101.3,0,0,0,14.3.311,88.259,88.259,0,0,0,12.377-1.43,56.828,56.828,0,0,0,9.9-2.748,25.3,25.3,0,0,0,6.78-3.715,11.041,11.041,0,0,0,1.97-2.016,5.524,5.524,0,0,0,.328-.49,3.258,3.258,0,0,0,.271-.469l.22-.443c.059-.144.1-.285.152-.417a3.918,3.918,0,0,0,.193-.712c.021-.1.046-.2.059-.288l.019-.241c.023-.286.038-.434.038-.434s0,.147-.021.436l-.015.241c-.011.089-.035.185-.055.29a3.9,3.9,0,0,1-.186.718c-.048.132-.091.276-.148.422l-.217.446a3.3,3.3,0,0,1-.269.474,5.543,5.543,0,0,1-.326.495,11.031,11.031,0,0,1-1.97,2.037,25.279,25.279,0,0,1-6.786,3.752,56.636,56.636,0,0,1-9.907,2.778,88.164,88.164,0,0,1-12.393,1.453,101.183,101.183,0,0,1-14.318-.3c-2.513-.237-5.08-.581-7.678-1.066a62.264,62.264,0,0,1-7.845-1.961,33.549,33.549,0,0,1-7.628-3.448,14.192,14.192,0,0,1-3.269-2.779,8.131,8.131,0,0,1-1.157-1.847,5.263,5.263,0,0,1,0-4.3,8.092,8.092,0,0,1,1.158-1.846,14.206,14.206,0,0,1,3.269-2.776,33.461,33.461,0,0,1,7.627-3.446,62.184,62.184,0,0,1,7.843-1.961c2.6-.485,5.164-.829,7.677-1.066a101.165,101.165,0,0,1,14.317-.3,88.167,88.167,0,0,1,12.392,1.453,56.678,56.678,0,0,1,9.909,2.778,25.22,25.22,0,0,1,6.787,3.752,10.962,10.962,0,0,1,1.97,2.037,5.325,5.325,0,0,1,.327.495,3.351,3.351,0,0,1,.269.473l.216.447c.059.146.1.29.149.422a3.9,3.9,0,0,1,.186.718c.02.105.044.2.055.289l.015.242C809.438,79.49,809.442,79.636,809.442,79.636Z" transform="translate(-734.794 -65.969)" fill="#89f995"/>
                </g>
              </g>
            </g>
            <g id="Group_38694" data-name="Group 38694" transform="translate(15.545)">
              <g id="Group_38693" data-name="Group 38693">
                <g id="Group_38692" data-name="Group 38692">
                  <path id="Path_10499" data-name="Path 10499" d="M794.318,50.9s-.126-.078-.367-.236l-.2-.132c-.077-.044-.168-.083-.263-.129a3.842,3.842,0,0,0-.682-.284c-.134-.042-.273-.094-.422-.136l-.485-.1a3.3,3.3,0,0,0-.537-.072,5.382,5.382,0,0,0-.589-.041,11.008,11.008,0,0,0-2.8.323,25.339,25.339,0,0,0-7.09,3.082,56.755,56.755,0,0,0-8.236,6.138,88.258,88.258,0,0,0-8.713,8.905,101.276,101.276,0,0,0-8.512,11.489c-1.349,2.128-2.645,4.364-3.849,6.711a62.086,62.086,0,0,0-3.244,7.381,33.377,33.377,0,0,0-1.937,8.1,14.067,14.067,0,0,0,.188,4.234,7.992,7.992,0,0,0,.733,2,5.1,5.1,0,0,0,3.289,2.554,7.915,7.915,0,0,0,2.121.212,13.978,13.978,0,0,0,4.149-.872,33.366,33.366,0,0,0,7.363-3.894,62.161,62.161,0,0,0,6.341-4.981c1.973-1.752,3.815-3.565,5.54-5.4a101.271,101.271,0,0,0,9.006-11.109,88.376,88.376,0,0,0,6.454-10.658,56.931,56.931,0,0,0,3.89-9.505,25.345,25.345,0,0,0,1.217-7.634,11.059,11.059,0,0,0-.385-2.794c-.044-.2-.129-.379-.187-.559a3.288,3.288,0,0,0-.2-.5c-.076-.155-.147-.3-.216-.444s-.163-.257-.237-.376a3.96,3.96,0,0,0-.445-.589c-.069-.08-.129-.159-.191-.222l-.178-.163c-.213-.194-.319-.3-.319-.3s.113.094.331.283l.182.16c.063.063.125.142.195.221a3.956,3.956,0,0,1,.454.588c.076.118.162.24.241.376s.144.289.221.445a3.3,3.3,0,0,1,.209.5,5.627,5.627,0,0,1,.191.562,11.045,11.045,0,0,1,.4,2.8,25.25,25.25,0,0,1-1.194,7.662,56.689,56.689,0,0,1-3.874,9.534,88.374,88.374,0,0,1-6.445,10.683,101.092,101.092,0,0,1-9.007,11.135c-1.727,1.841-3.572,3.659-5.547,5.415a62.419,62.419,0,0,1-6.356,5,33.466,33.466,0,0,1-7.4,3.916,14.185,14.185,0,0,1-4.2.882,8.108,8.108,0,0,1-2.169-.217,5.269,5.269,0,0,1-3.393-2.634,8.1,8.1,0,0,1-.75-2.046,14.241,14.241,0,0,1-.19-4.285,33.542,33.542,0,0,1,1.949-8.139,62.179,62.179,0,0,1,3.256-7.4c1.208-2.35,2.509-4.59,3.861-6.72a101.19,101.19,0,0,1,8.537-11.5,88.112,88.112,0,0,1,8.74-8.9,56.641,56.641,0,0,1,8.267-6.129,25.241,25.241,0,0,1,7.123-3.065,11.017,11.017,0,0,1,2.818-.309,5.725,5.725,0,0,1,.591.044,3.356,3.356,0,0,1,.54.078l.486.1c.151.044.291.1.425.142a3.956,3.956,0,0,1,.682.292c.1.05.186.089.263.135l.2.137C794.2,50.813,794.318,50.9,794.318,50.9Z" transform="translate(-746.15 -49.715)" fill="#89f995"/>
                </g>
              </g>
            </g>
            <g id="Group_38696" data-name="Group 38696" transform="translate(0 47.055)">
              <g id="Group_38695" data-name="Group 38695">
                <path id="Path_10500" data-name="Path 10500" d="M734.786,91.673a1.384,1.384,0,1,1-1.958,0A1.385,1.385,0,0,1,734.786,91.673Z" transform="translate(-732.422 -91.268)" fill="#32c8d9"/>
              </g>
            </g>
            <g id="Group_38698" data-name="Group 38698" transform="translate(77.715 3.171)">
              <g id="Group_38697" data-name="Group 38697">
                <path id="Path_10501" data-name="Path 10501" d="M803.82,53.9a1.384,1.384,0,1,1-1.384-1.385A1.385,1.385,0,0,1,803.82,53.9Z" transform="translate(-801.051 -52.515)" fill="#32c8d9"/>
              </g>
            </g>
            <g id="Group_38700" data-name="Group 38700" transform="translate(10.404 51.662)">
              <g id="Group_38699" data-name="Group 38699">
                <path id="Path_10502" data-name="Path 10502" d="M742.313,95.688a.352.352,0,1,1-.351-.352A.352.352,0,0,1,742.313,95.688Z" transform="translate(-741.61 -95.336)" fill="#ff725e"/>
              </g>
            </g>
            <g id="Group_38702" data-name="Group 38702" transform="translate(17.914 12.863)">
              <g id="Group_38701" data-name="Group 38701">
                <path id="Path_10503" data-name="Path 10503" d="M748.946,61.426a.352.352,0,1,1-.352-.352A.352.352,0,0,1,748.946,61.426Z" transform="translate(-748.242 -61.074)" fill="#ff725e"/>
              </g>
            </g>
            <g id="Group_38704" data-name="Group 38704" transform="translate(72.825 31.722)">
              <g id="Group_38703" data-name="Group 38703">
                <path id="Path_10504" data-name="Path 10504" d="M797.436,78.079a.352.352,0,1,1-.352-.351A.352.352,0,0,1,797.436,78.079Z" transform="translate(-796.733 -77.728)" fill="#ff725e"/>
              </g>
            </g>
            <g id="Group_38706" data-name="Group 38706" transform="translate(77.715 15.317)">
              <g id="Group_38705" data-name="Group 38705">
                <path id="Path_10505" data-name="Path 10505" d="M801.755,63.593a.352.352,0,1,1-.352-.352A.353.353,0,0,1,801.755,63.593Z" transform="translate(-801.051 -63.241)" fill="#ff725e"/>
              </g>
            </g>
          </g>
        </g>
        <g id="Group_38731" data-name="Group 38731" transform="translate(20.753 1.665)">
          <g id="Group_38730" data-name="Group 38730">
            <g id="Group_38729" data-name="Group 38729">
              <g id="Group_38720" data-name="Group 38720">
                <g id="Group_38711" data-name="Group 38711" transform="translate(5.028)">
                  <g id="Group_38710" data-name="Group 38710">
                    <g id="Group_38709" data-name="Group 38709">
                      <path id="Path_10506" data-name="Path 10506" d="M784.112,89.331H779.76V65.647a10.11,10.11,0,1,0-20.219,0V89.331h-4.352V65.647a14.461,14.461,0,1,1,28.923,0Z" transform="translate(-755.189 -51.185)" fill="#f5f5f5"/>
                    </g>
                  </g>
                </g>
                <g id="Group_38714" data-name="Group 38714" transform="translate(5.028)" opacity="0.3">
                  <g id="Group_38713" data-name="Group 38713">
                    <g id="Group_38712" data-name="Group 38712">
                      <path id="Path_10507" data-name="Path 10507" d="M784.112,89.331H779.76V65.647a10.11,10.11,0,1,0-20.219,0V89.331h-4.352V65.647a14.461,14.461,0,1,1,28.923,0Z" transform="translate(-755.189 -51.185)" fill="#1c0f54"/>
                    </g>
                  </g>
                </g>
                <g id="Group_38717" data-name="Group 38717" transform="translate(0 27.61)">
                  <g id="Group_38716" data-name="Group 38716">
                    <g id="Group_38715" data-name="Group 38715">
                      <rect id="Rectangle_15229" data-name="Rectangle 15229" width="38.978" height="25.007" rx="2.252" fill="url(#linear-gradient-4)"/>
                    </g>
                  </g>
                </g>
                <g id="Group_38719" data-name="Group 38719" transform="translate(16.23 33.597)" opacity="0.3">
                  <g id="Group_38718" data-name="Group 38718">
                    <path id="Path_10508" data-name="Path 10508" d="M771.6,84.112a3.258,3.258,0,1,0-4.146,3.12V92.1h1.777V87.232A3.247,3.247,0,0,0,771.6,84.112Z" transform="translate(-765.082 -80.854)"/>
                  </g>
                </g>
              </g>
              <g id="Group_38724" data-name="Group 38724" transform="translate(1.917 31.618)">
                <g id="Group_38723" data-name="Group 38723">
                  <g id="Group_38722" data-name="Group 38722">
                    <g id="Group_38721" data-name="Group 38721">
                      <path id="Path_10509" data-name="Path 10509" d="M752.6,97.734c-.089,0-.162-4.171-.162-9.314s.072-9.314.162-9.314.162,4.17.162,9.314S752.693,97.734,752.6,97.734Z" transform="translate(-752.442 -79.106)" fill="#fafafa"/>
                    </g>
                  </g>
                </g>
              </g>
              <g id="Group_38728" data-name="Group 38728" transform="translate(14.799 32.684)">
                <g id="Group_38727" data-name="Group 38727">
                  <g id="Group_38726" data-name="Group 38726">
                    <g id="Group_38725" data-name="Group 38725">
                      <path id="Path_10510" data-name="Path 10510" d="M765.956,88.395c-.01.017-.152-.051-.382-.216a3.978,3.978,0,0,1-.84-.856,4.567,4.567,0,0,1,1.623-6.851,3.976,3.976,0,0,1,1.135-.388.988.988,0,0,1,.438-.022,9.955,9.955,0,0,0-1.463.611,4.515,4.515,0,0,0-1.543,6.519A9.974,9.974,0,0,0,765.956,88.395Z" transform="translate(-763.818 -80.048)" fill="#fafafa"/>
                    </g>
                  </g>
                </g>
              </g>
            </g>
          </g>
        </g>
      </g>
    </g>
    <g id="Message" transform="translate(66 221.004)">
      <g id="Group_38766" data-name="Group 38766" transform="translate(0 0)">
        <g id="Group_38762" data-name="Group 38762">
          <g id="Group_38759" data-name="Group 38759" transform="translate(0.295 0.271)">
            <path id="Path_10551" data-name="Path 10551" d="M712.707,98.46H624.5a4.588,4.588,0,0,0-4.587,4.589v40.186a4.588,4.588,0,0,0,4.587,4.587H661.5l7.86,10.08,6.551-10.08h36.794a4.588,4.588,0,0,0,4.587-4.587V103.049A4.588,4.588,0,0,0,712.707,98.46Z" transform="translate(-619.909 -98.46)" fill="#fff"/>
          </g>
          <g id="Group_38761" data-name="Group 38761">
            <g id="Group_38760" data-name="Group 38760">
              <path id="Path_10552" data-name="Path 10552" d="M712.742,98.492s.146-.008.436,0a4.484,4.484,0,0,1,1.258.28,4.539,4.539,0,0,1,1.745,1.18,4.641,4.641,0,0,1,1.208,2.623c.085,4.377.069,10.74.105,18.8.01,4.031.021,8.481.034,13.308q.007,3.621.015,7.523a10.793,10.793,0,0,1-.089,2,4.819,4.819,0,0,1-4.5,3.863l-37.009.055.228-.125-6.543,10.084-.214.331-.243-.31-7.865-10.075.226.111-31.8.007h-3.821c-.646-.012-1.243.027-1.933-.034a4.842,4.842,0,0,1-1.9-.631,4.9,4.9,0,0,1-2.309-3.144,8.462,8.462,0,0,1-.122-1.932v-1.87q0-7.465,0-14.7t.008-14.186q0-3.475,0-6.877v-1.7a4.88,4.88,0,0,1,2.64-4.32,4.715,4.715,0,0,1,1.668-.507c.593-.054,1.122-.025,1.674-.033l3.257,0,6.382.007,12.2.015,21.9.036,31.717.094,8.623.054,2.242.029c.505.01.764.031.764.031s-.259.02-.764.029c-.525.008-1.271.017-2.242.029l-8.623.055-31.717.094-21.9.036-12.2.015-6.382.007-3.257,0c-.541.007-1.112-.017-1.613.033a4.162,4.162,0,0,0-1.48.452,4.331,4.331,0,0,0-2.337,3.838v1.7q0,3.4,0,6.877,0,6.952.008,14.186t0,14.7v1.87a7.911,7.911,0,0,0,.109,1.8,4.307,4.307,0,0,0,2.03,2.763,4.256,4.256,0,0,0,1.67.555c.571.054,1.243.019,1.867.029h3.821l31.8.007h.14l.087.111,7.854,10.084-.457.019,6.558-10.075.08-.123h.148l36.989.034a4.376,4.376,0,0,0,4.09-3.492,10.475,10.475,0,0,0,.088-1.918q.009-3.9.016-7.523c.013-4.827.023-9.277.033-13.308.021-8.038.038-14.405.05-18.783a4.562,4.562,0,0,0-2.811-3.737A5.509,5.509,0,0,0,712.742,98.492Z" transform="translate(-619.648 -98.221)" fill="#32c8d9"/>
            </g>
          </g>
        </g>
        <g id="Group_38763" data-name="Group 38763" transform="translate(29.876 8.829)">
          <path id="Path_10553" data-name="Path 10553" d="M648.628,108.791v1.488h-.972v-1.5l-1.625-2.7h1.03l1.122,1.864,1.121-1.864h.953Z" transform="translate(-646.031 -106.01)" fill="#263238"/>
          <path id="Path_10554" data-name="Path 10554" d="M649.735,108.188a2.3,2.3,0,1,1,2.3,2.171A2.172,2.172,0,0,1,649.735,108.188Zm3.61,0a1.314,1.314,0,1,0-1.314,1.344A1.28,1.28,0,0,0,653.345,108.188Z" transform="translate(-645.541 -106.018)" fill="#263238"/>
          <path id="Path_10555" data-name="Path 10555" d="M654.41,108.432v-2.35h.971V108.4c0,.8.349,1.127.935,1.127s.935-.33.935-1.127v-2.315h.96v2.35a1.9,1.9,0,1,1-3.8,0Z" transform="translate(-644.922 -106.01)" fill="#263238"/>
          <path id="Path_10556" data-name="Path 10556" d="M661.292,110.279l-.809-1.17h-.893v1.17h-.972v-4.2h1.818c1.12,0,1.822.581,1.822,1.522a1.364,1.364,0,0,1-.863,1.325l.941,1.35Zm-.91-3.406h-.792v1.463h.792c.593,0,.893-.275.893-.732S660.974,106.872,660.381,106.872Z" transform="translate(-644.364 -106.01)" fill="#263238"/>
          <path id="Path_10557" data-name="Path 10557" d="M663.78,108.188a2.312,2.312,0,0,1,4.005-1.427l-.623.575a1.356,1.356,0,0,0-1.057-.49,1.343,1.343,0,0,0,0,2.686,1.343,1.343,0,0,0,1.057-.5l.623.575a2.307,2.307,0,0,1-4.005-1.421Z" transform="translate(-643.681 -106.018)" fill="#263238"/>
          <path id="Path_10558" data-name="Path 10558" d="M667.586,108.188a2.3,2.3,0,1,1,2.3,2.171A2.172,2.172,0,0,1,667.586,108.188Zm3.609,0a1.313,1.313,0,1,0-1.312,1.344A1.279,1.279,0,0,0,671.2,108.188Z" transform="translate(-643.177 -106.018)" fill="#263238"/>
          <path id="Path_10559" data-name="Path 10559" d="M672.292,106.082H674.2a2.108,2.108,0,1,1,0,4.2h-1.907Zm1.859,3.4a1.3,1.3,0,1,0,0-2.6h-.888v2.6Z" transform="translate(-642.554 -106.01)" fill="#263238"/>
          <path id="Path_10560" data-name="Path 10560" d="M679.919,109.5v.78H676.67v-4.2h3.172v.779h-2.207v.912h1.949v.755h-1.949v.97Z" transform="translate(-641.974 -106.01)" fill="#263238"/>
        </g>
        <g id="Group_38764" data-name="Group 38764" transform="translate(9.474 17.506)">
          <rect id="Rectangle_15238" data-name="Rectangle 15238" width="79.027" height="23.028" rx="3.545" fill="#f5f5f5"/>
        </g>
      </g>
    </g>
  </g>
</svg>
