<svg xmlns="http://www.w3.org/2000/svg" xmlns:xlink="http://www.w3.org/1999/xlink" width="31.134" height="31.116" viewBox="0 0 31.134 31.116">
  <defs>
    <linearGradient id="linear-gradient" x1="0.5" y1="-1.644" x2="0.5" y2="1" gradientUnits="objectBoundingBox">
      <stop offset="0" stop-color="#89f995"/>
      <stop offset="1" stop-color="#32c8d9"/>
    </linearGradient>
  </defs>
  <g id="xKJrQ6.tif" transform="translate(-61.681 -1202.074)">
    <g id="Group_46863" data-name="Group 46863" transform="translate(61.681 1202.074)">
      <path id="Path_28049" data-name="Path 28049" d="M75.522,1202.074h3.286a3.371,3.371,0,0,0,.49.147,15.525,15.525,0,0,1,13.073,11.768c.171.692.3,1.4.444,2.093v3.113a6.65,6.65,0,0,0-.162.654,15.565,15.565,0,1,1-19.21-17.293C74.132,1202.38,74.828,1202.234,75.522,1202.074Zm15.217,15.571a13.488,13.488,0,1,0-13.483,13.481A13.5,13.5,0,0,0,90.739,1217.645Z" transform="translate(-61.681 -1202.074)" fill="url(#linear-gradient)"/>
      <path id="Path_28050" data-name="Path 28050" d="M136.575,1276.254c-1.2,1.468-2.417,2.473-4.273,2.251q-1.962-.234-1.458-2.141.983-3.711,1.982-7.418c.052-.194.107-.388.148-.585.129-.614.4-1.3-.116-1.8s-1.141-.129-1.713.034l-.247.071a4.156,4.156,0,0,1,4.368-2.141,1.419,1.419,0,0,1,1.173,1.986q-1.042,3.918-2.1,7.833c-.052.195-.1.391-.138.588-.327,1.514.211,1.99,1.711,1.516C136.074,1276.4,136.235,1276.354,136.575,1276.254Z" transform="translate(-118.731 -1253.595)" fill="url(#linear-gradient)"/>
      <path id="Path_28051" data-name="Path 28051" d="M153.477,1239.173a1.623,1.623,0,0,1,1.737-1.53,1.583,1.583,0,0,1,1.514,1.731,1.6,1.6,0,0,1-1.67,1.5A1.653,1.653,0,0,1,153.477,1239.173Z" transform="translate(-137.512 -1231.456)" fill="url(#linear-gradient)"/>
    </g>
  </g>
</svg>
