<svg id="Component_94_1" data-name="Component 94 – 1" xmlns="http://www.w3.org/2000/svg" xmlns:xlink="http://www.w3.org/1999/xlink" width="16.033" height="17.224" viewBox="0 0 16.033 17.224">
  <defs>
    <linearGradient id="linear-gradient" x1="0.5" x2="0.5" y2="1" gradientUnits="objectBoundingBox">
      <stop offset="0" stop-color="#89f995"/>
      <stop offset="1" stop-color="#32c8d9"/>
    </linearGradient>
  </defs>
  <path id="Path_979" data-name="Path 979" d="M251.038,325.235a7.952,7.952,0,0,1-9.331,7.787.909.909,0,0,0-.75.182,6.7,6.7,0,0,1-4.438,1.323c-.648-.031-.786-.282-.462-.839a6.337,6.337,0,0,0,.871-2.881.96.96,0,0,0-.2-.7,7.859,7.859,0,0,1,5.036-12.681A7.969,7.969,0,0,1,251.038,325.235Zm-13.961,8.379a.955.955,0,0,0,.573.037,5.731,5.731,0,0,0,2.989-1.279.948.948,0,0,1,.945-.234,6.321,6.321,0,0,0,2.3.1,7.052,7.052,0,0,0-.731-14.066,6.843,6.843,0,0,0-6.486,3.838,6.656,6.656,0,0,0,.658,7.459,2.083,2.083,0,0,1,.46,1.437A7.845,7.845,0,0,1,237.077,333.614Z" transform="translate(-235.006 -317.313)" fill="url(#linear-gradient)"/>
  <path id="Path_980" data-name="Path 980" d="M276.671,379.969c.836,0,1.671,0,2.507,0,.259,0,.518.034.525.344s-.246.365-.508.364q-2.552,0-5.1,0c-.264,0-.51-.055-.5-.369s.273-.339.528-.338C274.97,379.971,275.821,379.969,276.671,379.969Z" transform="translate(-268.629 -373.101)" fill="url(#linear-gradient)"/>
  <path id="Path_981" data-name="Path 981" d="M275.674,398.23c-.551,0-1.1,0-1.653,0-.235,0-.433-.051-.446-.319-.015-.3.2-.366.448-.366h3.306c.25,0,.461.071.446.368-.014.268-.215.32-.448.318C276.776,398.227,276.225,398.23,275.674,398.23Z" transform="translate(-268.939 -388.753)" fill="url(#linear-gradient)"/>
</svg>
