<svg id="Group_41942" data-name="Group 41942" xmlns="http://www.w3.org/2000/svg" width="14.209" height="9.162" viewBox="0 0 14.209 9.162">
  <path id="Path_24943" data-name="Path 24943" d="M-2259.62,2140.626a.572.572,0,0,1,.34.192l4.219,3.708c.119.1.24.2.357.312a.456.456,0,0,1-.011.75q-1.34,1.181-2.683,2.357-.937.824-1.875,1.647a1.03,1.03,0,0,1-.238.169c-.162.071-.3-.006-.372-.18a.435.435,0,0,1,.119-.538l1.557-1.366,2.588-2.275c.223-.2.222-.2-.01-.4q-2.055-1.8-4.11-3.606a.46.46,0,0,1-.185-.419.365.365,0,0,1,.2-.316A.893.893,0,0,1-2259.62,2140.626Z" transform="translate(2268.722 -2140.626)" fill="#1c0f54"/>
  <line id="Line_2" data-name="Line 2" x1="13.773" transform="translate(0 4.581)" fill="none" stroke="#1c0f54" stroke-width="0.5"/>
</svg>
