<svg xmlns="http://www.w3.org/2000/svg" xmlns:xlink="http://www.w3.org/1999/xlink" width="17.075" height="21.974" viewBox="0 0 17.075 21.974">
  <defs>
    <linearGradient id="linear-gradient" x1="0.5" y1="-0.459" x2="0.5" y2="1" gradientUnits="objectBoundingBox">
      <stop offset="0" stop-color="#89f995"/>
      <stop offset="1" stop-color="#32c8d9"/>
    </linearGradient>
  </defs>
  <path id="Path_81" data-name="Path 81" d="M1154.669,454.21c-.209-.114-.307-.195-.307-.252,0-.016,0-.032,0-.048l-.58-5.571c-.009-3.29-1.807-5.89-4.551-6.695a2.118,2.118,0,1,0-3.821,0c-2.743.8-4.542,3.4-4.551,6.695l-.58,5.586c0,.016,0,.032,0,.048,0,.043-.144.15-.24.222l-.075.056a2.745,2.745,0,0,0-1.179,2.137,1.682,1.682,0,0,0,1.68,1.68h3.917a2.976,2.976,0,0,0,5.881,0h3.917a1.688,1.688,0,0,0,1.68-1.706A2.472,2.472,0,0,0,1154.669,454.21Zm-7.349,5.449a2.059,2.059,0,0,1-2-1.592h4A2.057,2.057,0,0,1,1147.32,459.659Zm6.856-2.517h-13.716a.762.762,0,0,1-.755-.781,1.84,1.84,0,0,1,.813-1.373l.069-.052a2.366,2.366,0,0,0,.334-.288h4.983a.462.462,0,1,0,0-.925h-4.676l.552-5.313a.474.474,0,0,0,0-.048c0-3.108,1.8-5.507,4.483-5.97a.462.462,0,0,0,.236-.794,1.194,1.194,0,1,1,1.634,0,.462.462,0,0,0,.236.794c2.682.463,4.483,2.862,4.483,5.97,0,.016,0,.032,0,.048l.58,5.575a1.276,1.276,0,0,0,.792,1.039,1.6,1.6,0,0,1,.7,1.363A.756.756,0,0,1,1154.176,457.142Z" transform="translate(-1138.781 -438.609)" fill="url(#linear-gradient)"/>
</svg>
