<svg xmlns="http://www.w3.org/2000/svg" xmlns:xlink="http://www.w3.org/1999/xlink" width="29.784" height="19.489" viewBox="0 0 29.784 19.489">
  <defs>
    <linearGradient id="linear-gradient" x1="0.5" x2="0.5" y2="1" gradientUnits="objectBoundingBox">
      <stop offset="0" stop-color="#89f995"/>
      <stop offset="1" stop-color="#32c8d9"/>
    </linearGradient>
  </defs>
  <g id="Group_47202" data-name="Group 47202" transform="translate(0 0)">
    <g id="Group_46743" data-name="Group 46743" opacity="0.097">
      <g id="Group_46742" data-name="Group 46742">
        <path id="Path_28011" data-name="Path 28011" d="M798.521,2845.638s2.9-6.193-.806-10.734-6.6-3.213-8.218-3.339-2.26-3.909-7.039-5.108-12.645,1.117-8.436,9.63c2.5,5.058-5.181,2.749-4.1,9.564Z" transform="translate(-769.814 -2826.162)" fill="url(#linear-gradient)"/>
      </g>
    </g>
    <g id="_3D7yPz" data-name="3D7yPz" transform="translate(7.408 7.207)">
      <g id="Group_46744" data-name="Group 46744" transform="translate(0 0)">
        <path id="Path_28012" data-name="Path 28012" d="M-1777.5,855.491a4.723,4.723,0,0,1-1.666-.293,2.622,2.622,0,0,1-.891-.535,1.246,1.246,0,0,1-.353-.544.961.961,0,0,1,.146-.857,2.023,2.023,0,0,1,.828-.661,4.321,4.321,0,0,1,1.586-.4,5.146,5.146,0,0,1,1.657.142,3.323,3.323,0,0,1,1.069.467,1.567,1.567,0,0,1,.535.576.947.947,0,0,1-.032.957,1.791,1.791,0,0,1-.7.64,3.991,3.991,0,0,1-1.514.465A5.514,5.514,0,0,1-1777.5,855.491Z" transform="translate(1784.275 -852.192)" fill="#32c8d9"/>
        <path id="Path_28013" data-name="Path 28013" d="M-2080.226,1188.734a4.924,4.924,0,0,1-1.847-.292,2.512,2.512,0,0,1-.932-.574,1.074,1.074,0,0,1-.352-.87,1.136,1.136,0,0,1,.383-.725,2.9,2.9,0,0,1,1.3-.671,5.072,5.072,0,0,1,1.781-.144,4.431,4.431,0,0,1,1.3.3,2.475,2.475,0,0,1,.85.541,1.167,1.167,0,0,1,.348.644.969.969,0,0,1-.165.7,1.909,1.909,0,0,1-.725.621,4.029,4.029,0,0,1-1.415.427A4.456,4.456,0,0,1-2080.226,1188.734Z" transform="translate(2083.363 -1181.229)" fill="#32c8d9"/>
        <path id="Path_28014" data-name="Path 28014" d="M-2083.513,1365.427a1.465,1.465,0,0,0,.67.883,3.4,3.4,0,0,0,1.152.477,5.2,5.2,0,0,0,1.591.113,4.283,4.283,0,0,0,1.548-.394,2.085,2.085,0,0,0,.809-.637,1.256,1.256,0,0,0,.206-.471c0,.086,0,.173,0,.259a2.9,2.9,0,0,1-.008.391,1.163,1.163,0,0,1-.378.688,2.708,2.708,0,0,1-1.072.605,4.994,4.994,0,0,1-1.885.22,4.547,4.547,0,0,1-1.322-.272,2.577,2.577,0,0,1-.937-.565,1.17,1.17,0,0,1-.365-.668,4.166,4.166,0,0,1-.009-.435C-2083.515,1365.557-2083.513,1365.492-2083.513,1365.427Z" transform="translate(2083.514 -1358.921)" fill="#32c8d9"/>
        <path id="Path_28015" data-name="Path 28015" d="M-2083.488,1456.323a1.462,1.462,0,0,0,.74.943,3.652,3.652,0,0,0,1.313.475,5.262,5.262,0,0,0,1.826,0,3.756,3.756,0,0,0,1.235-.419,1.724,1.724,0,0,0,.769-.764,1.338,1.338,0,0,0,.083-.257v.249a3.363,3.363,0,0,1-.007.391,1.1,1.1,0,0,1-.3.614,2.189,2.189,0,0,1-.705.51,4.259,4.259,0,0,1-1.472.388,5.194,5.194,0,0,1-1.617-.093,3.337,3.337,0,0,1-1.31-.564,1.546,1.546,0,0,1-.445-.5.984.984,0,0,1-.122-.471q0-.227,0-.454C-2083.5,1456.357-2083.5,1456.34-2083.488,1456.323Z" transform="translate(2083.499 -1448.678)" fill="#32c8d9"/>
        <path id="Path_28016" data-name="Path 28016" d="M-1774.674,1032.457c0,.085,0,.17,0,.255a2.82,2.82,0,0,1-.015.434,1.218,1.218,0,0,1-.4.666,2.8,2.8,0,0,1-1.1.6,5.016,5.016,0,0,1-1.882.2,4.865,4.865,0,0,1-.728-.112.608.608,0,0,1-.192-.075,3.368,3.368,0,0,0-.865-.375.867.867,0,0,1-.344-.2,1.224,1.224,0,0,1-.448-.745,4.227,4.227,0,0,1-.01-.529.805.805,0,0,1,0-.1,1.5,1.5,0,0,0,.768.954,3.715,3.715,0,0,0,1.341.47,5.161,5.161,0,0,0,1.225.061,4.268,4.268,0,0,0,1.741-.46,2.134,2.134,0,0,0,.55-.407A1.259,1.259,0,0,0-1774.674,1032.457Z" transform="translate(1784.477 -1030.182)" fill="#32c8d9"/>
        <path id="Path_28017" data-name="Path 28017" d="M-1586.064,1124.013a4.076,4.076,0,0,1-.021.721,1.206,1.206,0,0,1-.387.628,2.787,2.787,0,0,1-1.086.593,4.794,4.794,0,0,1-1.742.21c-.02,0-.037,0-.042-.026a1.649,1.649,0,0,0-.287-.649.164.164,0,0,1,.084,0,4.784,4.784,0,0,0,2.329-.322,2.149,2.149,0,0,0,.955-.708A1.139,1.139,0,0,0-1586.064,1124.013Z" transform="translate(1595.863 -1120.582)" fill="#32c8d9"/>
        <path id="Path_28018" data-name="Path 28018" d="M-1564.144,1305.241a4.577,4.577,0,0,1,0,.63,1.147,1.147,0,0,1-.4.723,2.872,2.872,0,0,1-1.2.63,4.833,4.833,0,0,1-1.589.18c-.044,0-.057-.016-.056-.059,0-.086,0-.173,0-.259a.791.791,0,0,0-.027-.218c-.028-.1-.006-.128.092-.123a4.839,4.839,0,0,0,1.607-.188,2.968,2.968,0,0,0,1.059-.527,1.322,1.322,0,0,0,.5-.724C-1564.153,1305.285-1564.149,1305.263-1564.144,1305.241Z" transform="translate(1573.938 -1299.522)" fill="#32c8d9"/>
        <path id="Path_28019" data-name="Path 28019" d="M-1563.805,1214.379a4.2,4.2,0,0,1,0,.645,1.163,1.163,0,0,1-.406.714,2.766,2.766,0,0,1-1.051.58,4.777,4.777,0,0,1-1.741.222c-.037,0-.046-.015-.045-.049,0-.09,0-.181,0-.271a.7.7,0,0,0-.025-.206.192.192,0,0,1-.009-.049c0-.08,0-.087.083-.083a4.821,4.821,0,0,0,1.584-.176,2.92,2.92,0,0,0,1.168-.6,1.257,1.257,0,0,0,.426-.67C-1563.812,1214.419-1563.809,1214.4-1563.805,1214.379Z" transform="translate(1573.597 -1209.807)" fill="#32c8d9"/>
      </g>
    </g>
  </g>
</svg>
