<svg xmlns="http://www.w3.org/2000/svg" xmlns:xlink="http://www.w3.org/1999/xlink" width="14.224" height="14.224" viewBox="0 0 14.224 14.224">
  <defs>
    <linearGradient id="linear-gradient" x1="0.5" x2="0.5" y2="1" gradientUnits="objectBoundingBox">
      <stop offset="0" stop-color="#89f995"/>
      <stop offset="1" stop-color="#32c8d9"/>
    </linearGradient>
  </defs>
  <g id="Group_19294" data-name="Group 19294" transform="translate(143 53)">
    <path id="Path_19034" data-name="Path 19034" d="M-128.776-46.2v.6a.219.219,0,0,0-.014.1,5.415,5.415,0,0,1-.053.589,6.787,6.787,0,0,1-.713,2.257,7.124,7.124,0,0,1-3.392,3.241,6.675,6.675,0,0,1-2.162.6c-.154.016-.308.029-.462.044h-.6l-.47-.044a6.88,6.88,0,0,1-2.258-.632,7.04,7.04,0,0,1-2.71-2.225,7.228,7.228,0,0,1-1.129-2.3,5.8,5.8,0,0,1-.215-1.121c-.013-.157-.03-.313-.045-.47v-.6a.183.183,0,0,0,.013-.085,6.263,6.263,0,0,1,.1-.932,6.979,6.979,0,0,1,1.078-2.637,7,7,0,0,1,3.164-2.615,7,7,0,0,1,1.943-.514c.143-.016.287-.029.43-.044h.711a1.57,1.57,0,0,0,.3.028,6.836,6.836,0,0,1,1.659.354,7.084,7.084,0,0,1,2.9,1.883,7.061,7.061,0,0,1,1.535,2.557,6.653,6.653,0,0,1,.333,1.5C-128.806-46.518-128.791-46.361-128.776-46.2Zm-.9.31a6.208,6.208,0,0,0-6.4-6.215,6.251,6.251,0,0,0-6.031,6.132,6.26,6.26,0,0,0,6.2,6.307A6.232,6.232,0,0,0-129.677-45.894Z" fill="url(#linear-gradient)"/>
    <path id="Path_19035" data-name="Path 19035" d="M279.135,90.435c0-.737.006-1.474,0-2.211a.44.44,0,0,1,.618-.426.336.336,0,0,1,.235.3c.025.383.022.767.023,1.151q.007,1.437.007,2.874c0,.065.017.084.083.084q1.259,0,2.519.007c.253,0,.505.007.758.013a.386.386,0,0,1,.391.279.451.451,0,0,1-.187.525.264.264,0,0,1-.128.033c-.373.024-.747.016-1.12.016-.887,0-1.774,0-2.661,0-.05,0-.1,0-.15-.008a.35.35,0,0,1-.362-.363c-.009-.194-.015-.389-.016-.584,0-.561,0-1.121,0-1.682Z" transform="translate(-415.46 -138.537)" fill="url(#linear-gradient)"/>
  </g>
</svg>
