<svg xmlns="http://www.w3.org/2000/svg" xmlns:xlink="http://www.w3.org/1999/xlink" width="31.65" height="31.696" viewBox="0 0 31.65 31.696">
  <defs>
    <linearGradient id="linear-gradient" x1="0.5" y1="-1.644" x2="0.5" y2="1" gradientUnits="objectBoundingBox">
      <stop offset="0" stop-color="#89f995"/>
      <stop offset="1" stop-color="#32c8d9"/>
    </linearGradient>
  </defs>
  <g id="Group_43012" data-name="Group 43012" transform="translate(0)">
    <path id="Path_25561" data-name="Path 25561" d="M6032.569,1108.683a12.836,12.836,0,0,1-4.555-1.051,29.548,29.548,0,0,1-11.642-8.722,27.946,27.946,0,0,1-4.188-6.7,15.171,15.171,0,0,1-1.238-4.117,6.252,6.252,0,0,1,.337-3.37,4.752,4.752,0,0,1,.967-1.42c.734-.745,1.466-1.491,2.209-2.225a3.04,3.04,0,0,1,4.413-.076c.5.471.981.967,1.466,1.458.7.713,1.415,1.413,2.117,2.125a3.1,3.1,0,0,1,1.012,2.55,3.139,3.139,0,0,1-.946,1.918c-.618.634-1.25,1.258-1.883,1.877a.231.231,0,0,0-.058.326,14,14,0,0,0,1.792,2.674,21.88,21.88,0,0,0,4.674,4.283c.38.253.787.452,1.186.668a.216.216,0,0,0,.308-.047q.908-.923,1.832-1.831a3.217,3.217,0,0,1,1.726-.944,2.932,2.932,0,0,1,2.68.917c.893.886,1.778,1.781,2.664,2.671.305.306.611.61.913.918a3.044,3.044,0,0,1,.1,4.368c-.217.243-.45.47-.683.7-.494.482-.983.965-1.445,1.478A4.879,4.879,0,0,1,6032.569,1108.683Zm-19.752-21.8a6.544,6.544,0,0,0,.081,1.163,13.379,13.379,0,0,0,1.195,3.658,28.431,28.431,0,0,0,13.206,13.492,13.728,13.728,0,0,0,4.823,1.531,3.18,3.18,0,0,0,2.981-1.134,12.849,12.849,0,0,1,1.013-1.042c.309-.3.623-.6.911-.921a1.1,1.1,0,0,0-.014-1.657c-.045-.05-.095-.1-.142-.146l-3.472-3.471a2.019,2.019,0,0,0-.242-.207.923.923,0,0,0-1.065-.05,2.377,2.377,0,0,0-.5.42c-.687.686-1.369,1.374-2.058,2.057a1.371,1.371,0,0,1-1.643.323c-.521-.257-1.043-.523-1.536-.83a22.238,22.238,0,0,1-5.114-4.468,15.537,15.537,0,0,1-2.588-3.905,1.484,1.484,0,0,1,.421-1.954c.718-.653,1.4-1.348,2.07-2.044a1.064,1.064,0,0,0-.008-1.691c-.021-.022-.041-.044-.064-.065q-1.463-1.476-2.929-2.952c-.235-.236-.472-.474-.727-.686a1,1,0,0,0-1.3-.06,2.3,2.3,0,0,0-.346.291c-.634.63-1.251,1.28-1.9,1.891A3.029,3.029,0,0,0,6012.817,1086.881Z" transform="translate(-6010.863 -1076.987)" fill="url(#linear-gradient)"/>
    <path id="Path_25562" data-name="Path 25562" d="M6402.657,1025.272a.953.953,0,0,1-.826.974.943.943,0,0,1-1.084-.746,13.528,13.528,0,0,0-.708-2.627,14.288,14.288,0,0,0-11.022-9.175.982.982,0,0,1-.854-1.054.957.957,0,0,1,.958-.881,5.333,5.333,0,0,1,.984.173,16.4,16.4,0,0,1,12.532,13.15C6402.649,1025.162,6402.654,1025.238,6402.657,1025.272Z" transform="translate(-6371.007 -1011.764)" fill="url(#linear-gradient)"/>
    <path id="Path_25563" data-name="Path 25563" d="M6392.138,1140.221a.979.979,0,0,1-.857,1.025.955.955,0,0,1-1.067-.8,8.024,8.024,0,0,0-3.78-5.524,7.647,7.647,0,0,0-2.721-1.03.969.969,0,1,1,.31-1.911,10,10,0,0,1,8.092,8.038C6392.129,1140.1,6392.134,1140.183,6392.138,1140.221Z" transform="translate(-6365.936 -1126.497)" fill="url(#linear-gradient)"/>
  </g>
</svg>
