<svg xmlns="http://www.w3.org/2000/svg" width="36.403" height="36.403" viewBox="0 0 36.403 36.403">
  <g id="Group_47216" data-name="Group 47216" transform="translate(-366.51 -565.324)">
    <rect id="Rectangle_15768" data-name="Rectangle 15768" width="36.403" height="36.403" rx="9" transform="translate(366.51 565.324)" fill="#ffab00"/>
    <g id="i360Ti" transform="translate(4883.335 -6163.473) rotate(-30)">
      <g id="Group_46767" data-name="Group 46767" transform="translate(-7280.842 3584.193)">
        <path id="Path_28024" data-name="Path 28024" d="M-7278.82,3586.989a1.875,1.875,0,0,1-.383-.707,1.658,1.658,0,0,1,.626-1.774,1.664,1.664,0,0,1,1.892-.042,4.612,4.612,0,0,1,1.024.962,9.877,9.877,0,0,1,.677.929c.055.086.079.082.135,0a8.016,8.016,0,0,1,1.29-1.574,2.092,2.092,0,0,1,1.044-.566,1.654,1.654,0,0,1,1.7.776,1.658,1.658,0,0,1-.1,1.866.237.237,0,0,0-.076.131h13.883a.273.273,0,0,1,.252.434c-.176.3-.347.613-.545.9a.4.4,0,0,0-.006.531c.2.282.359.593.541.889a.322.322,0,0,1,0,.37c-.209.343-.413.689-.623,1.032a.181.181,0,0,0,0,.221c.209.336.407.682.615,1.019a.344.344,0,0,1,0,.407c-.208.333-.4.674-.61,1.007a.2.2,0,0,0,0,.247c.208.334.4.674.611,1.008a.338.338,0,0,1,0,.395c-.211.342-.412.69-.623,1.031a.172.172,0,0,0,0,.209c.211.341.412.69.623,1.031a.342.342,0,0,1,0,.4c-.211.342-.413.689-.624,1.031a.175.175,0,0,0,0,.21c.21.337.41.681.617,1.02a.315.315,0,0,1,.035.346.318.318,0,0,1-.309.134h-23.353a.3.3,0,0,1-.3-.145.3.3,0,0,1,.035-.322c.2-.336.4-.674.608-1.008a.209.209,0,0,0,0-.258c-.2-.32-.388-.65-.591-.97a.391.391,0,0,1,0-.467c.21-.332.4-.674.61-1.007a.154.154,0,0,0,0-.187c-.212-.346-.415-.7-.629-1.043a.34.34,0,0,1,0-.4c.2-.329.4-.666.6-.995a.219.219,0,0,0,0-.271c-.207-.329-.4-.666-.6-1a.351.351,0,0,1,0-.407c.209-.337.407-.682.617-1.019a.182.182,0,0,0,0-.223c-.206-.334-.4-.675-.61-1.007a.363.363,0,0,1,0-.431c.206-.329.4-.665.6-1a.194.194,0,0,0,0-.235c-.2-.33-.4-.665-.6-1a.324.324,0,0,1-.046-.358.325.325,0,0,1,.321-.136C-7279.94,3586.991-7279.4,3586.989-7278.82,3586.989Zm3.9,1.108a.119.119,0,0,0-.019.022c-.018.051-.036.1-.052.155a9.757,9.757,0,0,1-.943,2.047.316.316,0,0,1-.213.177.263.263,0,0,1-.279-.107.286.286,0,0,1,.008-.333,8.882,8.882,0,0,0,1.031-2.393c.025-.09.022-.131-.089-.131q-2.239,0-4.479,0c-.123,0-.113.04-.061.123.146.237.279.482.434.715a.379.379,0,0,1-.007.455c-.208.332-.4.673-.609,1.008a.15.15,0,0,0,0,.184c.214.35.422.7.635,1.055a.325.325,0,0,1,0,.372c-.207.339-.4.683-.616,1.019a.207.207,0,0,0,0,.256c.2.33.4.667.6,1a.36.36,0,0,1,0,.42c-.207.333-.4.673-.608,1.007a.177.177,0,0,0,0,.22c.207.334.4.675.609,1.008a.369.369,0,0,1,0,.432c-.209.337-.407.681-.617,1.019a.162.162,0,0,0,0,.2c.2.334.4.677.608,1.008a.378.378,0,0,1,0,.455c-.153.238-.292.484-.44.726-.044.073-.039.108.056.1.026,0,.054,0,.082,0h22.293a.189.189,0,0,0-.05-.135c-.145-.243-.288-.487-.437-.727a.338.338,0,0,1,0-.395c.209-.338.407-.682.617-1.02a.182.182,0,0,0,0-.221c-.208-.337-.407-.682-.615-1.02a.35.35,0,0,1,0-.408c.208-.338.406-.682.615-1.019a.179.179,0,0,0,0-.22c-.211-.342-.413-.689-.623-1.032a.334.334,0,0,1,0-.383c.213-.346.418-.7.629-1.044a.152.152,0,0,0,0-.185c-.21-.343-.411-.69-.624-1.031a.357.357,0,0,1,0-.419c.211-.342.412-.689.622-1.031a.152.152,0,0,0,0-.185c-.216-.351-.424-.7-.637-1.056a.326.326,0,0,1,0-.371c.157-.252.306-.509.46-.761.044-.074.053-.118-.056-.109-.023,0-.046,0-.068,0h-13.271c-1.1,0-2.21,0-3.315,0-.116,0-.149.02-.116.145a8.892,8.892,0,0,0,.377,1.1,9.13,9.13,0,0,0,.661,1.291.274.274,0,0,1-.009.332.262.262,0,0,1-.295.091.318.318,0,0,1-.186-.17,9.741,9.741,0,0,1-.945-2.046A.507.507,0,0,0-7274.917,3588.1Zm1.585-1.108c.325,0,.648-.007.971,0a1.3,1.3,0,0,0,.558-.116,1.112,1.112,0,0,0,.657-1.252,1.11,1.11,0,0,0-1.1-.883,1.356,1.356,0,0,0-.9.411,8.09,8.09,0,0,0-1.4,1.745c-.06.095,0,.093.066.093Zm-3.177,0c.383,0,.765,0,1.15,0,.111,0,.113-.031.06-.115a10.819,10.819,0,0,0-.868-1.193,3.829,3.829,0,0,0-.81-.752,1.109,1.109,0,0,0-1.427.153,1.059,1.059,0,0,0-.214,1.2,1.128,1.128,0,0,0,1.043.7C-7277.222,3587.007-7276.865,3586.989-7276.509,3586.989Z" transform="translate(7280.841 -3584.193)" fill="#fff"/>
        <path id="Path_28025" data-name="Path 28025" d="M-6833.692,3773.9a4.67,4.67,0,0,1-4.649,4.649,4.669,4.669,0,0,1-4.68-4.662,4.666,4.666,0,0,1,4.69-4.662A4.667,4.667,0,0,1-6833.692,3773.9Zm-.549-.005a4.119,4.119,0,0,0-4.077-4.122,4.121,4.121,0,0,0-4.155,4.086,4.12,4.12,0,0,0,4.126,4.142A4.121,4.121,0,0,0-6834.241,3773.892Z" transform="translate(6855.015 -3764.154)" fill="#fff"/>
        <path id="Path_28026" data-name="Path 28026" d="M-7180.208,3929.394h3.587c.036,0,.072,0,.108,0a.271.271,0,0,1,.245.268.267.267,0,0,1-.237.272,1.147,1.147,0,0,1-.164,0h-7.116a1.168,1.168,0,0,1-.124,0,.269.269,0,0,1-.244-.268.272.272,0,0,1,.25-.275c.032,0,.063,0,.1,0Z" transform="translate(7186.803 -3919.936)" fill="#fff"/>
        <path id="Path_28027" data-name="Path 28027" d="M-7180.184,3842.086h3.474c.065,0,.13,0,.194,0a.275.275,0,0,1,.271.268.281.281,0,0,1-.255.276,1.145,1.145,0,0,1-.123,0h-7.144a.461.461,0,0,1-.2-.027.259.259,0,0,1-.163-.274.258.258,0,0,1,.224-.241,1.105,1.105,0,0,1,.176-.007Z" transform="translate(7186.78 -3835.021)" fill="#fff"/>
        <path id="Path_28028" data-name="Path 28028" d="M-7180.226,4017.2h-3.547a1.3,1.3,0,0,1-.163-.005.26.26,0,0,1-.233-.248.264.264,0,0,1,.207-.282.6.6,0,0,1,.136-.012h7.206a.307.307,0,0,1,.3.146.255.255,0,0,1-.008.273.281.281,0,0,1-.268.129c-.435,0-.868,0-1.3,0Z" transform="translate(7186.819 -4004.8)" fill="#fff"/>
        <path id="Path_28029" data-name="Path 28029" d="M-6725.993,3858.531a.27.27,0,0,1-.194-.428c.176-.314.358-.625.538-.937q.877-1.518,1.752-3.033c.027-.047.055-.1.084-.142a.277.277,0,0,1,.377-.108.268.268,0,0,1,.094.38c-.138.251-.284.5-.427.748q-.962,1.665-1.924,3.329A.316.316,0,0,1-6725.993,3858.531Z" transform="translate(6741.425 -3846.459)" fill="#fff"/>
        <path id="Path_28030" data-name="Path 28030" d="M-6753.012,3853.839a.981.981,0,0,1,.96,1.005.983.983,0,0,1-1,.952.978.978,0,0,1-.958-1.005A.979.979,0,0,1-6753.012,3853.839Zm-.009.55a.43.43,0,0,0-.441.424.436.436,0,0,0,.419.436.437.437,0,0,0,.442-.427A.432.432,0,0,0-6753.021,3854.388Z" transform="translate(6768.443 -3846.451)" fill="#fff"/>
        <path id="Path_28031" data-name="Path 28031" d="M-6663.026,3954.421a.983.983,0,0,1,.985-.981.983.983,0,0,1,.973.992.984.984,0,0,1-.984.968A.985.985,0,0,1-6663.026,3954.421Zm1.41,0a.437.437,0,0,0-.44-.43.437.437,0,0,0-.422.432.438.438,0,0,0,.44.431A.437.437,0,0,0-6661.616,3954.418Z" transform="translate(6679.951 -3943.324)" fill="#fff"/>
      </g>
    </g>
  </g>
</svg>
