<svg xmlns="http://www.w3.org/2000/svg" width="19.325" height="16.873" viewBox="0 0 19.325 16.873">
  <g id="Group_41618" data-name="Group 41618" transform="translate(0 0)">
    <path id="Path_24747" data-name="Path 24747" d="M-3259.345,1530.081c-1.841,0-3.682.007-5.522-.008-.257,0-.7.168-.716-.253s.438-.274.692-.275c3.6-.011,7.2,0,10.8-.008,1.885,0,2.781-.9,2.788-2.8,0-.561,0-1.121,0-1.681a2.437,2.437,0,0,0-2.715-2.725c-2.534-.019-5.069,0-7.6-.006-.214,0-.428,0-.64-.015-.128-.011-.278-.037-.294-.207-.02-.21.129-.283.3-.281,3.092.03,6.193-.176,9.275.1a2.682,2.682,0,0,1,2.219,2.762c.022.8.016,1.6,0,2.4a2.9,2.9,0,0,1-2.986,2.986C-3255.61,1530.1-3257.477,1530.081-3259.345,1530.081Z" transform="translate(3270.067 -1513.233)" fill="#32c8d9"/>
    <path id="Path_24748" data-name="Path 24748" d="M-3256.418,1537.977c-1.707,0-3.413,0-5.12,0-.243,0-.634.113-.638-.265s.383-.281.63-.282q5-.008,10,0c1.2,0,1.385-.2,1.4-1.4.035-2.574.01-2.412-2.4-2.4-2.053.011-4.107,0-6.16,0a2.021,2.021,0,0,1-.32,0c-.26-.042-.694.146-.686-.3.006-.379.408-.236.648-.246.479-.02.96-.005,1.439-.005,2.08,0,4.16,0,6.24,0,1.265,0,1.747.482,1.759,1.729.005.533.009,1.067,0,1.6a1.409,1.409,0,0,1-1.594,1.569C-3252.951,1537.988-3254.684,1537.976-3256.418,1537.977Z" transform="translate(3267.204 -1522.706)" fill="#32c8d9"/>
    <path id="Path_24749" data-name="Path 24749" d="M-3286.579,1512.734a3.529,3.529,0,0,1-1.116,2.56,6.225,6.225,0,0,0-2.1,3.838c-.015.172-.06.346-.236.364-.237.024-.3-.171-.317-.37a6.4,6.4,0,0,0-2.2-3.95,3.464,3.464,0,0,1-.511-4.271,3.518,3.518,0,0,1,3.943-1.553A3.456,3.456,0,0,1-3286.579,1512.734Zm-3.49,5.075a11.793,11.793,0,0,1,2.3-3.285,2.87,2.87,0,0,0-.306-3.976,2.933,2.933,0,0,0-3.939-.05,2.9,2.9,0,0,0-.417,3.974A11.7,11.7,0,0,1-3290.069,1517.808Z" transform="translate(3293.574 -1502.688)" fill="#32c8d9"/>
    <path id="Path_24750" data-name="Path 24750" d="M-3278.43,1487.675c-1.788,0-3.575-.006-5.363,0a2.07,2.07,0,0,0-2.281,2.047c-.025.22.07.572-.277.555-.4-.019-.267-.4-.261-.636a2.576,2.576,0,0,1,2.6-2.512c3.735-.028,7.471-.011,11.206-.007.22,0,.556-.082.542.282-.014.346-.345.264-.565.264C-3274.7,1487.677-3276.562,1487.675-3278.43,1487.675Z" transform="translate(3287.748 -1484.12)" fill="#32c8d9"/>
    <path id="Path_24751" data-name="Path 24751" d="M-3268.61,1497.931c-1.918,0-3.837,0-5.756,0-.472,0-.925-.006-1.067.585a.24.24,0,0,1-.292.2c-.211-.041-.212-.22-.187-.375.112-.723.617-.947,1.265-.951,1.439-.01,2.878-.01,4.316-.01q3.677,0,7.354.006a3.253,3.253,0,0,1,.634.049.331.331,0,0,1,.19.215c.04.159-.075.246-.222.26-.185.018-.372.02-.559.02Z" transform="translate(3278.75 -1492.74)" fill="#32c8d9"/>
    <path id="Path_24752" data-name="Path 24752" d="M-3195.538,1470.179a1.786,1.786,0,0,1,1.246-1.678,1.8,1.8,0,0,1,2,.616,1.718,1.718,0,0,1,.05,2.085,4.76,4.76,0,0,0-1.27,2.168.3.3,0,0,1-.211.19.281.281,0,0,1-.221-.17,4.652,4.652,0,0,0-1.314-2.233A1.451,1.451,0,0,1-3195.538,1470.179Zm1.806,1.958c.32-.375.62-.713.906-1.062a1.245,1.245,0,0,0-.064-1.791,1.215,1.215,0,0,0-1.668-.017,1.24,1.24,0,0,0-.1,1.787C-3194.377,1471.406-3194.074,1471.741-3193.732,1472.138Z" transform="translate(3211.241 -1468.411)" fill="#32c8d9"/>
    <path id="Path_24753" data-name="Path 24753" d="M-3278.5,1522.936a1.253,1.253,0,0,1,1.282,1.4,1.285,1.285,0,0,1-1.38,1.235,1.273,1.273,0,0,1-1.233-1.376A1.222,1.222,0,0,1-3278.5,1522.936Zm.779,1.281c-.073-.462-.329-.769-.775-.771a.755.755,0,0,0-.823.78.759.759,0,0,0,.806.8C-3278,1525.027-3277.789,1524.666-3277.716,1524.217Z" transform="translate(3282.028 -1514.202)" fill="#32c8d9"/>
  </g>
</svg>
