<svg xmlns="http://www.w3.org/2000/svg" xmlns:xlink="http://www.w3.org/1999/xlink" width="34.992" height="34.992" viewBox="0 0 34.992 34.992">
  <defs>
    <linearGradient id="linear-gradient" x1="0.5" x2="0.5" y2="1" gradientUnits="objectBoundingBox">
      <stop offset="0" stop-color="#89f995"/>
      <stop offset="1" stop-color="#32c8d9"/>
    </linearGradient>
    <linearGradient id="linear-gradient-2" y1="-0.811" xlink:href="#linear-gradient"/>
  </defs>
  <g id="Group_47216" data-name="Group 47216" transform="translate(-377.008 -370.734)">
    <circle id="Ellipse_3815" data-name="Ellipse 3815" cx="17.496" cy="17.496" r="17.496" transform="translate(377.008 370.734)" opacity="0.104" fill="url(#linear-gradient)"/>
    <g id="Group_43012" data-name="Group 43012" transform="translate(384.812 380.099)">
      <path id="Path_25561" data-name="Path 25561" d="M6023.039,1096.13a7.2,7.2,0,0,1-2.555-.589,16.578,16.578,0,0,1-6.531-4.892,15.685,15.685,0,0,1-2.349-3.758,8.515,8.515,0,0,1-.694-2.309,3.5,3.5,0,0,1,.189-1.89,2.663,2.663,0,0,1,.542-.8c.412-.418.822-.836,1.239-1.248a1.705,1.705,0,0,1,2.475-.043c.283.264.551.542.822.818.393.4.793.793,1.188,1.192a1.739,1.739,0,0,1,.567,1.43,1.757,1.757,0,0,1-.531,1.076c-.347.356-.7.706-1.056,1.053a.13.13,0,0,0-.032.183,7.816,7.816,0,0,0,1,1.5,12.265,12.265,0,0,0,2.622,2.4c.213.142.441.254.665.375a.121.121,0,0,0,.172-.027q.51-.517,1.028-1.027a1.8,1.8,0,0,1,.968-.529,1.645,1.645,0,0,1,1.5.515c.5.5,1,1,1.494,1.5.171.172.343.342.512.515a1.707,1.707,0,0,1,.059,2.45c-.122.136-.252.264-.383.392-.276.271-.551.541-.811.829A2.736,2.736,0,0,1,6023.039,1096.13Zm-11.08-12.229a3.679,3.679,0,0,0,.045.652,7.492,7.492,0,0,0,.67,2.052,15.945,15.945,0,0,0,7.407,7.568,7.7,7.7,0,0,0,2.7.859,1.783,1.783,0,0,0,1.672-.636,7.256,7.256,0,0,1,.568-.585c.173-.169.349-.337.511-.516a.615.615,0,0,0-.008-.929c-.026-.028-.053-.055-.08-.082l-1.947-1.947a1.1,1.1,0,0,0-.135-.116.518.518,0,0,0-.6-.028,1.347,1.347,0,0,0-.283.236c-.385.385-.768.771-1.154,1.154a.769.769,0,0,1-.921.181c-.292-.144-.585-.294-.862-.465a12.493,12.493,0,0,1-2.869-2.506,8.724,8.724,0,0,1-1.451-2.19.834.834,0,0,1,.236-1.1c.4-.366.783-.756,1.161-1.146a.6.6,0,0,0,0-.948l-.036-.037q-.821-.828-1.643-1.656c-.132-.132-.265-.266-.408-.385a.558.558,0,0,0-.728-.034,1.312,1.312,0,0,0-.194.163c-.356.353-.7.718-1.067,1.061A1.7,1.7,0,0,0,6011.959,1083.9Z" transform="translate(-6010.864 -1078.351)" fill="url(#linear-gradient-2)"/>
      <path id="Path_25562" data-name="Path 25562" d="M6396.291,1019.341a.536.536,0,0,1-.464.546.528.528,0,0,1-.608-.418,7.688,7.688,0,0,0-.4-1.473,8.015,8.015,0,0,0-6.183-5.146.551.551,0,0,1-.479-.591.538.538,0,0,1,.538-.494,2.986,2.986,0,0,1,.552.1,9.2,9.2,0,0,1,7.03,7.376C6396.286,1019.279,6396.289,1019.322,6396.291,1019.341Z" transform="translate(-6378.536 -1011.764)" fill="url(#linear-gradient-2)"/>
      <path id="Path_25563" data-name="Path 25563" d="M6388.058,1136.594a.549.549,0,0,1-.481.575.536.536,0,0,1-.6-.449,4.5,4.5,0,0,0-2.12-3.1,4.288,4.288,0,0,0-1.527-.578.544.544,0,1,1,.174-1.072,5.608,5.608,0,0,1,4.539,4.509C6388.053,1136.526,6388.056,1136.573,6388.058,1136.594Z" transform="translate(-6373.361 -1128.896)" fill="url(#linear-gradient-2)"/>
    </g>
  </g>
</svg>
