<svg xmlns="http://www.w3.org/2000/svg" xmlns:xlink="http://www.w3.org/1999/xlink" width="34.992" height="34.992" viewBox="0 0 34.992 34.992">
  <defs>
    <linearGradient id="linear-gradient" x1="0.5" x2="0.5" y2="1" gradientUnits="objectBoundingBox">
      <stop offset="0" stop-color="#89f995"/>
      <stop offset="1" stop-color="#32c8d9"/>
    </linearGradient>
    <linearGradient id="linear-gradient-2" y1="-0.811" xlink:href="#linear-gradient"/>
  </defs>
  <g id="Group_47218" data-name="Group 47218" transform="translate(-378.199 -545.734)">
    <circle id="Ellipse_3815" data-name="Ellipse 3815" cx="17.496" cy="17.496" r="17.496" transform="translate(378.199 545.734)" opacity="0.104" fill="url(#linear-gradient)"/>
    <path id="Path_32563" data-name="Path 32563" d="M4389.337,1198.011q-3.881,0-7.762,0a2.053,2.053,0,0,1-2.05-1.615,2.109,2.109,0,0,1-.045-.464q0-4.643,0-9.287a2.047,2.047,0,0,1,2.055-2.078c.293,0,.586,0,.879,0H4397.1a2.06,2.06,0,0,1,2.043,1.5,2.094,2.094,0,0,1,.073.57q0,4.63,0,9.26a2.047,2.047,0,0,1-2.116,2.113Zm-.059-12.708h-7.513a1.769,1.769,0,0,0-1.068.334c-.141.1-.14.1-.012.22l7.633,6.977a1.426,1.426,0,0,0,1.977,0c.256-.235.511-.472.767-.708l6.789-6.272c.126-.116.126-.117-.017-.221a1.8,1.8,0,0,0-1.083-.332Zm-.013,12.075h7.473a1.787,1.787,0,0,0,1.283-.464c.129-.122.128-.123-.017-.231q-2.966-2.224-5.93-4.452c-.113-.085-.165-.076-.262.016q-.56.537-1.138,1.056a2.033,2.033,0,0,1-2.75-.012c-.375-.343-.752-.684-1.122-1.033a.145.145,0,0,0-.232-.01q-2.558,2.013-5.121,4.019c-.263.206-.522.417-.79.617-.093.07-.085.111.005.164.04.023.076.052.114.076a1.879,1.879,0,0,0,1.025.254Zm-9.153-6.013q0,2.218,0,4.435a1.726,1.726,0,0,0,.079.582c.054.151.054.151.174.055q2.887-2.3,5.776-4.6c.081-.064.09-.094.008-.169-.6-.553-1.2-1.111-1.8-1.668l-3.99-3.694c-.108-.1-.111-.1-.162.044a1.755,1.755,0,0,0-.081.6Q4380.113,1189.156,4380.112,1191.366Zm18.3,4.928a1.827,1.827,0,0,0,.072-.669q0-4.181,0-8.363c0-.146,0-.293-.01-.439a1.774,1.774,0,0,0-.1-.481c-.042-.123-.081-.119-.17-.036q-2.852,2.659-5.711,5.31c-.1.09-.083.123.014.2q2.18,1.646,4.354,3.3Z" transform="translate(-3993.59 -627.241)" fill="url(#linear-gradient-2)"/>
  </g>
</svg>
