<svg xmlns="http://www.w3.org/2000/svg" xmlns:xlink="http://www.w3.org/1999/xlink" width="34.992" height="34.992" viewBox="0 0 34.992 34.992">
  <defs>
    <linearGradient id="linear-gradient" x1="0.5" x2="0.5" y2="1" gradientUnits="objectBoundingBox">
      <stop offset="0" stop-color="#89f995"/>
      <stop offset="1" stop-color="#32c8d9"/>
    </linearGradient>
    <linearGradient id="linear-gradient-2" y1="-0.811" xlink:href="#linear-gradient"/>
  </defs>
  <g id="Group_47219" data-name="Group 47219" transform="translate(-378.199 -632.734)">
    <circle id="Ellipse_3815" data-name="Ellipse 3815" cx="17.496" cy="17.496" r="17.496" transform="translate(378.199 632.734)" opacity="0.104" fill="url(#linear-gradient)"/>
    <g id="WXx7nG" transform="translate(-1554.928 617.19)">
      <g id="Group_46829" data-name="Group 46829" transform="translate(1943.066 23.049)">
        <path id="Path_28042" data-name="Path 28042" d="M1950.49,41.013q-2.726,0-5.451,0a1.952,1.952,0,0,1-1.908-1.462,1.931,1.931,0,0,1-.064-.5q0-3.692,0-7.383a1.951,1.951,0,0,1,1.661-1.961,3.16,3.16,0,0,1,.537-.025c.149,0,.3,0,.446,0,.076,0,.093-.025.092-.1q0-.915,0-1.83a4.695,4.695,0,0,1,4-4.659,4.685,4.685,0,0,1,5.181,3.252,4.838,4.838,0,0,1,.208,1.446c0,.594,0,1.189,0,1.783,0,.08.018.105.1.1.294,0,.588-.014.882.01a1.948,1.948,0,0,1,1.74,1.749c.033.439.012.879.013,1.318,0,2.068,0,4.136,0,6.2a1.989,1.989,0,0,1-.513,1.4,1.884,1.884,0,0,1-1.432.639c-1.829,0-3.659,0-5.489,0Zm.012-.781h5.461a1.132,1.132,0,0,0,.7-.23,1.217,1.217,0,0,0,.478-1.045q-.007-3.631,0-7.263a1.557,1.557,0,0,0-.262-.876,1.171,1.171,0,0,0-1.044-.575q-5.373.011-10.746,0a1.03,1.03,0,0,0-.753.3,1.531,1.531,0,0,0-.484,1.12c0,.758,0,1.517,0,2.275q0,2.554,0,5.108a1.169,1.169,0,0,0,1.18,1.18Q1947.767,40.235,1950.5,40.231Zm-.005-10.548h3.788a.17.17,0,0,1,.028,0c.076.013.092-.024.092-.094,0-.628,0-1.257,0-1.885A3.815,3.815,0,0,0,1953.28,25a3.879,3.879,0,0,0-4.528-.752,3.8,3.8,0,0,0-2.16,3.489c-.015.609,0,1.219,0,1.829,0,.12,0,.121.119.121Z" transform="translate(-1943.066 -23.049)" fill="url(#linear-gradient-2)"/>
        <path id="Path_28043" data-name="Path 28043" d="M2280.083,572.106c0-.17,0-.341,0-.511a.174.174,0,0,0-.054-.13,1.173,1.173,0,0,1,.684-1.981,1.17,1.17,0,0,1,1,1.964.234.234,0,0,0-.072.18c0,.325.006.65,0,.975a.78.78,0,0,1-1.561.015c-.006-.17,0-.34,0-.511Z" transform="translate(-2273.436 -559.32)" fill="url(#linear-gradient-2)"/>
      </g>
    </g>
  </g>
</svg>
