<svg xmlns="http://www.w3.org/2000/svg" width="12.542" height="27.138" viewBox="0 0 12.542 27.138">
  <path id="Path_32296" data-name="Path 32296" d="M27.82,55.973V51.291h2.754l.016-.126c0-.661-.008-1.29,0-1.944.008-.6.008-1.188.047-1.794A6.493,6.493,0,0,1,31.259,45a4.318,4.318,0,0,1,2.6-2.2,6.866,6.866,0,0,1,1.692-.338c.425-.032.85-.063,1.29-.063H40.2c.134,0,.134,0,.134.134v4.438c0,.126,0,.126-.134.126-.81,0-1.637,0-2.463.008a2.95,2.95,0,0,0-.7.1,1.024,1.024,0,0,0-.826.976c-.039.393-.039.795-.047,1.2-.008.606-.008,1.2-.016,1.8l.016.11h4.194q-.248,2.349-.488,4.682h-3.6c-.126,0-.126,0-.126.118V69.53H30.59V56.154c0-.212.016-.173-.173-.173-.834-.008-1.645-.008-2.471-.008Z" transform="translate(-27.82 -42.392)" fill="#9c98b1" fill-rule="evenodd"/>
</svg>
