<svg xmlns="http://www.w3.org/2000/svg" xmlns:xlink="http://www.w3.org/1999/xlink" width="32.479" height="32.452" viewBox="0 0 32.479 32.452">
  <defs>
    <linearGradient id="linear-gradient" x1="0.5" y1="-1.644" x2="0.5" y2="1" gradientUnits="objectBoundingBox">
      <stop offset="0" stop-color="#89f995"/>
      <stop offset="1" stop-color="#32c8d9"/>
    </linearGradient>
  </defs>
  <g id="Group_43023" data-name="Group 43023" transform="translate(372.404 -157.748)">
    <path id="Path_9723" data-name="Path 9723" d="M-204.506,157.748a10.918,10.918,0,0,1,5.761,3.4,9.026,9.026,0,0,1-.571,12.2c-.925.913-.659,1.906-.754,2.918-.065.685.358,1.631-.373,1.988-.882.431-1.318-.584-1.764-1.1a3,3,0,0,0-2.972-1.046c-4.078.456-7.684-.531-10.019-4.208a9.122,9.122,0,0,1,5.2-13.751c.4-.121.783-.269,1.174-.4Zm3,18.56c.362-2.517.362-2.517,1.812-4.334a7.928,7.928,0,0,0,.784-8.8c-1.978-3.689-6.346-5.083-11.069-3.672a7.8,7.8,0,0,0-5.124,9.6c1.174,4.082,4.946,6.369,9.744,5.764C-203.888,174.677-202.52,174.387-201.511,176.308Z" transform="translate(-143.278 0)" fill="url(#linear-gradient)"/>
    <path id="Path_9724" data-name="Path 9724" d="M-372.4,298.807c1.011-2.6,2.935-3.627,5.669-3.446,1.558.1,3.127.01,4.692.028.452.005,1.04-.026,1.03.636s-.6.613-1.05.617c-1.776.017-3.552-.005-5.327.014-2.5.027-3.736,1.261-3.743,3.737q-.012,4.376,0,8.752a3.291,3.291,0,0,0,3.6,3.622c.3,0,.592,0,.888,0,1.76-.028,3.61-.328,4.755,1.81-.135-1.83.882-1.875,2.092-1.826,1.688.067,3.382.025,5.073.015a3.292,3.292,0,0,0,3.637-3.586c.011-1.184,0-2.368,0-3.551,0-.441.042-.931.591-.953.648-.026.673.513.674.993,0,1.353.04,2.708-.016,4.058a4.4,4.4,0,0,1-4.318,4.291c-1.774.06-3.552.049-5.326,0-.741-.019-1.138.138-1,.965a5.742,5.742,0,0,1,.007.76c.01.392,0,.807-.4.988a.794.794,0,0,1-.977-.4c-1.45-2.155-3.52-2.519-5.938-2.327-2.331.185-3.662-1.342-4.611-3.264Z" transform="translate(0 -126.592)" fill="url(#linear-gradient)"/>
    <path id="Path_9725" data-name="Path 9725" d="M-320.99,405.031c-2.023,0-4.046.012-6.068-.008-.477,0-1.14.086-1.09-.685.042-.653.646-.566,1.085-.567q6.131-.018,12.263,0c.485,0,1.145-.064,1.1.686-.04.628-.643.566-1.092.569C-316.86,405.038-318.925,405.031-320.99,405.031Z" transform="translate(-40.715 -226.345)" fill="url(#linear-gradient)"/>
    <path id="Path_9726" data-name="Path 9726" d="M-322.25,449.46c-1.6,0-3.209.012-4.813-.008-.44-.005-1.045.084-1.079-.576-.039-.772.627-.674,1.1-.676q4.877-.024,9.753,0c.441,0,1.047-.078,1.08.576.039.768-.627.67-1.1.676C-318.956,449.474-320.6,449.46-322.25,449.46Z" transform="translate(-40.722 -267.221)" fill="url(#linear-gradient)"/>
    <path id="Path_9727" data-name="Path 9727" d="M-322.983,359.278c1.347,0,2.695-.011,4.042.006.489.006,1.146-.064,1.139.654-.006.619-.606.6-1.064.6q-4.1.013-8.209,0c-.438,0-1.042.075-1.061-.589-.022-.766.639-.654,1.113-.663C-325.678,359.262-324.331,359.278-322.983,359.278Z" transform="translate(-40.727 -185.413)" fill="url(#linear-gradient)"/>
    <path id="Path_9728" data-name="Path 9728" d="M-120.433,219.83a1.464,1.464,0,0,1,1.074-1.672,1.3,1.3,0,0,0,.892-1.609,1.26,1.26,0,0,0-1.264-1.052,1.321,1.321,0,0,0-1.452,1.134c-.1.42-.261.886-.824.732-.655-.179-.468-.756-.352-1.167A2.464,2.464,0,0,1-120,214.245a2.571,2.571,0,0,1,2.673,1.7,2.563,2.563,0,0,1-.936,3.033c-.573.364-1.022.661-.914,1.442.064.46,0,1.03-.624,1.047-.668.018-.61-.563-.628-1.025C-120.438,220.276-120.433,220.107-120.433,219.83Z" transform="translate(-229.947 -51.974)" fill="url(#linear-gradient)"/>
  </g>
</svg>
