<svg xmlns="http://www.w3.org/2000/svg" xmlns:xlink="http://www.w3.org/1999/xlink" width="32.994" height="35.117" viewBox="0 0 32.994 35.117">
  <defs>
    <linearGradient id="linear-gradient" x1="0.5" y1="-1.644" x2="0.5" y2="1" gradientUnits="objectBoundingBox">
      <stop offset="0" stop-color="#89f995"/>
      <stop offset="1" stop-color="#32c8d9"/>
    </linearGradient>
  </defs>
  <g id="Group_42295" data-name="Group 42295" transform="translate(-124 -867.475)">
    <g id="rCxKyN" transform="translate(124 867.475)">
      <g id="Group_42293" data-name="Group 42293" transform="translate(0 0)">
        <path id="Path_25243" data-name="Path 25243" d="M-3987.307,293.548c.071-.534-.22-.723-.352-.994a4.184,4.184,0,0,1,.612-4.721,3.066,3.066,0,0,1,4.113-.283,12.974,12.974,0,0,1,3.186,3.97c.439.757.659.757,1.09,0a14.737,14.737,0,0,1,2.582-3.454c1.514-1.439,3.344-1.558,4.639-.315,1.329,1.275,1.493,3.215.444,5.212-.067.127-.107.273-.227.583,2.413,0,4.705,0,7,0,1.5,0,1.5.006,1.5,1.758,0,1.106-.027,2.214.012,3.318.029.8-.148,1.3-.95,1.164-.846-.14-.913.415-.911,1.173.017,6.473-.015,12.947.032,19.42.009,1.2-.234,1.635-1.371,1.628q-13.3-.077-26.609,0c-1.039,0-1.359-.33-1.351-1.523.047-6.473.012-12.947.035-19.42,0-.879-.11-1.439-1.044-1.28-.6.1-.829-.259-.817-.935.025-1.392.044-2.787,0-4.178-.03-.861.243-1.145,1-1.132C-3992.251,293.573-3989.8,293.548-3987.307,293.548Zm5.343,16.981c0-3.2-.019-6.395.013-9.592.009-.808-.139-1.173-.941-1.161-3.1.044-6.2.034-9.307,0-.67-.007-.861.26-.859,1q.029,9.653,0,19.307c0,.837.265,1.031.944,1.024,3.066-.031,6.133-.037,9.2.006.757.011.981-.26.97-1.114C-3981.986,316.842-3981.961,313.685-3981.964,310.529Zm5.52-.075c0,3.2.021,6.395-.015,9.592-.009.793.179,1.075.9,1.066q4.653-.058,9.307,0c.732.009.9-.3.9-1.074q-.034-9.592,0-19.184c0-.916-.308-1.082-1.014-1.075-3.03.033-6.06.049-9.09,0-.845-.015-1.022.328-1.011,1.212C-3976.417,304.14-3976.442,307.3-3976.444,310.453Zm-.806.128v-7.733c0-3.084,0-3.024-2.7-3.089-1.047-.025-1.233.408-1.225,1.474.04,5.523.019,11.046.02,16.57,0,3.344,0,3.3,2.916,3.313.847,0,1.015-.329,1-1.207C-3977.277,316.8-3977.252,313.69-3977.25,310.581Zm-11.151-16.15h-3.677c-2.925,0-2.9,0-2.868,3.389.008.884.268,1.1,1,1.094,3.027-.038,6.056-.016,9.083-.015,3,0,2.972,0,2.92-3.444-.013-.83-.26-1.053-.944-1.038C-3984.724,294.455-3986.563,294.43-3988.4,294.431Zm18.457,4.468h3.569c2.948,0,2.916,0,2.917-3.327,0-.946-.276-1.172-1.064-1.16-2.99.046-5.982.017-8.974.017-3.024,0-3,0-2.971,3.4.007.894.295,1.1,1.009,1.085C-3973.621,298.869-3971.782,298.9-3969.944,298.9Zm-12.714-5.367v.006h2.38c.455,0,.616-.214.35-.679a15.808,15.808,0,0,0-3.259-4.4,2.287,2.287,0,0,0-3.03-.2,3.043,3.043,0,0,0-1.031,3.013,2.708,2.708,0,0,0,2.426,2.246C-3984.1,293.578-3983.38,293.532-3982.658,293.532Zm6.843.009c.685,0,1.372.027,2.056-.006a2.706,2.706,0,0,0,2.586-2.18,3.087,3.087,0,0,0-.956-3.05,2.332,2.332,0,0,0-3.208.255,16.5,16.5,0,0,0-3.105,4.229c-.294.508-.183.752.353.751Q-3976.952,293.537-3975.815,293.54Zm-1.435,3.2c0-2.31,0-2.31-1.944-2.31-1.961,0-1.961,0-1.961,2.169,0,2.3,0,2.3,2.052,2.3C-3977.25,298.9-3977.25,298.9-3977.25,296.741Z" transform="translate(3995.699 -286.89)" fill="url(#linear-gradient)"/>
      </g>
    </g>
  </g>
</svg>
