<svg xmlns="http://www.w3.org/2000/svg" xmlns:xlink="http://www.w3.org/1999/xlink" width="53" height="53" viewBox="0 0 53 53">
  <defs>
    <linearGradient id="linear-gradient" x1="0.5" x2="0.5" y2="1" gradientUnits="objectBoundingBox">
      <stop offset="0" stop-color="#89f995"/>
      <stop offset="1" stop-color="#32c8d9"/>
    </linearGradient>
    <linearGradient id="linear-gradient-2" y1="-0.776" xlink:href="#linear-gradient"/>
  </defs>
  <g id="Group_47221" data-name="Group 47221" transform="translate(-4585 885)">
    <circle id="Ellipse_4174" data-name="Ellipse 4174" cx="26.5" cy="26.5" r="26.5" transform="translate(4585 -885)" opacity="0.079" fill="url(#linear-gradient)"/>
    <g id="Xao1Mz" transform="translate(11498.279 -1289.53)">
      <g id="Group_46586" data-name="Group 46586" transform="translate(-6900.903 413.749)">
        <g id="Group_47220" data-name="Group 47220">
          <path id="Path_27933" data-name="Path 27933" d="M-6824.648,659a17.485,17.485,0,0,0-2.365,6.989c.17.005.214-.091.279-.149a4.893,4.893,0,0,1,2.065-1.156,1.307,1.307,0,0,1,1.712,1.152,4.344,4.344,0,0,1-.4,2.4,2.506,2.506,0,0,1-.885.9,13.422,13.422,0,0,1-3.752,2.034,14.676,14.676,0,0,1-8.113.48,5.8,5.8,0,0,1-2.282-.957,3.486,3.486,0,0,1-1.287-4.216c.238-.8.564-1.564.724-2.384a3.549,3.549,0,0,0-.538-2.8,1.624,1.624,0,0,0-2.345-.472,3.733,3.733,0,0,0-1.418,1.581,2.537,2.537,0,0,1,1.021-2.386,3.432,3.432,0,0,1,2.913-.43,1.932,1.932,0,0,1,1.484,1.739,8.758,8.758,0,0,1-.232,3.219,23.141,23.141,0,0,0-.529,2.673,1.484,1.484,0,0,1-.019.155,2.737,2.737,0,0,0,.946,2.407.977.977,0,0,0,.484.294,23.84,23.84,0,0,0,2.871.8,14.063,14.063,0,0,0,4.218-.063,17.25,17.25,0,0,0,3.444-.867.908.908,0,0,0,.352-.171,2.688,2.688,0,0,1-.618-.285,2.627,2.627,0,0,1-.888-1.223,6.013,6.013,0,0,1-.32-3.009,10.1,10.1,0,0,1,3.123-6.009,2.985,2.985,0,0,1,.283-.227A.267.267,0,0,1-6824.648,659Zm.824,7.96c.012-.619-.186-.869-.691-.983a1.272,1.272,0,0,0-.515-.01,2.376,2.376,0,0,0-1.715,1.64.786.786,0,0,0,.1.719,1.517,1.517,0,0,0,1.984.218A2.17,2.17,0,0,0-6823.824,666.964Z" transform="translate(6846.277 -646.253)" fill="url(#linear-gradient-2)"/>
          <path id="Path_27934" data-name="Path 27934" d="M-6677.2,762.6a5.587,5.587,0,0,1,1.365,1.406,5.89,5.89,0,0,1-.1,6.651,6.624,6.624,0,0,1-1.908,2,11.677,11.677,0,0,1-2.2,1.042c-.915.373-1.852.681-2.8.968a7.9,7.9,0,0,1-1.894.3,29.851,29.851,0,0,1-3.869,0q-1.737-.132-3.453-.424a1.8,1.8,0,0,1-.193-.061c.316,0,.583,0,.851,0a31.2,31.2,0,0,0,8.5-1.076,13.816,13.816,0,0,0,4.992-2.537,4.416,4.416,0,0,0,1.644-2.972,13.739,13.739,0,0,0,.082-3.109,3.423,3.423,0,0,0-.952-2.034C-6677.164,762.714-6677.223,762.69-6677.2,762.6Z" transform="translate(6703.096 -744.461)" fill="url(#linear-gradient-2)"/>
          <path id="Path_27935" data-name="Path 27935" d="M-6770.39,595.113c-1.123.3-2.27.561-3.429.756a25.147,25.147,0,0,1-7.5.054,10,10,0,0,1-1.72-.391,2.563,2.563,0,0,1-1.332-.858.785.785,0,0,1,.172-1.235,3.888,3.888,0,0,1,1.651-.648,24.739,24.739,0,0,1,3.82-.511c-.56.106-1.121.2-1.679.32a9.96,9.96,0,0,0-1.842.533,2.338,2.338,0,0,0-.687.412.454.454,0,0,0-.092.648,1.706,1.706,0,0,0,.747.66,7.758,7.758,0,0,0,2.589.612,38.21,38.21,0,0,0,6.279-.093C-6772.4,595.3-6771.4,595.2-6770.39,595.113Z" transform="translate(6790.645 -582.997)" fill="url(#linear-gradient-2)"/>
          <path id="Path_27936" data-name="Path 27936" d="M-6656.712,708.511a19.173,19.173,0,0,1-.143,3.251,2.3,2.3,0,0,1-.186.674c-.1.205-.2.215-.341.026a2.063,2.063,0,0,1-.309-.793,12.042,12.042,0,0,1-.243-1.878,17.967,17.967,0,0,1-.057-2.8,8.438,8.438,0,0,1,.419-2.108c.057-.158.113-.382.305-.379.169,0,.217.225.283.37a4.356,4.356,0,0,1,.284,1.834C-6656.7,707.319-6656.774,707.933-6656.712,708.511Z" transform="translate(6670.656 -689.385)" fill="url(#linear-gradient-2)"/>
          <path id="Path_27937" data-name="Path 27937" d="M-6615.841,413.749a3.872,3.872,0,0,0-.845.9,2.523,2.523,0,0,0-.37,1.012,5.98,5.98,0,0,0-.031,1.011,1.253,1.253,0,0,0,.509,1.032,1.921,1.921,0,0,1,.737,1.43,2.828,2.828,0,0,1-.282,1.813c-.034.058-.043.133-.116.169-.092-.313-.189-.623-.273-.936a1.68,1.68,0,0,0-.794-1.049,2.066,2.066,0,0,1-1.028-1.862,3.782,3.782,0,0,1,.462-2.277A2.817,2.817,0,0,1-6615.841,413.749Z" transform="translate(6633.031 -413.749)" fill="url(#linear-gradient-2)"/>
          <path id="Path_27938" data-name="Path 27938" d="M-6895.291,767.335c-.574.315-1.138.633-1.673,1a6.694,6.694,0,0,0-2.735,3.551,4.825,4.825,0,0,0-.071,2.441,2.866,2.866,0,0,0,1.17,1.781,2.37,2.37,0,0,1-.9-.539,4,4,0,0,1-1.4-2.881,3.593,3.593,0,0,1,.591-2.066,6.213,6.213,0,0,1,2.74-2.536,6.509,6.509,0,0,1,1.116-.488C-6896.067,767.5-6895.678,767.422-6895.291,767.335Z" transform="translate(6900.903 -748.952)" fill="url(#linear-gradient-2)"/>
          <path id="Path_27939" data-name="Path 27939" d="M-6663.067,475.792c-.044-.17-.073-.3-.114-.434a1.748,1.748,0,0,0-.712-.961,5.772,5.772,0,0,0-.73-.445,1.858,1.858,0,0,1-1.086-1.592,3.062,3.062,0,0,1,1.822-3.121.177.177,0,0,1,.143,0c-.128.146-.247.3-.385.437a1.8,1.8,0,0,0-.527,1.39,5.84,5.84,0,0,0,.107,1.005.819.819,0,0,0,.568.681,1.322,1.322,0,0,1,.9.962,3.192,3.192,0,0,1,.229,1.6A.98.98,0,0,1-6663.067,475.792Z" transform="translate(6677.957 -466.338)" fill="url(#linear-gradient-2)"/>
          <path id="Path_27940" data-name="Path 27940" d="M-6557.187,591.88a9.2,9.2,0,0,1,3.616.465,1.335,1.335,0,0,1,.9,1.165.691.691,0,0,1-.362.738,2.962,2.962,0,0,1-1.059.323c.176-.161.321-.279.449-.414.431-.454.4-.778-.112-1.126a6.234,6.234,0,0,0-2.463-.917A3.157,3.157,0,0,1-6557.187,591.88Z" transform="translate(6575.057 -582.619)" fill="url(#linear-gradient-2)"/>
        </g>
      </g>
    </g>
  </g>
</svg>
