<svg xmlns="http://www.w3.org/2000/svg" xmlns:xlink="http://www.w3.org/1999/xlink" width="53" height="53" viewBox="0 0 53 53">
  <defs>
    <linearGradient id="linear-gradient" x1="0.5" x2="0.5" y2="1" gradientUnits="objectBoundingBox">
      <stop offset="0" stop-color="#89f995"/>
      <stop offset="1" stop-color="#32c8d9"/>
    </linearGradient>
    <linearGradient id="linear-gradient-2" y1="-0.776" xlink:href="#linear-gradient"/>
  </defs>
  <g id="Group_47219" data-name="Group 47219" transform="translate(-4813 886)">
    <g id="Group_47218" data-name="Group 47218">
      <circle id="Ellipse_4172" data-name="Ellipse 4172" cx="26.5" cy="26.5" r="26.5" transform="translate(4813 -886)" opacity="0.079" fill="url(#linear-gradient)"/>
      <path id="Path_27926" data-name="Path 27926" d="M-2455.089,2699.342a9.131,9.131,0,0,1-3.125.893c-1.154-.029-2.393,1.706-2.439,3.245-.076,2.5,1.431,4.211,2.876,6.019,2.345,2.934,5.732,3.129,8.585,2.2a9.223,9.223,0,0,0,6.136-7.665c.329-2.163-1.209-3.61-3.511-3.738a8.106,8.106,0,0,1-2.152-.725c-.4-.145-.376-.364-.23-.754.776-2.074,1.443-2.281,2.9-.655a26.691,26.691,0,0,0,2.267,2.245,4.368,4.368,0,0,1,1.259,4.769c-.892,3.24-3.135,5.408-5.89,7.109-.753.465-1.575.767-1.389,1.9a.706.706,0,0,1-.258.563c-2.685,1.87-1.282,4.557-1.23,6.874.032,1.463,1.674,2.215,3.249,1.971a3.118,3.118,0,0,0,2.6-3.255c.005-1.687-.08-3.374-.042-5.06a2.938,2.938,0,0,1,2.076-3,2.743,2.743,0,0,1,3.529,2.424,13.008,13.008,0,0,1,.1,2.116,2.8,2.8,0,0,0,.986,2.692,1.654,1.654,0,0,1-.153,2.7,1.762,1.762,0,0,1-2.631-.14,1.749,1.749,0,0,1,.186-2.726c1.115-1.019,1.4-4.466.442-5.619a1.913,1.913,0,0,0-2.158-.779,2.109,2.109,0,0,0-1.591,2.047c-.04,1.577.034,3.158-.046,4.733-.087,1.711-.325,3.373-2.205,4.2a3.6,3.6,0,0,1-5.258-3.165,27.174,27.174,0,0,1,.007-2.938,2.7,2.7,0,0,0-1.163-2.823c-.135-.082-.326-.222-.333-.344-.118-2.132-2.119-2.468-3.353-3.521a12.55,12.55,0,0,1-4.024-5.439,4.605,4.605,0,0,1,1.578-5.68c.852-.65.792-1.759,1.717-2.4s1.372-.892,1.874.275A16.512,16.512,0,0,0-2455.089,2699.342Zm4.617,14.06c.122-.74-.467-.827-1.1-.742s-1.652-.459-1.639.857a1.417,1.417,0,0,0,1.322,1.526A1.55,1.55,0,0,0-2450.472,2713.4Zm10.273,6.166c-.708.08-1.158.448-1.157,1.146a1.087,1.087,0,0,0,1.209,1.218,1.109,1.109,0,0,0,1.134-1.3A1.113,1.113,0,0,0-2440.2,2719.569Z" transform="translate(7289.302 -3570.178)" fill="url(#linear-gradient-2)"/>
    </g>
  </g>
</svg>
