<svg xmlns="http://www.w3.org/2000/svg" xmlns:xlink="http://www.w3.org/1999/xlink" width="53" height="53" viewBox="0 0 53 53">
  <defs>
    <linearGradient id="linear-gradient" x1="0.5" x2="0.5" y2="1" gradientUnits="objectBoundingBox">
      <stop offset="0" stop-color="#89f995"/>
      <stop offset="1" stop-color="#32c8d9"/>
    </linearGradient>
    <linearGradient id="linear-gradient-2" y1="-0.776" xlink:href="#linear-gradient"/>
  </defs>
  <g id="Group_47216" data-name="Group 47216" transform="translate(-5028 886)">
    <circle id="Ellipse_4103" data-name="Ellipse 4103" cx="26.5" cy="26.5" r="26.5" transform="translate(5028 -886)" opacity="0.079" fill="url(#linear-gradient)"/>
    <path id="Path_27922" data-name="Path 27922" d="M-3611.337,1242.249a3.977,3.977,0,0,1-.17-1.917c.042-.332.256-.425.525-.22a4.708,4.708,0,0,1,1.153,1.2c.063.1.107.114.221.065a5.171,5.171,0,0,1,2.479-.352c.241.017.331.23.194.451a4.672,4.672,0,0,1-1.531,1.612c-.026.016-.066.021-.071.078.125.053.257.1.383.164a2.475,2.475,0,0,1,1.434,2.529c-.014.309-.011.31.3.31.224,0,.449,0,.674,0a.988.988,0,0,1,.965,1.359c-.481,1.372-.971,2.741-1.458,4.111s-.979,2.753-1.467,4.13a3.406,3.406,0,0,1-3.354,2.371h-15.392a3.385,3.385,0,0,1-3.267-2.289q-1.482-4.146-2.948-8.3a.989.989,0,0,1,.989-1.384c.646,0,1.293,0,1.939,0,.165,0,.176-.041.12-.183-.352-.9-.7-1.8-1.042-2.7a1.558,1.558,0,0,1,.294-1.691,1.1,1.1,0,0,0,.1-1.329c-.038-.063-.094-.071-.149-.093a.807.807,0,0,1-.541-.768.788.788,0,0,1,.522-.778q1.309-.513,2.625-1.011a.81.81,0,0,1,.915.21.829.829,0,0,1,.115.95.293.293,0,0,0-.01.248,1.118,1.118,0,0,0,1.008.846,1.52,1.52,0,0,1,1.287,1.051c.648,1.688,1.3,3.373,1.945,5.062a.244.244,0,0,0,.279.188c.476-.01.952,0,1.429,0,.267,0,.267,0,.267-.258q0-3.389,0-6.778a.618.618,0,0,1,.711-.709h2.2c.572,0,.779.2.779.77v6.716c0,.259,0,.259.267.259h.857c.295,0,.29,0,.3-.286a4.941,4.941,0,0,1,.768-2.648,2.523,2.523,0,0,1,3.2-1.043Zm-20.3,6.5a.34.34,0,0,0,.045.226q1.176,3.314,2.355,6.627a2.884,2.884,0,0,0,2.828,2q7.676,0,15.353,0a2.884,2.884,0,0,0,2.818-1.986q.381-1.065.759-2.132,1.077-3.035,2.157-6.07a.506.506,0,0,0-.058-.554.541.541,0,0,0-.446-.154q-5.42,0-10.841,0a.623.623,0,0,1-.081,0c-.109-.014-.141.037-.139.141,0,.231.006.463-.006.694a1.283,1.283,0,0,1-1.24,1.2q-.6.015-1.2,0a1.284,1.284,0,0,1-1.243-1.266,4.741,4.741,0,0,1,0-.53c.02-.2-.041-.248-.242-.248q-5.4.01-10.8,0c-.041,0-.082,0-.122,0a.452.452,0,0,0-.433.622c.074.226.17.445.235.674a.245.245,0,0,0,.287.206c1.409-.008,2.817,0,4.226,0a1.8,1.8,0,0,1,.2.005.245.245,0,0,1,.244.271.253.253,0,0,1-.253.266,1.428,1.428,0,0,1-.163,0h-4.242Zm5.608-2.58h2.734c.229,0,.23,0,.147-.215q-.935-2.424-1.869-4.848a1.008,1.008,0,0,0-.87-.7,1.549,1.549,0,0,1-1.367-1.064c-.05-.138-.107-.129-.221-.085q-1.043.409-2.092.8c-.14.052-.167.108-.111.251a1.519,1.519,0,0,1-.29,1.652,1.026,1.026,0,0,0-.2,1.119c.378.975.757,1.95,1.128,2.929a.209.209,0,0,0,.234.162C-3627.876,1246.168-3626.951,1246.171-3626.026,1246.171Zm5.987-2.872q0,2.051,0,4.1a.761.761,0,0,0,.807.806q.5,0,1,0a.762.762,0,0,0,.8-.808q0-4.113,0-8.225c0-.165-.051-.208-.209-.206-.728.007-1.456.009-2.184,0-.18,0-.229.049-.228.23C-3620.036,1240.564-3620.04,1241.932-3620.04,1243.3Zm8.929,2.871c1.2,0,2.409,0,3.613,0,.156,0,.209-.047.228-.2a2.044,2.044,0,0,0-2.154-2.372,2.529,2.529,0,0,1-1.77-.609,1.737,1.737,0,0,0-.585-.325,1.985,1.985,0,0,0-2.461.863,4.58,4.58,0,0,0-.68,2.424c0,.17.045.218.215.216C-3613.506,1246.167-3612.308,1246.171-3611.111,1246.171Zm3.473-4.616a4.273,4.273,0,0,0-1.783.336,1.148,1.148,0,0,0-.7.777c-.062.263-.048.288.22.282A2.91,2.91,0,0,0-3607.637,1241.554Zm-19.591-3.144a.278.278,0,0,0-.378-.281q-1.314.5-2.622,1.009a.261.261,0,0,0-.165.363.264.264,0,0,0,.366.157q1.3-.5,2.6-1A.278.278,0,0,0-3627.228,1238.41Zm16.243,2.41a2.22,2.22,0,0,0,.374,1.576,1.564,1.564,0,0,1,.354-.57c.07-.068.032-.117,0-.176A3.729,3.729,0,0,0-3610.985,1240.82Z" transform="translate(8672.756 -2107.627)" fill="url(#linear-gradient-2)"/>
    <path id="Path_27923" data-name="Path 27923" d="M-3292.5,1595.4h3.222a1.452,1.452,0,0,1,.2.005.25.25,0,0,1,.232.265.254.254,0,0,1-.232.267,1.034,1.034,0,0,1-.163,0h-6.505a1.116,1.116,0,0,1-.183,0,.253.253,0,0,1-.231-.266.251.251,0,0,1,.231-.265,1.206,1.206,0,0,1,.183-.005Z" transform="translate(8349.912 -2450.856)" fill="url(#linear-gradient-2)"/>
    <path id="Path_27924" data-name="Path 27924" d="M-3210.786,1650.626q-1.04,0-2.08,0a.661.661,0,0,1-.2-.023.246.246,0,0,1-.177-.267.25.25,0,0,1,.21-.244.927.927,0,0,1,.183-.01h4.1c.034,0,.068,0,.1,0,.188.011.293.108.294.269a.27.27,0,0,1-.29.274c-.054,0-.109,0-.163,0Z" transform="translate(8270.385 -2503.303)" fill="url(#linear-gradient-2)"/>
    <path id="Path_27925" data-name="Path 27925" d="M-3296.323,1445.225c0-.19,0-.379,0-.569s.1-.31.272-.31.27.109.272.31q.007.579,0,1.159c0,.2-.1.309-.272.309s-.267-.107-.272-.31S-3296.324,1445.421-3296.323,1445.225Z" transform="translate(8350.073 -2305.969)" fill="url(#linear-gradient-2)"/>
  </g>
</svg>
