<svg xmlns="http://www.w3.org/2000/svg" xmlns:xlink="http://www.w3.org/1999/xlink" width="53" height="53" viewBox="0 0 53 53">
  <defs>
    <linearGradient id="linear-gradient" x1="0.5" x2="0.5" y2="1" gradientUnits="objectBoundingBox">
      <stop offset="0" stop-color="#89f995"/>
      <stop offset="1" stop-color="#32c8d9"/>
    </linearGradient>
    <linearGradient id="linear-gradient-2" y1="-0.776" xlink:href="#linear-gradient"/>
  </defs>
  <g id="Group_47220" data-name="Group 47220" transform="translate(-4707 886)">
    <circle id="Ellipse_4173" data-name="Ellipse 4173" cx="26.5" cy="26.5" r="26.5" transform="translate(4707 -886)" opacity="0.079" fill="url(#linear-gradient)"/>
    <path id="Path_27928" data-name="Path 27928" d="M-7320.869,1441.322c-.734-.35-1.34-.621-1.927-.926-.345-.179-.524.021-.744.219a3.087,3.087,0,0,1-3.641.514c-.985-.459-1.978-.9-2.951-1.385a1.787,1.787,0,0,1-1-2.6c.309-.736.644-1.464,1.013-2.171a1.745,1.745,0,0,1,2.4-.943c1.207.5,2.394,1.07,3.553,1.677a2.776,2.776,0,0,1,1.546,2.767.818.818,0,0,0,.626.987,1.773,1.773,0,0,1,.174.079c2.658,1.252,2.724,1.241,5.25-.195a.71.71,0,0,0,.405-.762,3.1,3.1,0,0,1,2.028-3.16c.668-.3,1.324-.644,2.01-.9a3.1,3.1,0,0,1,3.971,1.552,3.084,3.084,0,0,1-1.358,4.039,24.394,24.394,0,0,1-2.521,1.166,2.711,2.711,0,0,1-2.966-.484,1.05,1.05,0,0,0-1.491-.175c-.424.268-.963.337-1.355.771,2.29,1.067,4.549,2.117,6.807,3.171a5.766,5.766,0,0,1,.767.393.584.584,0,0,1,.213.836.541.541,0,0,1-.753.2c-.206-.089-.407-.186-.61-.28-2.4-1.12-4.819-2.219-7.205-3.377a1.648,1.648,0,0,0-1.606.02c-2.3,1.11-4.628,2.173-6.945,3.254l-.609.281c-.383.175-.785.242-.994-.205s.134-.715.5-.886c1.706-.8,3.418-1.592,5.127-2.389C-7322.44,1442.072-7321.73,1441.731-7320.869,1441.322Zm11.8-3.918a1.877,1.877,0,0,0-2.357-1.835,9.121,9.121,0,0,0-2.765,1.294,1.832,1.832,0,0,0-.123,2.967,2.177,2.177,0,0,0,2.6.015C-7310.621,1439.265-7309.192,1439.039-7309.068,1437.4Zm-14.743.806a1.855,1.855,0,0,0-1.226-1.616c-.946-.459-1.909-.885-2.856-1.343-.564-.273-.97-.19-1.235.418-.28.643-.581,1.277-.885,1.909-.191.4-.21.774.224.984a22.6,22.6,0,0,0,3.75,1.669A1.864,1.864,0,0,0-7323.812,1438.21Z" transform="translate(12052.356 -2292.899)" fill="url(#linear-gradient-2)"/>
    <path id="Path_27929" data-name="Path 27929" d="M-7319.666,1370.738a23.545,23.545,0,0,0-3.769.137,2.26,2.26,0,0,0-1.819,2.266,2.193,2.193,0,0,0,2.021,2.183,74.421,74.421,0,0,0,7.866,0,2.118,2.118,0,0,0,1.982-1.906c.1-.442.158-.983.782-.841s.457.7.4,1.124a3.366,3.366,0,0,1-2.975,2.833,43.86,43.86,0,0,1-5.562.069c-.727-.006-.941.2-.9.917.059,1.021.018,2.047.011,3.071,0,.415-.128.818-.606.826-.5.008-.583-.415-.585-.821-.007-1.088-.029-2.177,0-3.264.017-.522-.173-.706-.681-.81a3.407,3.407,0,0,1-2.928-3.849,3.484,3.484,0,0,1,3.646-3.1q7.153-.026,14.306,0a3.478,3.478,0,0,1,3.592,3.057,3.406,3.406,0,0,1-2.879,3.886c-.553.108-.747.309-.727.869.039,1.055.012,2.112.008,3.168,0,.4-.057.849-.543.867-.534.02-.65-.426-.652-.877,0-1.056-.032-2.113.009-3.168.023-.582-.153-.789-.75-.766-.532.021-1.363.206-1.357-.607s.843-.568,1.375-.6c.8-.048,1.6.007,2.4-.08a2.221,2.221,0,0,0,1.953-2.151,2.253,2.253,0,0,0-1.79-2.287,4.882,4.882,0,0,0-1.042-.128q-3.744-.016-7.489,0c-1.707.007-2.337.492-2.828,2.112-.112.37-.209.817-.726.714-.532-.107-.54-.564-.483-1A5.9,5.9,0,0,1-7319.666,1370.738Z" transform="translate(12048.39 -2240.982)" fill="url(#linear-gradient-2)"/>
    <path id="Path_27930" data-name="Path 27930" d="M-7240.108,1452.271c-.619-.014-1.08-.069-1.115-.6-.038-.592.449-.531.868-.6a3.925,3.925,0,0,0,2.258-1.111c.252-.261.508-.549.882-.24s.264.7,0,1.016A5.225,5.225,0,0,1-7240.108,1452.271Z" transform="translate(11979.577 -2305.604)" fill="url(#linear-gradient-2)"/>
    <path id="Path_27931" data-name="Path 27931" d="M-7317.426,1453.379c-.1.5-.362.766-.808.581-.905-.376-1.789-.8-2.668-1.24a.529.529,0,0,1-.278-.723.5.5,0,0,1,.607-.346,15.137,15.137,0,0,1,2.911,1.368C-7317.544,1453.091-7317.493,1453.271-7317.426,1453.379Z" transform="translate(12044.183 -2307.252)" fill="url(#linear-gradient-2)"/>
    <path id="Path_27932" data-name="Path 27932" d="M-7316.77,1443.775a15.559,15.559,0,0,1,2.907,1.415.5.5,0,0,1,.092.694.491.491,0,0,1-.653.235c-.9-.4-1.794-.816-2.677-1.252a.557.557,0,0,1-.281-.732C-7317.3,1443.9-7317.109,1443.8-7316.77,1443.775Z" transform="translate(12041.106 -2300.912)" fill="url(#linear-gradient-2)"/>
  </g>
</svg>
