<svg xmlns="http://www.w3.org/2000/svg" xmlns:xlink="http://www.w3.org/1999/xlink" width="53" height="53" viewBox="0 0 53 53">
  <defs>
    <linearGradient id="linear-gradient" x1="0.5" x2="0.5" y2="1" gradientUnits="objectBoundingBox">
      <stop offset="0" stop-color="#89f995"/>
      <stop offset="1" stop-color="#32c8d9"/>
    </linearGradient>
    <linearGradient id="linear-gradient-2" y1="-0.776" xlink:href="#linear-gradient"/>
  </defs>
  <g id="Group_47224" data-name="Group 47224" transform="translate(-4389 886)">
    <circle id="Ellipse_4176" data-name="Ellipse 4176" cx="26.5" cy="26.5" r="26.5" transform="translate(4389 -886)" opacity="0.079" fill="url(#linear-gradient)"/>
    <g id="Group_47223" data-name="Group 47223" transform="translate(4401.148 -870.375)">
      <path id="Path_20756" data-name="Path 20756" d="M298.351,422.8c.529,0,.982,0,1.436,0,.331,0,.416.086.421.409.013.8.013.8-.785.8H280.6c-.512,0-.561-.051-.557-.565,0-.642,0-.642.658-.642h1.162c-.279-.289-.207-.623-.207-.94q0-4.635,0-9.271c0-.554.133-.688.685-.688h15.46c.121,0,.242-.005.362.006a.444.444,0,0,1,.435.432c.015.154.008.31.008.465q0,4.648,0,9.3A.73.73,0,0,1,298.351,422.8Zm-8.228-.776c2.46,0,4.921,0,7.381.006.232,0,.286-.065.285-.289q-.011-4.364,0-8.728c0-.241-.07-.3-.305-.3q-7.367.01-14.734,0c-.234,0-.285.068-.285.292q.011,4.363,0,8.727c0,.241.067.3.3.3C285.22,422.024,287.671,422.027,290.123,422.027Z" transform="translate(-267.39 -402.792)" fill="url(#linear-gradient-2)"/>
      <path id="Path_20757" data-name="Path 20757" d="M234.264,369.7H245.9a1.085,1.085,0,0,1,1.2,1.2c0,2.427,0,4.853.005,7.279,0,.22-.044.3-.282.29-.536-.018-.536,0-.536-.55q0-3.458,0-6.917c0-.452-.04-.49-.484-.49H222.74c-.43,0-.471.04-.472.475q0,7.6-.009,15.206c0,.079.051.19-.041.231s-.162-.038-.234-.083a1.094,1.094,0,0,1-.538-1q0-3.743,0-7.487,0-3.471,0-6.943a1.094,1.094,0,0,1,1.211-1.22Z" transform="translate(-221.446 -369.699)" fill="url(#linear-gradient-2)"/>
      <path id="Path_20758" data-name="Path 20758" d="M232.831,423.3q0,2.382,0,4.764a.889.889,0,0,1-1.007,1q-2.02,0-4.039,0a.891.891,0,0,1-1-1.011q0-4.764,0-9.529a.894.894,0,0,1,1.02-1.011H231.8c.715,0,1.036.324,1.036,1.048Q232.831,420.935,232.831,423.3Zm-.819,0h0c0-1.563,0-3.125,0-4.687,0-.21-.051-.279-.271-.277q-1.942.015-3.884,0c-.214,0-.257.073-.257.268q.007,4.7,0,9.4c0,.192.051.25.246.248q1.955-.012,3.91,0c.213,0,.255-.069.254-.265C232.008,426.425,232.011,424.862,232.011,423.3Z" transform="translate(-225.634 -407.195)" fill="url(#linear-gradient-2)"/>
      <path id="Path_20759" data-name="Path 20759" d="M269.921,448.908c.579,0,1.157,0,1.735,0,.157,0,.209.045.208.2q-.011,1.075,0,2.15c0,.155-.038.217-.2.209-.241-.012-.483,0-.725,0a.638.638,0,0,0-.6.337.239.239,0,0,1-.243.143c-.639,0-1.278-.007-1.917,0-.146,0-.194-.041-.193-.19q.009-1.334,0-2.668c0-.159.065-.184.2-.183.579,0,1.157,0,1.736,0Z" transform="translate(-257.938 -431.806)" fill="url(#linear-gradient-2)"/>
      <path id="Path_20760" data-name="Path 20760" d="M259.506,444.517c-.983,0-1.966,0-2.948,0-.178,0-.234-.044-.234-.227,0-.6-.006-.6.587-.6,1.845,0,3.69,0,5.534,0,.212,0,.281.05.276.27-.013.556,0,.557-.552.557Z" transform="translate(-248.794 -427.717)" fill="url(#linear-gradient-2)"/>
      <path id="Path_20761" data-name="Path 20761" d="M258.266,465c-.725,0-1.451-.007-2.175,0-.231,0-.325-.064-.32-.308.01-.488,0-.488.5-.488,1.364,0,2.728,0,4.092-.005.236,0,.366.042.319.307-.028.159.09.376-.017.462s-.313.028-.476.029C259.544,465,258.9,465,258.266,465Z" transform="translate(-248.36 -443.804)" fill="url(#linear-gradient-2)"/>
    </g>
  </g>
</svg>
