<svg xmlns="http://www.w3.org/2000/svg" xmlns:xlink="http://www.w3.org/1999/xlink" width="53" height="53" viewBox="0 0 53 53">
  <defs>
    <linearGradient id="linear-gradient" x1="0.5" x2="0.5" y2="1" gradientUnits="objectBoundingBox">
      <stop offset="0" stop-color="#89f995"/>
      <stop offset="1" stop-color="#32c8d9"/>
    </linearGradient>
    <linearGradient id="linear-gradient-2" y1="-0.776" xlink:href="#linear-gradient"/>
  </defs>
  <g id="Group_47217" data-name="Group 47217" transform="translate(-4919 886)">
    <circle id="Ellipse_4171" data-name="Ellipse 4171" cx="26.5" cy="26.5" r="26.5" transform="translate(4919 -886)" opacity="0.079" fill="url(#linear-gradient)"/>
    <path id="Path_21364" data-name="Path 21364" d="M-1043.366-1882c1.435.679,2.895,1.311,4.324,2a6.092,6.092,0,0,1,3.677,6.841c-.2,1.618-.751,3.157-1.075,4.745l.382.06a30.835,30.835,0,0,0,1.172-3.471c.924-4.3.116-7.171-3.924-9.215-.519-.263-1.025-.549-1.542-.817-3.322-1.729-5.915-4.027-6.63-7.8-.067-.352-.113-.812-.591-.777-.616.046-.472.592-.465.968A7.768,7.768,0,0,0-1043.366-1882Z" transform="translate(5996.443 1015.567)" fill="url(#linear-gradient-2)"/>
    <path id="Path_21365" data-name="Path 21365" d="M-1145.054-1887.655c2.275,2.723,5.319,4.563,8.212,6.565,4.3,2.976,5.391,6.788,3.186,11.413a19.994,19.994,0,0,1-2.557,3.767c.453-.058.591-.034.654-.089,5.081-4.4,6.637-11.25-.152-15.715-3.739-2.459-8.049-4.417-10.006-8.786-.14-.312-.407-.518-.761-.33-.277.146-.207.436-.125.687A7.684,7.684,0,0,0-1145.054-1887.655Z" transform="translate(6083.018 1015.979)" fill="url(#linear-gradient-2)"/>
    <path id="Path_21367" data-name="Path 21367" d="M-1074.072-1878.651c2.825,2.623,4.276,5.694,3.555,9.529-.275,1.462-.509,2.931-.761,4.4a24.722,24.722,0,0,0,1.8-5.354c.766-3.568.025-6.707-3.117-9.072a32.437,32.437,0,0,0-2.591-2.047c-2.906-1.753-4.469-4.057-3.653-7.521-1.271,1.958-.97,4.226.637,6.237A37.969,37.969,0,0,0-1074.072-1878.651Z" transform="translate(6024.163 1014.064)" fill="url(#linear-gradient-2)"/>
    <path id="Path_21372" data-name="Path 21372" d="M-1192.413-1868.215c-1.65-.5-3.372-.5-5.037-.852-1.915-.4-2.149-.927-1.068-2.462.779-1.106-.422-2.751,1.1-3.652a.6.6,0,0,0-.127-.265c-.623-.626-1.082-1.232-.292-2.083.2-.214-.237-.514-.432-.747-1.888-2.26-1.887-2.26.269-4.283.305-.286.6-.578.909-.863a2.964,2.964,0,0,0,1.058-3.44,2.165,2.165,0,0,1,.32-2.05,17.071,17.071,0,0,0,.838-1.548l-.427-.181c-.858,1.1-1.94,2.138-1.481,3.776a2.624,2.624,0,0,1-1.011,3c-.652.528-1.251,1.116-1.865,1.687-1.946,1.811-1.961,1.973-.037,3.754a1.341,1.341,0,0,1,.446,1.65c-.261,1,.542,2.228-.691,3.095-.042.03.033.32.132.412.727.677.265,1.228-.093,1.886-.8,1.476-.229,2.6,1.491,2.98a22.472,22.472,0,0,0,3,.449c5.149.421,7.786,3.546,9.331,7.884a5.484,5.484,0,0,0,.819,2.043A10.626,10.626,0,0,0-1192.413-1868.215Z" transform="translate(6130.825 1015.75)" fill="url(#linear-gradient-2)"/>
  </g>
</svg>
