<svg xmlns="http://www.w3.org/2000/svg" xmlns:xlink="http://www.w3.org/1999/xlink" width="53" height="53" viewBox="0 0 53 53">
  <defs>
    <linearGradient id="linear-gradient" x1="0.5" x2="0.5" y2="1" gradientUnits="objectBoundingBox">
      <stop offset="0" stop-color="#89f995"/>
      <stop offset="1" stop-color="#32c8d9"/>
    </linearGradient>
    <linearGradient id="linear-gradient-2" y1="-0.776" xlink:href="#linear-gradient"/>
  </defs>
  <g id="Group_47222" data-name="Group 47222" transform="translate(-4494 886)">
    <circle id="Ellipse_4175" data-name="Ellipse 4175" cx="26.5" cy="26.5" r="26.5" transform="translate(4494 -886)" opacity="0.079" fill="url(#linear-gradient)"/>
    <path id="Path_27927" data-name="Path 27927" d="M-6667.085,1429.035c0,2.053,0,4.107,0,6.16,0,.918-.229,1.219-1.144,1.348a51.9,51.9,0,0,1-9.249.456c-1.827-.07-3.647-.227-5.464-.433-1.159-.131-1.4-.416-1.356-1.6.147-4.143.125-8.286.014-12.429-.012-.436-.117-.49-.47-.251a8.239,8.239,0,0,1-.979.562,1,1,0,0,1-1.433-.35,18.5,18.5,0,0,1-2.624-6.807,1,1,0,0,1,.57-1.075c1.942-1.119,3.956-2.1,5.94-3.143a7.277,7.277,0,0,1,4.384-.8,36.477,36.477,0,0,0,8.069-.106,1.94,1.94,0,0,1,1.042.16q3.819,1.71,7.447,3.793a1.131,1.131,0,0,1,.682,1.485,18.926,18.926,0,0,1-2.5,6.386,1.05,1.05,0,0,1-1.544.44,6.621,6.621,0,0,1-.882-.5c-.376-.265-.528-.259-.524.267.017,2.148.007,4.3.007,6.445Zm-.516-.371c0-2.28-.01-4.56.007-6.84,0-.576.152-.637.646-.349.438.256.87.527,1.313.777.6.34.773.295,1.135-.309a19.313,19.313,0,0,0,2.3-5.861.925.925,0,0,0-.522-1.187q-3.289-1.821-6.681-3.433a3.255,3.255,0,0,0-2.009-.324c-.3.05-.419.128-.422.446a2.037,2.037,0,0,1-.656,1.454,4.455,4.455,0,0,1-4.5,1.076c-1.372-.352-2.465-1.065-2.589-2.672-.009-.111-.012-.262-.151-.265-.484-.011-.983-.247-1.45-.047a72.5,72.5,0,0,0-7.749,3.937.638.638,0,0,0-.312.767,19.047,19.047,0,0,0,2.421,6.233.625.625,0,0,0,.992.235c.4-.247.812-.478,1.215-.723.708-.43.8-.387.83.444.13,4.369.148,8.738-.022,13.106-.024.616.133.825.739.9.561.068,1.124.12,1.686.176a54.9,54.9,0,0,0,13.081-.177c.528-.074.72-.316.712-.865C-6667.617,1433-6667.6,1430.829-6667.6,1428.663Zm-8.067-17.406v0c-.979,0-1.958.025-2.936-.011-.46-.017-.5.159-.415.532a2.22,2.22,0,0,0,.943,1.293,4.334,4.334,0,0,0,5.06-.238,1.992,1.992,0,0,0,.646-1.1c.083-.371-.02-.5-.419-.483C-6673.748,1411.277-6674.708,1411.257-6675.668,1411.257Z" transform="translate(11196.6 -2283.571)" fill="url(#linear-gradient-2)"/>
  </g>
</svg>
