<svg xmlns="http://www.w3.org/2000/svg" xmlns:xlink="http://www.w3.org/1999/xlink" width="53" height="53" viewBox="0 0 53 53">
  <defs>
    <linearGradient id="linear-gradient" x1="0.5" x2="0.5" y2="1" gradientUnits="objectBoundingBox">
      <stop offset="0" stop-color="#89f995"/>
      <stop offset="1" stop-color="#32c8d9"/>
    </linearGradient>
    <linearGradient id="linear-gradient-2" y1="-0.776" xlink:href="#linear-gradient"/>
  </defs>
  <g id="Group_47225" data-name="Group 47225" transform="translate(-4283 886)">
    <circle id="Ellipse_4178" data-name="Ellipse 4178" cx="26.5" cy="26.5" r="26.5" transform="translate(4283 -886)" opacity="0.08" fill="url(#linear-gradient)"/>
    <path id="Path_25380" data-name="Path 25380" d="M-547.779,1000.141v.451q0,6.123-.007,12.245c0,.285.073.358.357.356q2.851-.02,5.7,0c.245,0,.31-.064.309-.309-.01-2.2-.006-4.4-.005-6.606,0-.473.094-.569.558-.569h5.64c.422,0,.534.111.534.533,0,2.212,0,4.425,0,6.637,0,.235.047.317.3.315q2.882-.017,5.764,0c.263,0,.3-.092.3-.32q-.009-6.154,0-12.307a.8.8,0,0,1,.043-.4l.637.5c.089.07.067.168.067.259q0,6.263,0,12.526c0,.356-.129.48-.493.48q-3.427,0-6.855,0c-.394,0-.5-.118-.5-.53q0-3.272,0-6.543c0-.467.066-.4-.419-.4-1.475,0-2.95.011-4.424-.01-.34,0-.4.1-.4.413.013,2.171.007,4.341.007,6.512,0,.461-.1.563-.568.563h-6.73c-.45,0-.555-.1-.555-.542q0-6.2,0-12.4a.464.464,0,0,1,.211-.444C-548.151,1000.436-547.994,1000.3-547.779,1000.141Z" transform="translate(4846.923 -1862.435)" fill="url(#linear-gradient-2)"/>
    <path id="Path_25381" data-name="Path 25381" d="M-594.785,853.393q0-.743,0-1.484c0-.644,0-1.288,0-1.932,0-.4.12-.526.512-.527q1.355,0,2.71,0c.392,0,.517.127.517.523,0,2.056,0,4.112,0,6.168a.529.529,0,0,0,.229.467q2.562,2.007,5.116,4.024c.161.127.309.253.264.487-.057.292-.386.38-.664.164-.672-.522-1.339-1.052-2.007-1.579q-5.83-4.6-11.654-9.211a.343.343,0,0,0-.52.011q-6.716,5.314-13.44,10.617a2.8,2.8,0,0,1-.326.238.344.344,0,0,1-.474-.089.355.355,0,0,1,.018-.484,1.556,1.556,0,0,1,.236-.2l13.784-10.885c.424-.335.509-.335.942.007q2.259,1.787,4.521,3.571A.311.311,0,0,0-594.785,853.393Zm2.991,2.433c0-1.869,0-3.654,0-5.44,0-.19-.1-.189-.236-.189-.571,0-1.143.016-1.713-.005-.26-.01-.3.085-.3.317.011,1,.025,1.995,0,2.991a.947.947,0,0,0,.434.9C-593.007,854.835-592.438,855.318-591.794,855.827Z" transform="translate(4908.886 -1721.135)" fill="url(#linear-gradient-2)"/>
  </g>
</svg>
