<svg xmlns="http://www.w3.org/2000/svg" xmlns:xlink="http://www.w3.org/1999/xlink" width="30.318" height="30.119" viewBox="0 0 30.318 30.119">
  <defs>
    <linearGradient id="linear-gradient" x1="0.5" y1="-1.644" x2="0.5" y2="1" gradientUnits="objectBoundingBox">
      <stop offset="0" stop-color="#89f995"/>
      <stop offset="1" stop-color="#32c8d9"/>
    </linearGradient>
  </defs>
  <g id="Group_46861" data-name="Group 46861" transform="translate(-50.229 -227.297)">
    <path id="Path_28048" data-name="Path 28048" d="M-1310.981,588.722a12.74,12.74,0,0,1,3.759.514,13.848,13.848,0,0,1,7,4.591,13.72,13.72,0,0,1,2.947,6.351,14.158,14.158,0,0,1,.137,4,13.649,13.649,0,0,1-.971,3.82,13.623,13.623,0,0,1-2.292,3.737c-.093.108-.091.164,0,.268q1.747,2.033,3.624,3.944c.637.653,1.285,1.3,1.929,1.94a.477.477,0,0,1,.164.521.48.48,0,0,1-.445.316,10.346,10.346,0,0,1-5.024-.522,16.25,16.25,0,0,1-4.186-2.257q-.36-.263-.712-.538a.156.156,0,0,0-.19-.021,13.664,13.664,0,0,1-4.127,1.158,14.352,14.352,0,0,1-2.948.032,13.669,13.669,0,0,1-5.26-1.57,13.988,13.988,0,0,1-4.235-3.474,13.759,13.759,0,0,1-2.643-5.031,14.034,14.034,0,0,1-.5-4.627,13.83,13.83,0,0,1,1-4.465,13.769,13.769,0,0,1,2.351-3.837,13.915,13.915,0,0,1,3.2-2.748,13.748,13.748,0,0,1,3.9-1.676A14.1,14.1,0,0,1-1310.981,588.722Zm14.874,29.226a.173.173,0,0,0-.078-.129q-2.053-2.052-3.992-4.211c-.431-.482-.872-.957-1.254-1.48a.383.383,0,0,1,.036-.574,13.056,13.056,0,0,0,1.585-2.128,13.069,13.069,0,0,0,1.732-4.864,12.949,12.949,0,0,0-.283-5.178,12.9,12.9,0,0,0-5.034-7.338,12.751,12.751,0,0,0-6.544-2.41,12.879,12.879,0,0,0-5.518.728,13.019,13.019,0,0,0-5.731,4.076,12.865,12.865,0,0,0-1.895,3.148,12.769,12.769,0,0,0-.987,4.111,12.987,12.987,0,0,0,.339,4.14,12.96,12.96,0,0,0,2.312,4.788,13.155,13.155,0,0,0,4.652,3.82,12.715,12.715,0,0,0,3.5,1.123,13.2,13.2,0,0,0,5.356-.178,12.031,12.031,0,0,0,2.548-.918.511.511,0,0,1,.624.066c.219.19.454.363.688.535a14.432,14.432,0,0,0,5.528,2.672A8.949,8.949,0,0,0-1296.107,617.947Z" transform="translate(1375.21 -361.421)" fill="url(#linear-gradient)"/>
    <g id="Group_46860" data-name="Group 46860" transform="translate(57.391 233.348)">
      <path id="Path_28046" data-name="Path 28046" d="M35.219,1564.344c-.4,0-.8,0-1.195,0-.146,0-.192-.053-.2-.2a13.333,13.333,0,0,1,.285-3.276,2.777,2.777,0,0,1,.83-1.383c.71-.7,1.486-1.324,2.229-1.987.123-.109.249-.216.363-.334a1.957,1.957,0,0,0-.07-2.871,2.814,2.814,0,0,0-2.406-.707,2.949,2.949,0,0,0-2.67,2.481c-.046.182-.116.212-.28.19-.789-.1-1.579-.206-2.37-.292-.193-.021-.219-.094-.2-.266a4.68,4.68,0,0,1,2.965-3.9,6.9,6.9,0,0,1,6.348.348,4.223,4.223,0,0,1,2.236,4,3.363,3.363,0,0,1-.777,1.947,13.091,13.091,0,0,1-2,1.963c-.336.286-.677.566-.99.878a2.259,2.259,0,0,0-.663,1.455,16.726,16.726,0,0,0-.047,1.686c0,.226-.077.279-.283.272-.372-.013-.744,0-1.116,0Z" transform="translate(-29.534 -1551.193)" fill="url(#linear-gradient)"/>
      <path id="Path_28047" data-name="Path 28047" d="M114.653,1845.307a1.444,1.444,0,0,1,.048-2.889,1.445,1.445,0,0,1-.048,2.889Z" transform="translate(-108.888 -1827.29)" fill="url(#linear-gradient)"/>
    </g>
  </g>
</svg>
