<svg id="Group_46884" data-name="Group 46884" xmlns="http://www.w3.org/2000/svg" width="27.237" height="27.221" viewBox="0 0 27.237 27.221">
  <path id="Path_30597" data-name="Path 30597" d="M54.406,31.931a8.118,8.118,0,0,0-1.44-4.289,7.665,7.665,0,0,0-5.857-2.988c-2.15-.148-4.309-.089-6.458-.108h-.818a52.961,52.961,0,0,0-5.729.187,7.12,7.12,0,0,0-6.4,5.492A18.573,18.573,0,0,0,27.31,34.4c-.02,2.189,0,4.388,0,6.577a30.31,30.31,0,0,0,.2,4.013,7.175,7.175,0,0,0,5.463,6.4,20.444,20.444,0,0,0,4.171.365c2.2.02,4.417.02,6.606.01a29.335,29.335,0,0,0,3.954-.187A7.177,7.177,0,0,0,54.278,45.3a22.68,22.68,0,0,0,.237-4.023C54.514,38.153,54.613,35.056,54.406,31.931ZM52.049,39.9c0,1.44.01,2.879-.108,4.319a5.376,5.376,0,0,1-1.647,3.727,5.277,5.277,0,0,1-2.81,1.164,20.723,20.723,0,0,1-3.224.168q-3.343.044-6.715,0a21.635,21.635,0,0,1-3.481-.207A4.732,4.732,0,0,1,29.943,44.7a29.234,29.234,0,0,1-.158-3.234c-.02-2.2-.02-4.447,0-6.666A21.219,21.219,0,0,1,30,31.27a4.727,4.727,0,0,1,4.338-4.082c1.075-.128,2.159-.128,3.224-.168,1.114-.03,2.238,0,3.362,0,2.011,0,4.033-.049,6.034.1a4.914,4.914,0,0,1,4.96,4.92C52.1,34.652,52.059,37.285,52.049,39.9Z" transform="translate(-27.301 -24.545)" fill="#9c98b1" fill-rule="evenodd"/>
  <path id="Path_30598" data-name="Path 30598" d="M30.909,28.3a1.637,1.637,0,1,1,1.617-1.666A1.623,1.623,0,0,1,30.909,28.3Z" transform="translate(-10.016 -20.309)" fill="#9c98b1" fill-rule="evenodd"/>
  <path id="Path_30599" data-name="Path 30599" d="M35.012,25.215a6.991,6.991,0,1,0,6.961,7A7.015,7.015,0,0,0,35.012,25.215Zm-.069,11.527a4.526,4.526,0,1,1,4.546-4.526A4.513,4.513,0,0,1,34.943,36.742Z" transform="translate(-21.357 -18.608)" fill="#9c98b1" fill-rule="evenodd"/>
</svg>
