<svg xmlns="http://www.w3.org/2000/svg" xmlns:xlink="http://www.w3.org/1999/xlink" width="31.88" height="31.862" viewBox="0 0 31.88 31.862">
  <defs>
    <linearGradient id="linear-gradient" x1="0.5" y1="-1.644" x2="0.5" y2="1" gradientUnits="objectBoundingBox">
      <stop offset="0" stop-color="#89f995"/>
      <stop offset="1" stop-color="#32c8d9"/>
    </linearGradient>
  </defs>
  <g id="lV59rP" transform="translate(-5597.054 -893.555)">
    <g id="Group_43027" data-name="Group 43027" transform="translate(5597.054 893.555)">
      <path id="Path_25571" data-name="Path 25571" d="M5612.568,893.568a15.926,15.926,0,1,1-15.5,16.352A15.936,15.936,0,0,1,5612.568,893.568Zm.457,16.584c-1.566,0-3.132.022-4.7-.012-.52-.011-.64.15-.624.648a35.7,35.7,0,0,0,.607,4.788c.108.639.354.851,1.038.777a39.078,39.078,0,0,1,7.64-.037c.344.03.511-.024.593-.407a29.434,29.434,0,0,0,.7-5.208c.017-.464-.134-.564-.565-.557C5616.154,910.166,5614.588,910.152,5613.025,910.152Zm-.068-1.311c1.588,0,3.178-.014,4.765.009.433.006.578-.092.564-.556a35.39,35.39,0,0,0-.49-4.295c-.08-.529-.29-.706-.836-.657a40.785,40.785,0,0,1-8.214-.077c-.324-.037-.406.094-.462.381a28.228,28.228,0,0,0-.58,4.643c-.013.459.121.568.56.561C5609.827,908.826,5611.391,908.841,5612.957,908.841Zm-10.586,1.305c-1.158,0-2.314.018-3.471-.009-.431-.01-.512.132-.479.54a14.783,14.783,0,0,0,2.287,6.764.651.651,0,0,0,.882.313,30.892,30.892,0,0,1,5-1.086c.555-.073.612-.272.5-.741a25.044,25.044,0,0,1-.675-5.216c-.007-.435-.121-.587-.572-.575C5604.684,910.167,5603.528,910.147,5602.371,910.147Zm21.247,0c-1.155,0-2.31.019-3.464-.01-.446-.011-.57.13-.576.57a25.093,25.093,0,0,1-.672,5.207c-.1.418-.026.582.438.644a34.569,34.569,0,0,1,5.284,1.08.536.536,0,0,0,.707-.276,14.834,14.834,0,0,0,2.235-6.7c.033-.422-.075-.537-.49-.528C5625.926,910.163,5624.772,910.147,5623.618,910.147Zm-21.283-1.305c1.178,0,2.355-.015,3.534.008.406.008.535-.119.541-.528a23.351,23.351,0,0,1,.556-4.641c.094-.43.015-.647-.474-.713a32.314,32.314,0,0,1-5.4-1.214.488.488,0,0,0-.681.276,14.666,14.666,0,0,0-2,6.326c-.027.383.065.5.454.493C5600.025,908.827,5601.18,908.841,5602.334,908.841Zm21.29,0c1.154,0,2.309-.018,3.462.009.428.01.514-.127.482-.535a15.053,15.053,0,0,0-1.857-6.074.573.573,0,0,0-.8-.307,33.546,33.546,0,0,1-5.416,1.127c-.47.059-.545.251-.457.66a23.725,23.725,0,0,1,.547,4.642c.006.385.146.49.511.484C5621.269,908.83,5622.446,908.841,5623.625,908.841Zm-10.368-6.655c1.326.005,2.432-.023,3.536-.125.436-.04.521-.14.395-.559a43.808,43.808,0,0,0-1.5-4.274c-1.063-2.558-1.212-2.646-3.962-2.3a.7.7,0,0,0-.642.457,46.2,46.2,0,0,0-2.252,5.988c-.149.515-.014.633.46.655C5610.689,902.089,5612.079,902.249,5613.256,902.186Zm-4.369,15.511a31.882,31.882,0,0,0,1.423,4.094c1.042,2.517,1.184,2.6,3.906,2.266a.424.424,0,0,1,.073-.006.565.565,0,0,0,.593-.409,48.412,48.412,0,0,0,2.117-5.5c.126-.419.063-.565-.366-.584A45.3,45.3,0,0,0,5608.887,917.7Zm7.279-22.485a38.778,38.778,0,0,1,2.385,6.34c.08.282.205.33.46.293a38.023,38.023,0,0,0,5.645-1.174A14.844,14.844,0,0,0,5616.167,895.212Zm-14.708,5.3a45.268,45.268,0,0,0,5.291,1.218c.479.089.687-.058.8-.516a30.416,30.416,0,0,1,1.581-4.474c.2-.471.4-.943.658-1.533A14.879,14.879,0,0,0,5601.458,900.513Zm14.727,23.262a14.833,14.833,0,0,0,8.042-4.912,39.148,39.148,0,0,0-4.751-1c-.99-.162-1-.178-1.288.782A41.616,41.616,0,0,1,5616.185,923.775ZM5601.9,919.01a14.74,14.74,0,0,0,7.9,4.759,40.107,40.107,0,0,1-2.158-5.613c-.058-.195-.14-.346-.4-.3A39.143,39.143,0,0,0,5601.9,919.01Z" transform="translate(-5597.054 -893.555)" fill="url(#linear-gradient)"/>
    </g>
  </g>
</svg>
