<svg id="placeholder_1_" data-name="placeholder (1)" xmlns="http://www.w3.org/2000/svg" xmlns:xlink="http://www.w3.org/1999/xlink" width="8.62" height="10.746" viewBox="0 0 8.62 10.746">
  <defs>
    <linearGradient id="linear-gradient" x1="0.5" x2="0.5" y2="1" gradientUnits="objectBoundingBox">
      <stop offset="0" stop-color="#89f995"/>
      <stop offset="1" stop-color="#32c8d9"/>
    </linearGradient>
  </defs>
  <g id="Group_331" data-name="Group 331" transform="translate(0)">
    <path id="Path_361" data-name="Path 361" d="M51.512,0A4.313,4.313,0,0,1,55.82,4.308a4.24,4.24,0,0,1-.077.809c0,.016-.011.063-.029.144a4.243,4.243,0,0,1-.288.849A12.075,12.075,0,0,1,51.7,10.679a.305.305,0,0,1-.383,0A12.1,12.1,0,0,1,47.594,6.11a4.2,4.2,0,0,1-.288-.849c-.018-.081-.027-.128-.029-.144a4.43,4.43,0,0,1-.077-.809A4.32,4.32,0,0,1,51.512,0ZM47.88,5.011s0,.009,0,.014.009.045.02.1v0a3.576,3.576,0,0,0,.25.734s0,.007,0,.009a11.269,11.269,0,0,0,3.355,4.181,11.269,11.269,0,0,0,3.355-4.181s0-.007,0-.009a3.815,3.815,0,0,0,.25-.734v0c.014-.052.018-.086.02-.1s0-.009,0-.016a3.7,3.7,0,1,0-7.263,0Z" transform="translate(-47.2)" fill="url(#linear-gradient)"/>
    <path id="Path_362" data-name="Path 362" d="M119.735,71.9A2.735,2.735,0,1,1,117,74.635,2.739,2.739,0,0,1,119.735,71.9Zm0,4.862a2.127,2.127,0,1,0-2.127-2.127A2.129,2.129,0,0,0,119.735,76.762Z" transform="translate(-115.423 -70.28)" fill="url(#linear-gradient)"/>
  </g>
</svg>
