<svg xmlns="http://www.w3.org/2000/svg" xmlns:xlink="http://www.w3.org/1999/xlink" width="12.181" height="14.729" viewBox="0 0 12.181 14.729">
  <defs>
    <linearGradient id="linear-gradient" x1="0.5" x2="0.5" y2="1" gradientUnits="objectBoundingBox">
      <stop offset="0" stop-color="#89f995"/>
      <stop offset="1" stop-color="#32c8d9"/>
    </linearGradient>
  </defs>
  <g id="AnvwCB" transform="translate(2123.468 -217.43)">
    <g id="Group_46175" data-name="Group 46175" transform="translate(-2123.468 217.43)">
      <path id="Path_27694" data-name="Path 27694" d="M-2117.384,232.158q-2.233,0-4.466,0a1.6,1.6,0,0,1-1.58-1.267,1.6,1.6,0,0,1-.037-.356q0-3.014,0-6.028a1.6,1.6,0,0,1,1.366-1.615,4.568,4.568,0,0,1,.709-.019c.168,0,.168,0,.168-.168,0-.468,0-.937,0-1.405a3.849,3.849,0,0,1,2.671-3.685,3.85,3.85,0,0,1,5,3.21,4.894,4.894,0,0,1,.025.577c0,.461,0,.921,0,1.382,0,.074.022.09.092.091a5.688,5.688,0,0,1,.834.025,1.6,1.6,0,0,1,1.308,1.422c.027.371.01.744.011,1.116,0,1.694,0,3.389,0,5.083a1.565,1.565,0,0,1-.929,1.489,1.477,1.477,0,0,1-.665.149h-4.5Zm.012-.64h4.443a.956.956,0,0,0,1-.991q0-3.006,0-6.012a1.263,1.263,0,0,0-.219-.721.92.92,0,0,0-.853-.464c-.2.011-.406,0-.609,0h-8.23a.74.74,0,0,0-.447.139,1.215,1.215,0,0,0-.532.995c-.011.51,0,1.02,0,1.53q0,2.276,0,4.552a.955.955,0,0,0,.97.971Q-2119.613,231.52-2117.372,231.518Zm-.012-8.646h.079q1.522,0,3.044,0c.066,0,.088-.014.087-.085,0-.5,0-1,0-1.5a3.157,3.157,0,0,0-.159-1.013,3.2,3.2,0,0,0-4.8-1.676,3.07,3.07,0,0,0-1.44,2.516c-.03.566-.006,1.134-.009,1.7,0,.056.028.055.068.055Z" transform="translate(2123.468 -217.43)" fill="url(#linear-gradient)"/>
      <path id="Path_27695" data-name="Path 27695" d="M-1795.058,752.612c0-.068,0-.136,0-.2a.579.579,0,0,0-.138-.444.92.92,0,0,1-.021-1.088.961.961,0,0,1,1.016-.4.96.96,0,0,1,.736.816.932.932,0,0,1-.263.786.171.171,0,0,0-.05.131c0,.268.005.536,0,.8a.638.638,0,0,1-.672.639.638.638,0,0,1-.607-.618c-.005-.14,0-.281,0-.422Z" transform="translate(1800.506 -742.125)" fill="url(#linear-gradient)"/>
    </g>
  </g>
</svg>
