<svg id="Group_6637" data-name="Group 6637" xmlns="http://www.w3.org/2000/svg" width="17.039" height="14" viewBox="0 0 17.039 14">
  <path id="Path_8885" data-name="Path 8885" d="M2975.7,1271.113a6.994,6.994,0,0,1-.89-13.935,6.74,6.74,0,0,1,5.353,1.566c.5.411.587.837.281,1.237s-.794.4-1.307,0a5.385,5.385,0,1,0-.2,8.43c.107-.081.206-.172.313-.252a.811.811,0,0,1,1.176.065.788.788,0,0,1-.151,1.167A6.915,6.915,0,0,1,2975.7,1271.113Z" transform="translate(-2968.684 -1257.113)" fill="red"/>
  <path id="Path_8886" data-name="Path 8886" d="M3052.4,1306.684h-6.6c-.9,0-1.266-.229-1.278-.8s.348-.814,1.24-.814h6.808c-.378-.392-.672-.694-.963-1a.844.844,0,0,1-.087-1.262c.356-.334.788-.3,1.216.117q1.148,1.126,2.274,2.273a.809.809,0,0,1-.015,1.337q-1.125,1.148-2.271,2.275a.809.809,0,1,1-1.142-1.125c.289-.3.6-.568.908-.85Z" transform="translate(-3038.323 -1298.866)" fill="red"/>
</svg>
