<svg xmlns="http://www.w3.org/2000/svg" xmlns:xlink="http://www.w3.org/1999/xlink" width="20.144" height="20.131" viewBox="0 0 20.144 20.131">
  <defs>
    <linearGradient id="linear-gradient" x1="0.5" y1="-0.07" x2="0.5" y2="1" gradientUnits="objectBoundingBox">
      <stop offset="0" stop-color="#89f995"/>
      <stop offset="1" stop-color="#32c8d9"/>
    </linearGradient>
  </defs>
  <g id="Group_7029" data-name="Group 7029" transform="translate(149.789 -227.777)">
    <path id="Path_10237" data-name="Path 10237" d="M-142.178,227.777c4.74,0,8.181,2.906,8.821,6.941a8.058,8.058,0,0,1-1.808,6.613c-.143.175-.176.285.02.416a.476.476,0,0,1,.087.086.651.651,0,0,0,.718.3.962.962,0,0,1,.9.332q1.726,1.727,3.452,3.454a1.176,1.176,0,0,1,.007,1.65,1.178,1.178,0,0,1-1.667-.006q-1.722-1.714-3.437-3.435a1.122,1.122,0,0,1-.321-1.117.252.252,0,0,0-.083-.279c-.174-.159-.32-.427-.513-.463s-.352.244-.532.381a8.305,8.305,0,0,1-10.667-.6,8.268,8.268,0,0,1-.188-11.838A7.776,7.776,0,0,1-142.178,227.777Zm7.52,8.283a6.858,6.858,0,0,0-6.794-6.882,6.862,6.862,0,0,0-6.924,6.8,6.858,6.858,0,0,0,6.785,6.915A6.852,6.852,0,0,0-134.657,236.06Z" transform="translate(0 0)" fill="url(#linear-gradient)"/>
    <path id="Path_10238" data-name="Path 10238" d="M-99.486,283.918a6.365,6.365,0,0,1,6.514-6.525A11.338,11.338,0,0,0-99.486,283.918Z" transform="translate(-47.835 -47.186)" fill="url(#linear-gradient)"/>
  </g>
</svg>
