<svg xmlns="http://www.w3.org/2000/svg" xmlns:xlink="http://www.w3.org/1999/xlink" width="61" height="39" viewBox="0 0 61 39">
  <defs>
    <linearGradient id="linear-gradient" x1="0.5" y1="-0.581" x2="0.5" y2="1" gradientUnits="objectBoundingBox">
      <stop offset="0" stop-color="#89f995"/>
      <stop offset="1" stop-color="#32c8d9"/>
    </linearGradient>
  </defs>
  <g id="Group_47216" data-name="Group 47216" transform="translate(-3705 -8041)">
    <rect id="Rectangle_15410" data-name="Rectangle 15410" width="61" height="39" rx="19.5" transform="translate(3705 8041)" fill="url(#linear-gradient)"/>
    <path id="Path_24972" data-name="Path 24972" d="M-4481.985,1263.986h-8.246c-.384,0-.43-.044-.43-.424q0-5.391,0-10.782c0-.224-.041-.329-.291-.378a2.3,2.3,0,0,1-1.795-1.926,7.555,7.555,0,0,1-.026-.981.418.418,0,0,1,.128-.275q1.27-1.544,2.54-3.092a.409.409,0,0,1,.35-.162q7.765,0,15.532,0a.434.434,0,0,1,.367.179q1.258,1.54,2.524,3.073a.377.377,0,0,1,.12.2,2.784,2.784,0,0,1-.66,2.339,2.163,2.163,0,0,1-1.178.647c-.209.036-.266.118-.266.326q.011,5.367.005,10.733c0,.506-.013.518-.531.518l-5.944.012q-1.1,0-2.2,0Zm8.2-6.014c0-1.749,0-3.5,0-5.246,0-.182-.038-.261-.232-.3a2.2,2.2,0,0,1-1.508-1.049c-.125-.2-.169-.144-.272.011a2.324,2.324,0,0,1-3.951-.015c-.11-.168-.146-.171-.259,0a2.32,2.32,0,0,1-3.961,0c-.121-.184-.157-.147-.259.008a2.324,2.324,0,0,1-3.951.008c-.111-.17-.155-.191-.272,0a2.214,2.214,0,0,1-1.464,1.034c-.214.045-.274.123-.274.342q.01,5.223,0,10.445c0,.234.046.313.3.312q4.566-.014,9.132,0c.256,0,.3-.084.3-.314-.008-2.108-.005-4.216,0-6.325a2.062,2.062,0,0,1,2.01-2.108c.3-.013.607-.015.91,0a2.049,2.049,0,0,1,1.677.965,2.5,2.5,0,0,1,.331,1.447c-.006,2.02,0,4.04-.007,6.061,0,.208.054.279.267.27.4-.017.8-.018,1.2,0,.231.01.294-.064.294-.294C-4473.791,1261.469-4473.787,1259.72-4473.787,1257.972Zm-6.2,2.036c0,1.085,0,2.17,0,3.255,0,.147.015.237.2.236q1.783-.011,3.567,0c.161,0,.2-.06.2-.211,0-2.138,0-4.277-.007-6.415a1.573,1.573,0,0,0-1.267-1.588,4.313,4.313,0,0,0-.931-.042,1.606,1.606,0,0,0-1.763,1.749Q-4479.984,1258.5-4479.982,1260.007Zm-2-13.559c-.551,0-1.1.005-1.653,0-.168,0-.221.054-.219.22q.011,1.173,0,2.346c0,.158.054.207.208.206q1.664-.007,3.33,0c.155,0,.208-.05.206-.207q-.008-1.173,0-2.347c0-.168-.054-.222-.22-.219C-4480.883,1246.453-4481.434,1246.448-4481.984,1246.448Zm4.155,2.767c.534,0,1.069,0,1.6,0,.16,0,.219-.028.151-.2q-.461-1.194-.9-2.394a.237.237,0,0,0-.266-.176c-.725.006-1.452.007-2.177,0-.17,0-.219.057-.218.222q.011,1.16,0,2.32c0,.178.051.236.23.232C-4478.881,1249.208-4478.356,1249.215-4477.829,1249.215Zm-8.354,0c.528,0,1.054,0,1.581,0,.158,0,.206-.053.2-.207q-.009-1.173,0-2.347c0-.165-.048-.222-.218-.22-.694.008-1.389.01-2.083,0a.277.277,0,0,0-.309.221q-.423,1.158-.871,2.308c-.071.183-.059.252.162.246C-4487.205,1249.206-4486.694,1249.215-4486.184,1249.215Zm-4.043,0c.518,0,1.037,0,1.556,0a.237.237,0,0,0,.263-.18q.44-1.189.895-2.373c.066-.171.035-.222-.151-.22-.639.008-1.276.006-1.915,0a.332.332,0,0,0-.283.139c-.666.815-1.337,1.627-2,2.441-.037.045-.113.086-.071.158.032.054.1.029.155.03C-4491.264,1249.216-4490.746,1249.215-4490.227,1249.215Zm16.458,0c.535,0,1.069,0,1.6,0,.052,0,.126.024.142-.047.008-.034-.034-.086-.062-.121q-1.016-1.239-2.036-2.478a.309.309,0,0,0-.267-.122c-.646,0-1.293,0-1.939,0-.157,0-.2.039-.138.194q.46,1.2.9,2.4a.251.251,0,0,0,.287.182C-4474.773,1249.211-4474.271,1249.215-4473.769,1249.215Zm-16.644.48h-1.675c-.1,0-.183-.012-.206.132a1.938,1.938,0,0,0,1.3,2.08,1.9,1.9,0,0,0,2.436-2.082c-.013-.148-.112-.13-.207-.13Zm4.207,0h-1.651c-.1,0-.2-.016-.218.145a1.938,1.938,0,0,0,1.271,2.057,1.905,1.905,0,0,0,2.472-2.06c-.021-.16-.12-.141-.221-.141C-4485.1,1249.693-4485.654,1249.694-4486.205,1249.694Zm4.216,0c-.552,0-1.1,0-1.653,0-.091,0-.187-.023-.213.124a1.943,1.943,0,0,0,1.23,2.063,1.9,1.9,0,0,0,2.512-2.049c-.015-.164-.125-.137-.224-.137C-4480.889,1249.693-4481.439,1249.694-4481.989,1249.694Zm6.093.4c0-.464.033-.4-.393-.4-1,0-2,0-2.993,0-.357,0-.357,0-.354.367v.024a1.868,1.868,0,0,0,1.862,1.907A1.879,1.879,0,0,0-4475.9,1250.094Zm2.363-.4c-.559,0-1.118,0-1.675,0-.094,0-.186-.017-.209.128a1.931,1.931,0,0,0,1.58,2.149,1.9,1.9,0,0,0,2.166-2.048c-.01-.174-.053-.236-.233-.233C-4472.447,1249.7-4472.99,1249.694-4473.533,1249.694Z" transform="translate(8217.772 6805.936)" fill="#fff"/>
    <path id="Path_24973" data-name="Path 24973" d="M-4396.138,1437.174v2.755c0,.342-.048.391-.387.391h-5.537c-.326,0-.391-.065-.391-.4q0-2.755,0-5.51c0-.339.068-.407.407-.407q2.758,0,5.514,0c.343,0,.394.056.4.41Zm-3.161-2.686c-.814,0-1.629,0-2.442,0-.169,0-.238.035-.237.223q.012,2.454,0,4.907c0,.177.05.233.23.232q2.454-.01,4.908,0c.187,0,.226-.065.226-.236q-.009-2.442,0-4.883c0-.188-.053-.246-.242-.244C-4397.671,1434.493-4398.484,1434.487-4399.3,1434.487Z" transform="translate(8131.793 6626.929)" fill="#fff"/>
  </g>
</svg>
