<svg xmlns="http://www.w3.org/2000/svg" xmlns:xlink="http://www.w3.org/1999/xlink" width="18.727" height="21.599" viewBox="0 0 18.727 21.599">
  <defs>
    <linearGradient id="linear-gradient" x1="0.537" y1="-0.759" x2="0.5" y2="1" gradientUnits="objectBoundingBox">
      <stop offset="0" stop-color="#89f995"/>
      <stop offset="1" stop-color="#32c8d9"/>
    </linearGradient>
  </defs>
  <g id="Group_46704" data-name="Group 46704" transform="translate(-539.802 -1091.766)">
    <path id="Path_25382" data-name="Path 25382" d="M555.309,1091.766a4.25,4.25,0,0,1,2.4,1.237c.338.291.55.381.916.041a1.141,1.141,0,0,1,1.207-.154q3.022,1.037,6.053,2.05a1.555,1.555,0,0,1,.991.96c1.586,3.869,3.193,7.729,4.781,11.6.442,1.075.2,1.653-.858,2.092q-4.315,1.794-8.637,3.569c-1.065.438-1.617.2-2.068-.885-1.583-3.812-3.154-7.63-4.745-11.439a1.893,1.893,0,0,1,.082-1.753c.5-.938.938-1.913,1.432-2.858.186-.356.144-.542-.214-.753a5.757,5.757,0,0,1-2.261-1.979A1.071,1.071,0,0,1,555.309,1091.766Zm5.2,6.539a1.456,1.456,0,0,1-1.273-.7,1.3,1.3,0,0,1,.052-1.572c.322-.387.236-.635-.073-.93a4.352,4.352,0,0,1-.47-.544c-.277-.372-.446-.341-.651.086q-1.158,2.412-2.369,4.8a1.263,1.263,0,0,0-.02,1.142q2.4,5.79,4.788,11.585c.334.807.691.942,1.51.6q4.318-1.778,8.631-3.569c.848-.353.989-.7.634-1.559-1.572-3.814-3.156-7.623-4.721-11.44a1.491,1.491,0,0,0-1-.937c-1.9-.618-3.784-1.27-5.671-1.918a1.145,1.145,0,0,0-.928-.027c-.177.09-.389.2-.3.488a4.1,4.1,0,0,0,1.933,1.557,1.457,1.457,0,0,1,1.345,1.588A1.434,1.434,0,0,1,560.511,1098.305Zm-5.114-6.136a.688.688,0,0,0-.689.3.721.721,0,0,0,.054.823,5.37,5.37,0,0,0,1.949,1.722c.187.113.465.484.653.113.224-.443.832-.955.476-1.4A4.6,4.6,0,0,0,555.4,1092.169Zm4.8,3.752c-.3.083-.151.014-.46.234a.786.786,0,0,0-.274.711.991.991,0,0,0,.768.988.966.966,0,0,0,1.149-.488.949.949,0,0,0-.137-1.235.724.724,0,0,0-.694-.3A1.837,1.837,0,0,0,560.193,1095.921Z" transform="translate(-13.339)" fill="url(#linear-gradient)"/>
    <path id="Path_25383" data-name="Path 25383" d="M542.5,1168.935c.859-.075,1.629-.147,2.4-.206.168-.013.437-.131.469.129.043.347-.29.229-.466.251-.846.1-1.694.2-2.544.265a1.217,1.217,0,0,1-1.449-1.23c-.288-2.971-.557-5.943-.833-8.915-.082-.876-.152-1.753-.253-2.626a1.3,1.3,0,0,1,.208-1.065c.672-.757,1.377-1.485,2.072-2.222.09-.1.212-.2.341-.1.185.15.037.289-.066.4-.543.587-1.067,1.2-1.649,1.742a1.561,1.561,0,0,0-.479,1.436c.368,3.686.717,7.373,1.069,11.061C541.413,1168.818,541.6,1168.982,542.5,1168.935Z" transform="translate(0 -56.938)" fill="url(#linear-gradient)"/>
    <path id="Path_25384" data-name="Path 25384" d="M663.544,1213.888c-.049.133-.092.259-.143.382-.907,2.189-1.811,4.379-2.73,6.562-.08.191-.1.588-.414.469-.349-.132-.05-.424.024-.605q1.341-3.291,2.721-6.565c.074-.177.086-.447.373-.454C663.5,1213.672,663.539,1213.781,663.544,1213.888Z" transform="translate(-111.532 -113.034)" fill="url(#linear-gradient)"/>
    <path id="Path_25385" data-name="Path 25385" d="M630.318,1233a1.257,1.257,0,0,1,1.257,1.349,1.272,1.272,0,0,1-1.375,1.236,1.254,1.254,0,0,1-1.213-1.314A1.24,1.24,0,0,1,630.318,1233Zm-.034,2.165a.824.824,0,0,0,.86-.845.805.805,0,0,0-.814-.9.82.82,0,0,0-.923.881A.836.836,0,0,0,630.283,1235.162Z" transform="translate(-82.693 -130.95)" fill="url(#linear-gradient)"/>
    <path id="Path_25386" data-name="Path 25386" d="M704.8,1263.857a1.294,1.294,0,1,1-.012,2.587,1.294,1.294,0,0,1,.012-2.587Zm.886,1.309a.878.878,0,0,0-1.756-.022.806.806,0,0,0,.828.878A.833.833,0,0,0,705.684,1265.166Z" transform="translate(-151.8 -159.563)" fill="url(#linear-gradient)"/>
  </g>
</svg>
