<svg xmlns="http://www.w3.org/2000/svg" xmlns:xlink="http://www.w3.org/1999/xlink" width="21.51" height="22.329" viewBox="0 0 21.51 22.329">
  <defs>
    <linearGradient id="linear-gradient" x1="0.5" y1="-0.113" x2="0.5" y2="1" gradientUnits="objectBoundingBox">
      <stop offset="0" stop-color="#89f995"/>
      <stop offset="1" stop-color="#32c8d9"/>
    </linearGradient>
  </defs>
  <path id="Path_8391" data-name="Path 8391" d="M-227.088,373.766c-1.834,0-3.669,0-5.5,0a4.585,4.585,0,0,1-1.705-.239,2.3,2.3,0,0,1-1.6-2.312c-.01-2.391-.019-4.781.009-7.172.006-.535-.153-.736-.677-.661a1.992,1.992,0,0,1-.527,0c-.817-.1-1.114-.775-.576-1.393.872-1,1.791-1.955,2.686-2.934q3.168-3.463,6.334-6.928c.952-1.037,2.422-.879,3.59.4,1.555,1.7,3.026,3.489,4.652,5.121,1.218,1.223,2.22,2.641,3.537,3.767a1.052,1.052,0,0,1,.395,1.144.992.992,0,0,1-.949.737c-.666.04-.748.381-.74.961.033,2.29.016,4.58.012,6.87a2.271,2.271,0,0,1-1.873,2.457,5.349,5.349,0,0,1-1.488.19Q-224.3,373.765-227.088,373.766Zm.033-.6c1.307,0,2.614.007,3.921,0a20.439,20.439,0,0,0,2.483-.074c1.443-.188,1.9-.768,1.9-2.2,0-2.417.019-4.833-.013-7.249-.008-.629.114-.967.819-.867a.639.639,0,0,0,.7-.333c.159-.324-.112-.516-.289-.711-.875-.963-1.739-1.935-2.628-2.886-1.878-2.012-3.736-4.045-5.6-6.072a1.6,1.6,0,0,0-2.673.038c-2.412,2.615-4.79,5.261-7.182,7.894-.3.332-.616.648-.946.954-.287.266-.827.558-.657.981.136.336.695.164,1.047.128.725-.075.883.226.873.9-.035,2.491-.018,4.984-.012,7.476a1.809,1.809,0,0,0,1.692,1.945,8.955,8.955,0,0,0,1.2.077C-230.624,373.166-228.84,373.162-227.055,373.162Z" transform="translate(237.937 -351.439)" fill="url(#linear-gradient)"/>
</svg>
