<svg xmlns="http://www.w3.org/2000/svg" xmlns:xlink="http://www.w3.org/1999/xlink" width="18.813" height="16.562" viewBox="0 0 18.813 16.562">
  <defs>
    <linearGradient id="linear-gradient" x1="0.5" y1="-0.554" x2="0.5" y2="1" gradientUnits="objectBoundingBox">
      <stop offset="0" stop-color="#89f995"/>
      <stop offset="1" stop-color="#32c8d9"/>
    </linearGradient>
  </defs>
  <path id="Path_28037" data-name="Path 28037" d="M1507.605,254.183a5.03,5.03,0,0,1,3.756,1.753c.276.3.437.289.707,0a5.184,5.184,0,0,1,7.85,6.769c-.446.529-.957,1-1.447,1.5q-3.1,3.113-6.213,6.22c-.435.435-.633.438-1.059.013-2.454-2.453-4.924-4.892-7.358-7.365a5.2,5.2,0,0,1,2.377-8.73A5.579,5.579,0,0,1,1507.605,254.183Zm-.333.983a4.21,4.21,0,0,0-2.869,7.048c2.345,2.4,4.735,4.753,7.1,7.131.172.173.27.158.43-.008.546-.563,1.106-1.111,1.66-1.666,1.815-1.82,3.66-3.611,5.436-5.469a4.147,4.147,0,0,0-.093-5.756,4.191,4.191,0,0,0-5.788-.19c-.355.316-.678.667-1.022.995a.508.508,0,0,1-.832-.008c-.276-.269-.541-.549-.817-.819A4.36,4.36,0,0,0,1507.272,255.166Z" transform="translate(-1502.305 -254.183)" opacity="0.996" fill="url(#linear-gradient)"/>
</svg>
