<svg xmlns="http://www.w3.org/2000/svg" xmlns:xlink="http://www.w3.org/1999/xlink" width="20.544" height="20.547" viewBox="0 0 20.544 20.547">
  <defs>
    <linearGradient id="linear-gradient" x1="0.5" y1="-0.627" x2="0.5" y2="1" gradientUnits="objectBoundingBox">
      <stop offset="0" stop-color="#89f995"/>
      <stop offset="1" stop-color="#32c8d9"/>
    </linearGradient>
  </defs>
  <g id="Group_47217" data-name="Group 47217" transform="translate(-110.9 -200.901)">
    <path id="Path_22880" data-name="Path 22880" d="M130.4,206.014a.519.519,0,0,1-.143.3c-.422.561-.84,1.124-1.269,1.679a.283.283,0,0,0-.032.371,6.667,6.667,0,0,1,.673,1.594.283.283,0,0,0,.28.245c.688.077,1.374.174,2.061.265.354.047.436.138.437.492q0,1.158.006,2.316c0,.35-.072.435-.409.487-.693.107-1.385.221-2.08.316a.288.288,0,0,0-.278.25,6.811,6.811,0,0,1-.654,1.574.266.266,0,0,0,.025.349c.428.545.845,1.1,1.264,1.65.222.291.216.4-.035.655q-.824.833-1.65,1.663c-.234.234-.351.243-.616.049-.566-.415-1.132-.829-1.691-1.253a.283.283,0,0,0-.369-.035,6.4,6.4,0,0,1-1.573.654.3.3,0,0,0-.26.3c-.079.7-.176,1.392-.268,2.087-.038.289-.142.385-.428.387q-1.211.007-2.421.006c-.31,0-.4-.089-.45-.424-.106-.693-.218-1.386-.313-2.08a.269.269,0,0,0-.239-.256,6.642,6.642,0,0,1-1.551-.64.3.3,0,0,0-.395.025c-.546.426-1.1.839-1.657,1.255-.276.207-.388.2-.634-.046q-.814-.8-1.626-1.612c-.285-.283-.293-.378-.062-.7.4-.553.8-1.109,1.211-1.657a.289.289,0,0,0,.033-.373,6.567,6.567,0,0,1-.671-1.623.262.262,0,0,0-.268-.222c-.671-.073-1.34-.162-2.011-.24-.377-.044-.46-.126-.462-.493q0-1.158-.006-2.316c0-.356.074-.44.434-.494.693-.105,1.386-.213,2.081-.312.127-.018.2-.054.238-.191a6.889,6.889,0,0,1,.712-1.691.225.225,0,0,0-.038-.3q-.654-.825-1.3-1.657c-.216-.278-.212-.393.027-.635q.833-.842,1.67-1.68c.233-.233.349-.239.615-.038.567.428,1.135.855,1.695,1.292a.267.267,0,0,0,.349.029,6.847,6.847,0,0,1,1.622-.674.267.267,0,0,0,.225-.269c.082-.714.176-1.427.268-2.14.037-.29.139-.383.428-.384q1.2-.005,2.4,0c.336,0,.425.082.475.425.1.7.209,1.4.3,2.109a.269.269,0,0,0,.23.264,6.569,6.569,0,0,1,1.576.648.264.264,0,0,0,.345-.024c.553-.432,1.113-.854,1.672-1.279.306-.233.408-.227.674.037l1.661,1.652A.448.448,0,0,1,130.4,206.014Zm-8.248,15.725v0c.263,0,.527-.009.79,0,.172.008.243-.042.264-.226.076-.671.178-1.339.26-2.009a.443.443,0,0,1,.384-.427,6.517,6.517,0,0,0,1.983-.822.461.461,0,0,1,.6.029c.537.409,1.092.8,1.627,1.207.154.119.236.1.363-.033.355-.377.722-.742,1.093-1.1.117-.114.131-.19.024-.325-.418-.53-.817-1.076-1.235-1.607a.456.456,0,0,1-.04-.6,6.431,6.431,0,0,0,.822-1.983.448.448,0,0,1,.429-.383c.677-.1,1.351-.212,2.028-.308.154-.022.208-.075.2-.231q-.015-.8-.007-1.606c0-.152-.043-.213-.2-.232-.671-.078-1.338-.181-2.009-.256a.468.468,0,0,1-.463-.41,6.315,6.315,0,0,0-.834-1.978.455.455,0,0,1,.027-.6c.419-.541.821-1.095,1.24-1.636a.2.2,0,0,0-.024-.323q-.571-.545-1.119-1.114c-.116-.121-.193-.125-.325-.021-.545.427-1.1.838-1.65,1.264a.447.447,0,0,1-.574.03,6.6,6.6,0,0,0-1.988-.809.426.426,0,0,1-.364-.415c-.089-.687-.2-1.37-.294-2.057-.022-.164-.072-.224-.242-.22-.535.011-1.071.01-1.606,0-.154,0-.21.045-.229.2-.079.688-.178,1.374-.26,2.062a.429.429,0,0,1-.358.423,6.658,6.658,0,0,0-2.055.851.426.426,0,0,1-.55-.028c-.547-.425-1.106-.835-1.652-1.262-.134-.1-.208-.1-.323.022q-.536.562-1.094,1.1c-.126.121-.139.2-.024.343.425.525.831,1.065,1.253,1.592a.439.439,0,0,1,.037.574,6.689,6.689,0,0,0-.859,2.053.415.415,0,0,1-.4.35c-.669.093-1.334.211-2,.3-.208.027-.256.106-.251.3q.019.75,0,1.5c0,.188.047.256.243.276.663.069,1.322.169,1.985.24a.432.432,0,0,1,.42.387,6.352,6.352,0,0,0,.821,1.983.473.473,0,0,1-.022.619c-.41.537-.8,1.09-1.2,1.63-.093.125-.113.2.016.324.39.367.768.746,1.141,1.13.11.113.182.114.3.019.541-.419,1.094-.822,1.634-1.243a.443.443,0,0,1,.573-.034,6.438,6.438,0,0,0,1.985.818.444.444,0,0,1,.384.427c.093.66.209,1.316.3,1.977.026.2.083.276.289.26C121.66,221.725,121.907,221.739,122.153,221.739Z" transform="translate(-0.971 -0.97)" fill="url(#linear-gradient)"/>
    <path id="Path_22881" data-name="Path 22881" d="M235.975,322.788a3.913,3.913,0,1,1-3.88-3.928A3.913,3.913,0,0,1,235.975,322.788Zm-.643-.008a3.269,3.269,0,1,0-3.278,3.261A3.262,3.262,0,0,0,235.332,322.78Z" transform="translate(-110.889 -111.6)" fill="url(#linear-gradient)"/>
  </g>
</svg>
