<svg xmlns="http://www.w3.org/2000/svg" xmlns:xlink="http://www.w3.org/1999/xlink" width="11.67" height="11.622" viewBox="0 0 11.67 11.622">
  <defs>
    <linearGradient id="linear-gradient" x1="0.5" x2="0.5" y2="1" gradientUnits="objectBoundingBox">
      <stop offset="0" stop-color="#89f995"/>
      <stop offset="1" stop-color="#32c8d9"/>
    </linearGradient>
  </defs>
  <path id="Path_27696" data-name="Path 27696" d="M-1435.613,1590.723a3.853,3.853,0,0,1-1.967-.464,12.471,12.471,0,0,1-6.7-7.12,3.238,3.238,0,0,1,1.2-3.911,2.8,2.8,0,0,1,1.567-.012.57.57,0,0,1,.142.245c.3.791.593,1.586.9,2.372a.491.491,0,0,1-.073.533c-.255.346-.489.708-.734,1.062a.621.621,0,0,0-.062.665,6.909,6.909,0,0,0,3.515,3.507.593.593,0,0,0,.627-.053,4.221,4.221,0,0,0,.618-.422,1.185,1.185,0,0,1,1.524-.214,16.761,16.761,0,0,0,1.786.685.465.465,0,0,1,.374.47c.022.528.2,1.041-.251,1.528a3.234,3.234,0,0,1-2.111,1.127A3.348,3.348,0,0,1-1435.613,1590.723Z" transform="translate(1444.502 -1579.11)" fill="url(#linear-gradient)"/>
</svg>
