<svg id="Group_42791" data-name="Group 42791" xmlns="http://www.w3.org/2000/svg" xmlns:xlink="http://www.w3.org/1999/xlink" width="29.077" height="32.452" viewBox="0 0 29.077 32.452">
  <defs>
    <linearGradient id="linear-gradient" x1="0.5" y1="-1.644" x2="0.5" y2="1" gradientUnits="objectBoundingBox">
      <stop offset="0" stop-color="#89f995"/>
      <stop offset="1" stop-color="#32c8d9"/>
    </linearGradient>
  </defs>
  <path id="Path_9729" data-name="Path 9729" d="M350.562,463.575a13.5,13.5,0,0,1-3.232-2.728,13.668,13.668,0,0,1-3.13-7.374,22.292,22.292,0,0,1-.137-2.309c0-.2.04-.32.26-.362a18.915,18.915,0,0,0,4.758-1.7,3.9,3.9,0,0,1,3.635.057,18.841,18.841,0,0,0,4.874,1.705v1.645a.475.475,0,0,0-.065.285,13.744,13.744,0,0,1-.515,2.893,13.387,13.387,0,0,1-5.925,7.886Zm5.674-11.355c.026-.136,0-.281-.27-.348a17.225,17.225,0,0,1-3.709-1.452,2.948,2.948,0,0,0-2.863.007,15.888,15.888,0,0,1-3.706,1.456c-.218.052-.27.141-.257.356a15.1,15.1,0,0,0,.426,2.877,11.417,11.417,0,0,0,4.547,6.717.594.594,0,0,0,.836-.018A12.657,12.657,0,0,0,356.236,452.219Z" transform="translate(-328.512 -431.123)" fill="url(#linear-gradient)"/>
  <path id="Path_9730" data-name="Path 9730" d="M160.4,230.406a12.182,12.182,0,0,0-1.207-.3c-.2-.027-.125-.218-.126-.339-.005-1.346,0-2.691,0-4.037,0-.685-.017-1.371.008-2.055.012-.324-.1-.388-.4-.387-2.429.011-4.859,0-7.288.015-.371,0-.447-.107-.445-.459.016-2.429,0-4.859.015-7.288,0-.306-.073-.395-.388-.394q-6.373.016-12.745,0c-.3,0-.4.07-.4.388q.013,13.811,0,27.621c0,.346.112.4.424.4,4.971-.009,9.942,0,14.913-.014a.724.724,0,0,1,.682.329c.24.342.527.65.8.98a.622.622,0,0,1-.379.046q-8.671,0-17.343.011c-.361,0-.45-.088-.45-.449q.016-15.1,0-30.2c0-.391.11-.463.476-.462q7.475.019,14.951,0a.874.874,0,0,1,.686.275q3.981,4,7.979,7.985a.71.71,0,0,1,.267.54c-.01,2.5-.006,5.008-.007,7.513C160.417,230.214,160.407,230.3,160.4,230.406Zm-2.453-8.484-5.653-5.655v.247c0,1.681.009,3.362-.008,5.043,0,.327.11.386.406.384,1.656-.013,3.312-.006,4.968-.007C157.77,221.935,157.879,221.926,157.948,221.922Z" transform="translate(-136.065 -213.814)" fill="url(#linear-gradient)"/>
  <path id="Path_9731" data-name="Path 9731" d="M215.069,413.667c-2.118,0-4.235-.006-6.352.007-.3,0-.391-.089-.366-.377.027-.308-.1-.718.06-.9.184-.219.608-.074.926-.074,4.036-.005,8.071,0,12.107-.012.351,0,.432.1.425.434-.019.926,0,.926-.933.926Z" transform="translate(-202.927 -397.436)" fill="url(#linear-gradient)"/>
  <path id="Path_9732" data-name="Path 9732" d="M213.194,522.579c-1.419,0-2.839-.006-4.258.005-.266,0-.368-.056-.368-.348,0-1.012-.01-1.012,1.006-1.012,2.527,0,5.055.007,7.582-.008.317,0,.459.086.464.4a1.651,1.651,0,0,0,.035.259c.124.707.124.707-.615.707Z" transform="translate(-203.148 -498.234)" fill="url(#linear-gradient)"/>
  <path id="Path_9733" data-name="Path 9733" d="M212.983,468.278c-1.357,0-2.713-.006-4.07.005-.26,0-.336-.07-.337-.333,0-1.022-.013-1.022.991-1.022,2.477,0,4.954.005,7.43-.007.3,0,.4.086.365.375-.038.316.138.741-.079.924-.184.156-.593.055-.9.056C215.249,468.28,214.116,468.278,212.983,468.278Z" transform="translate(-203.155 -447.998)" fill="url(#linear-gradient)"/>
</svg>
