<svg xmlns="http://www.w3.org/2000/svg" width="254.886" height="138.066" viewBox="0 0 254.886 138.066">
  <g id="Group_46896" data-name="Group 46896" transform="translate(-376.12 -451.23)">
    <g id="Group_46894" data-name="Group 46894" transform="translate(502.097 451.23)">
      <g id="Group_46893" data-name="Group 46893">
        <path id="Path_32298" data-name="Path 32298" d="M616.022,451.23a48.685,48.685,0,0,0-27.452,8.046,50.719,50.719,0,0,0-14.723,14.333l-.1.156c-5.645,8.792-8.506,20.056-8.506,33.5l.034.529c1.032,8.316,2.315,14.1,3.928,17.662l.035.087c1.352,2.818,2.037,6.85,2.037,11.974a28.961,28.961,0,0,1-8.784,21.5c-6.043,5.983-12.6,8.9-20.038,8.9h-4.335V589.3l4.44-.1c13.517-.33,25.44-5.524,35.437-15.443a51.009,51.009,0,0,0,13.83-26.706,51.6,51.6,0,0,0,24.2,6.087c14.229,0,26.42-4.977,36.227-14.784a51.65,51.65,0,0,0,.009-72.323C642.442,456.207,630.251,451.23,616.022,451.23ZM637.2,523.6a28.988,28.988,0,0,1-21.625,9.026,28.358,28.358,0,0,1-21.14-8.766c-5.853-5.783-8.792-12.356-9.017-20.134l.208-5.021a28.624,28.624,0,0,1,8.732-17.567l.113-.113a27.94,27.94,0,0,1,21.1-8.836,29.984,29.984,0,0,1,30.392,30.382A28.217,28.217,0,0,1,637.2,523.6Z" transform="translate(-538.114 -451.23)" fill="#fff"/>
      </g>
    </g>
    <path id="Path_32299" data-name="Path 32299" d="M402.835,512.273v6.483a12.994,12.994,0,0,1-13.307,13.307h-.1a13.014,13.014,0,0,1-13.307-13.307v-3.666h5.872v3.666a7.111,7.111,0,0,0,7.434,7.434h.1a7.053,7.053,0,0,0,6.79-4.209h-2a7.857,7.857,0,0,1-8.011-8.011v-1.7a7.85,7.85,0,0,1,8.011-7.977h.509A7.85,7.85,0,0,1,402.835,512.273Zm-8.52,3.9h2.715v-3.9a2.058,2.058,0,0,0-2.206-2.173h-.509a2.059,2.059,0,0,0-2.207,2.173v1.7A2.085,2.085,0,0,0,394.315,516.177Z" transform="translate(0 -11.799)" fill="#fff"/>
    <path id="Path_32300" data-name="Path 32300" d="M432.93,523.8H431.5v1.494c0,4.82-5.363,8.86-14.562,5.974V525.9c6.992,1.7,8.758-.2,8.758-2.1v-.068h-3.022a8.189,8.189,0,0,1-7.977-8.283v-1.12a8.1,8.1,0,0,1,8.248-8.283h.34a8.089,8.089,0,0,1,8.214,8.283v3.666h1.426Zm-10.183-5.872H425.7v-3.6a2.283,2.283,0,0,0-2.411-2.478h-.34a2.291,2.291,0,0,0-2.443,2.478v1.12A2.409,2.409,0,0,0,422.747,517.923Z" transform="translate(-8.578 -12.187)" fill="#fff"/>
    <path id="Path_32301" data-name="Path 32301" d="M468.616,518.127v5.8h-1.562a4.787,4.787,0,0,1-3.734-1.595,6.717,6.717,0,0,1-4.684,1.595h-1.392a4.824,4.824,0,0,1-3.768-1.7c-1.019,1.222-2.614,1.7-4.617,1.7h-1.29a4.842,4.842,0,0,1-3.835-1.663c-.984,1.188-2.478,1.663-5.5,1.663h-1.121l-2.512-.916v-3.971l2.512-.917h.747a1.823,1.823,0,0,0,2-2v-5.771h5.7v5.771a1.793,1.793,0,0,0,2,2h.034a1.823,1.823,0,0,0,2-2v-5.771h5.635v5.771a1.823,1.823,0,0,0,2,2h.1a1.833,1.833,0,0,0,2.037-2v-9.471h5.635v9.471a1.818,1.818,0,0,0,2.036,2Z" transform="translate(-13.003 -12.323)" fill="#fff"/>
    <path id="Path_32302" data-name="Path 32302" d="M497.689,518.466v5.8H491.07a6.532,6.532,0,0,1-4.447-1.969,7.283,7.283,0,0,1-5.4,1.969h-3.87l-2.512-.916v-3.938l2.512-.95h3.938c2.206,0,2.376-1.29,2.376-2.716v-3.564l-.033-4.006h5.838v5.16c0,.408,0,.848-.034,1.324v1.086c0,1.425.272,2.716,2.445,2.716Z" transform="translate(-21.95 -12.662)" fill="#fff"/>
    <path id="Path_32303" data-name="Path 32303" d="M524.361,517.981v5.8h-1.12a6.962,6.962,0,0,1-4.549-1.629,8.048,8.048,0,0,1-4.684,1.527,10.077,10.077,0,0,1-5.364-1.527,6.957,6.957,0,0,1-4.549,1.629h-1.121l-2.511-.916V518.9l2.511-.917H504.1a1.054,1.054,0,0,0,1.154-1.154v-2.546A8.118,8.118,0,0,1,513.5,506h.339a8.117,8.117,0,0,1,8.249,8.283v2.546a1.054,1.054,0,0,0,1.155,1.154Zm-8.078-2.579v-1.121a2.308,2.308,0,0,0-2.445-2.478H513.5a2.291,2.291,0,0,0-2.444,2.478v2.41a3.964,3.964,0,0,0,2.954,1.188A2.391,2.391,0,0,0,516.282,515.4Z" transform="translate(-27.646 -12.177)" fill="#fff"/>
    <path id="Path_32304" data-name="Path 32304" d="M538.231,498.491v18.7a4.862,4.862,0,0,1-4.923,4.922h-3.36l-2.512-.916v-3.972l2.512-.917h1.324a1.181,1.181,0,0,0,1.154-1.324v-16.5Z" transform="translate(-33.643 -10.508)" fill="#fff"/>
    <path id="Path_32305" data-name="Path 32305" d="M546.858,522.116V498.491h5.8v23.625Z" transform="translate(-37.962 -10.508)" fill="#fff"/>
    <path id="Path_32306" data-name="Path 32306" d="M411.728,570.394v5.8H401.647V564.351h-1.833a2.059,2.059,0,0,0-2.173,2.207v7.57a10.369,10.369,0,0,1-10.624,10.624h-.272a10.369,10.369,0,0,1-10.624-10.624v-6.28h5.8v6.28a4.561,4.561,0,0,0,4.82,4.82h.272a4.561,4.561,0,0,0,4.82-4.82v-7.57a7.85,7.85,0,0,1,7.977-8.011h7.637v11.847Z" transform="translate(0 -23.861)" fill="#fff"/>
    <path id="Path_32307" data-name="Path 32307" d="M429.938,573.781v5.8h-8.69v-5.8Z" transform="translate(-10.034 -27.248)" fill="#fff"/>
    <path id="Path_32308" data-name="Path 32308" d="M440.238,573.781v5.8h-8.69v-5.8Z" transform="translate(-12.324 -27.248)" fill="#fff"/>
    <path id="Path_32309" data-name="Path 32309" d="M450.537,573.781v5.8h-8.69v-5.8Z" transform="translate(-14.614 -27.248)" fill="#fff"/>
    <path id="Path_32310" data-name="Path 32310" d="M460.837,573.781v5.8h-8.69v-5.8Z" transform="translate(-16.904 -27.248)" fill="#fff"/>
    <path id="Path_32311" data-name="Path 32311" d="M471.138,573.781v5.8h-8.69v-5.8Z" transform="translate(-19.194 -27.248)" fill="#fff"/>
    <path id="Path_32312" data-name="Path 32312" d="M495.83,567.7a6.809,6.809,0,0,1-6.789,6.789H472.2l-2.512-.916V569.6l2.512-.917h16.4c.984,0,1.425-.815,1.425-1.8,0-1.562-1.018-1.765-2.614-1.765H475.123l-.611-2.648,7.061-11.609,4.684,1.866-3.428,6.586h4.582A8.241,8.241,0,0,1,495.83,567.7Z" transform="translate(-20.805 -22.153)" fill="#fff"/>
    <path id="Path_32313" data-name="Path 32313" d="M526.134,570.394v5.8h-17.99v-5.8h8.588v-3.462a2.423,2.423,0,0,0-2.58-2.58h-3.191v-5.8h3.191a8.233,8.233,0,0,1,8.384,8.385v3.462Z" transform="translate(-29.354 -23.861)" fill="#fff"/>
    <path id="Path_32314" data-name="Path 32314" d="M538.315,550.865v18.7a4.861,4.861,0,0,1-4.922,4.922h-3.361l-2.511-.916V569.6l2.511-.917h1.324a1.181,1.181,0,0,0,1.154-1.324v-16.5Z" transform="translate(-33.662 -22.153)" fill="#fff"/>
    <path id="Path_32315" data-name="Path 32315" d="M546.943,574.49V550.865h5.805V574.49Z" transform="translate(-37.98 -22.153)" fill="#fff"/>
    <g id="Group_46895" data-name="Group 46895" transform="translate(382.305 485.266)">
      <circle id="Ellipse_4154" data-name="Ellipse 4154" cx="2.717" cy="2.717" r="2.717" transform="translate(74.607)" fill="#fff"/>
      <circle id="Ellipse_4155" data-name="Ellipse 4155" cx="2.717" cy="2.717" r="2.717" transform="translate(99.419 40.729)" fill="#fff"/>
      <circle id="Ellipse_4156" data-name="Ellipse 4156" cx="2.717" cy="2.717" r="2.717" transform="translate(69.172)" fill="#fff"/>
      <circle id="Ellipse_4157" data-name="Ellipse 4157" cx="2.717" cy="2.717" r="2.717" transform="translate(12.264)" fill="#fff"/>
      <circle id="Ellipse_4158" data-name="Ellipse 4158" cx="2.717" cy="2.717" r="2.717" transform="translate(6.829)" fill="#fff"/>
      <circle id="Ellipse_4159" data-name="Ellipse 4159" cx="2.717" cy="2.717" r="2.717" transform="translate(5.435 78.312)" fill="#fff"/>
      <circle id="Ellipse_4160" data-name="Ellipse 4160" cx="2.717" cy="2.717" r="2.717" transform="translate(0 78.312)" fill="#fff"/>
    </g>
  </g>
</svg>
