<svg xmlns="http://www.w3.org/2000/svg" width="21.144" height="20.157" viewBox="0 0 21.144 20.157">
  <path id="Path_27945" data-name="Path 27945" d="M-5841.438-623.674c-.025-.025-.052-.05-.079-.075a.491.491,0,0,1-.222-.276.945.945,0,0,1-.031-.526c.113-.548.186-1.1.283-1.653.148-.765.259-1.537.4-2.3.1-.531.177-1.066.274-1.6.024-.127.067-.276-.078-.376a.482.482,0,0,1-.071-.059c-.209-.208-.41-.425-.632-.62-.069-.076-.143-.147-.216-.217a6.3,6.3,0,0,0-.592-.572c-.08-.068-.15-.144-.225-.215-.531-.535-1.063-1.067-1.607-1.587a.685.685,0,0,0-.236-.226c-.221-.206-.437-.415-.636-.641a.956.956,0,0,1-.157-.811.937.937,0,0,1,.687-.587c1.093-.149,2.183-.329,3.278-.467a2.532,2.532,0,0,0,.34-.069c.384-.026.764-.094,1.144-.155.321-.053.64-.1.962-.142a.311.311,0,0,0,.287-.217c.132-.25.247-.509.377-.762.116-.216.222-.438.329-.658a2.212,2.212,0,0,0,.161-.34,5.572,5.572,0,0,0,.256-.5c.3-.611.6-1.227.9-1.84.105-.156.14-.354.286-.485a2.058,2.058,0,0,0,.241-.5,1.26,1.26,0,0,1,.378-.4,1.369,1.369,0,0,1,.46-.08.8.8,0,0,1,.71.476c.19.392.391.779.587,1.169.167.132.2.338.29.513.073.172.164.335.248.5.39.8.8,1.581,1.184,2.378.063.153.151.3.213.45.05.1.073.222.2.268.356.074.724.091,1.082.159a2.339,2.339,0,0,0,.471.067c.694.1,1.391.2,2.086.3.66.094,1.318.2,1.982.279a1.189,1.189,0,0,1,.768.354.848.848,0,0,1,.129.909,1.1,1.1,0,0,1-.1.153c-.1.125-.223.23-.332.348-.131.121-.246.257-.385.371a8.843,8.843,0,0,0-.686.659c-.234.23-.465.464-.7.7-.13.121-.247.255-.381.372a5.9,5.9,0,0,0-.565.535c-.223.218-.442.439-.662.661-.146.144-.292.289-.433.438-.21.126-.216.308-.172.528.083.44.162.881.23,1.324.243,1.377.472,2.756.72,4.132a.9.9,0,0,1-.145.746c-.1.059-.168.152-.267.21a.955.955,0,0,1-.694.081,1.955,1.955,0,0,1-.633-.272c-.223-.1-.441-.22-.654-.343a2.629,2.629,0,0,0-.336-.176c-.514-.283-1.038-.547-1.557-.818-.4-.21-.791-.42-1.19-.62a6.521,6.521,0,0,0-.695-.366,2.057,2.057,0,0,0-.3-.164c-.21-.044-.346.113-.51.193-.033.02-.068.038-.1.057-.748.388-1.5.775-2.238,1.177-.084.047-.175.085-.259.132a7.586,7.586,0,0,0-.761.4.426.426,0,0,1-.052.029c-.441.248-.9.453-1.346.7A.854.854,0,0,1-5841.438-623.674Z" transform="translate(5845.792 643.125)" fill="none" stroke="#32c8d9" stroke-width="1"/>
</svg>
