<svg xmlns="http://www.w3.org/2000/svg" width="20.193" height="16.873" viewBox="0 0 20.193 16.873">
  <path id="Path_24972" data-name="Path 24972" d="M-4482.679,1262.827h-7.716c-.359,0-.4-.042-.4-.4q0-5.044,0-10.088c0-.21-.038-.307-.272-.354a2.149,2.149,0,0,1-1.679-1.8,7.1,7.1,0,0,1-.025-.918.4.4,0,0,1,.12-.257q1.188-1.445,2.376-2.893a.384.384,0,0,1,.328-.152q7.266,0,14.533,0a.405.405,0,0,1,.343.168q1.177,1.441,2.361,2.876a.353.353,0,0,1,.113.19,2.6,2.6,0,0,1-.618,2.189,2.022,2.022,0,0,1-1.1.606c-.2.034-.249.11-.249.3q.01,5.022,0,10.043c0,.474-.012.484-.5.485l-5.562.011c-.688,0-1.375,0-2.062,0Zm7.671-5.628c0-1.636,0-3.273,0-4.909,0-.17-.036-.245-.218-.28a2.06,2.06,0,0,1-1.411-.982c-.117-.19-.159-.135-.255.01a2.174,2.174,0,0,1-3.7-.014c-.1-.157-.137-.16-.243,0a2.171,2.171,0,0,1-3.706,0c-.113-.172-.146-.137-.243.007a2.174,2.174,0,0,1-3.7.008c-.1-.159-.145-.179-.255,0a2.071,2.071,0,0,1-1.37.968c-.2.042-.257.115-.256.32q.01,4.887,0,9.773c0,.219.043.292.281.292q4.273-.013,8.545,0c.24,0,.279-.079.278-.293-.008-1.973,0-3.945,0-5.918a1.929,1.929,0,0,1,1.881-1.973c.284-.012.568-.014.852,0a1.918,1.918,0,0,1,1.569.9,2.337,2.337,0,0,1,.31,1.354c-.006,1.89,0,3.781-.006,5.671,0,.2.05.261.25.253.373-.016.749-.017,1.122,0,.216.009.275-.06.275-.275C-4475.012,1260.472-4475.008,1258.836-4475.008,1257.2Zm-5.8,1.9c0,1.015,0,2.031,0,3.046,0,.137.014.222.19.22q1.668-.01,3.338,0c.151,0,.189-.056.188-.2,0-2,0-4-.007-6a1.472,1.472,0,0,0-1.186-1.486,4.025,4.025,0,0,0-.871-.039,1.5,1.5,0,0,0-1.649,1.637Q-4480.807,1257.694-4480.8,1259.1Zm-1.874-12.687c-.516,0-1.032.005-1.547,0-.157,0-.206.051-.2.206q.01,1.1,0,2.2c0,.148.05.193.194.193q1.557-.007,3.116,0c.145,0,.194-.047.192-.194,0-.732-.006-1.464,0-2.2,0-.157-.051-.207-.206-.205C-4481.648,1246.422-4482.163,1246.417-4482.678,1246.417Zm3.888,2.589c.5,0,1,0,1.5,0,.149,0,.205-.026.142-.189q-.432-1.117-.845-2.24a.222.222,0,0,0-.249-.164c-.678.005-1.358.006-2.037,0-.159,0-.2.054-.2.207q.01,1.086,0,2.171c0,.167.048.221.216.217C-4479.775,1249-4479.283,1249.006-4478.791,1249.006Zm-7.817,0c.494,0,.986,0,1.479,0,.148,0,.193-.05.192-.194q-.008-1.1,0-2.2c0-.155-.045-.207-.2-.205-.649.008-1.3.009-1.95,0a.26.26,0,0,0-.289.206q-.4,1.083-.814,2.16c-.067.172-.056.235.151.23C-4487.563,1249-4487.085,1249.006-4486.607,1249.006Zm-3.784,0c.485,0,.971,0,1.456,0a.221.221,0,0,0,.246-.169q.412-1.113.837-2.22c.062-.16.033-.208-.141-.206-.6.007-1.194.006-1.792,0a.312.312,0,0,0-.265.13c-.623.763-1.251,1.522-1.875,2.284-.034.042-.106.081-.067.148.031.051.1.027.146.028C-4491.361,1249.007-4490.876,1249.006-4490.391,1249.006Zm15.4,0c.5,0,1,0,1.5,0,.049,0,.118.022.133-.044.007-.032-.032-.08-.059-.113q-.95-1.159-1.9-2.318a.288.288,0,0,0-.25-.114c-.6,0-1.21,0-1.814,0-.147,0-.185.036-.129.181q.431,1.119.844,2.242a.236.236,0,0,0,.269.171C-4475.93,1249-4475.461,1249.006-4474.991,1249.006Zm-15.573.449h-1.567c-.09,0-.171-.011-.193.124a1.814,1.814,0,0,0,1.22,1.946,1.777,1.777,0,0,0,2.28-1.948c-.013-.138-.1-.121-.194-.121Zm3.937,0h-1.545c-.1,0-.187-.015-.2.135a1.814,1.814,0,0,0,1.189,1.924,1.783,1.783,0,0,0,2.313-1.927c-.02-.15-.112-.132-.208-.132C-4485.6,1249.454-4486.111,1249.455-4486.627,1249.455Zm3.945,0c-.517,0-1.031,0-1.547,0-.085,0-.174-.022-.2.116a1.819,1.819,0,0,0,1.151,1.93,1.776,1.776,0,0,0,2.35-1.918c-.013-.153-.117-.128-.209-.128C-4481.653,1249.454-4482.168,1249.455-4482.683,1249.455Zm5.7.373c0-.434.031-.372-.367-.373-.934,0-1.867,0-2.8,0-.334,0-.334,0-.331.343v.022a1.748,1.748,0,0,0,1.742,1.784A1.759,1.759,0,0,0-4476.981,1249.828Zm2.211-.373c-.523,0-1.046,0-1.568,0-.087,0-.174-.016-.2.12a1.807,1.807,0,0,0,1.479,2.01,1.78,1.78,0,0,0,2.026-1.917c-.01-.163-.05-.221-.219-.218C-4473.754,1249.46-4474.262,1249.455-4474.77,1249.455Z" transform="translate(4492.772 -1245.966)" fill="#32c8d9"/>
</svg>
