<svg xmlns="http://www.w3.org/2000/svg" xmlns:xlink="http://www.w3.org/1999/xlink" width="14.335" height="11.978" viewBox="0 0 14.335 11.978">
  <defs>
    <linearGradient id="linear-gradient" x1="0.5" y1="-0.612" x2="0.5" y2="1" gradientUnits="objectBoundingBox">
      <stop offset="0" stop-color="#89f995"/>
      <stop offset="1" stop-color="#32c8d9"/>
    </linearGradient>
  </defs>
  <g id="_0hRGxo.tif" data-name="0hRGxo.tif" transform="translate(0 0)">
    <g id="Group_42011" data-name="Group 42011">
      <path id="Path_24972" data-name="Path 24972" d="M-4485.607,1257.936h-5.478c-.254,0-.285-.03-.285-.281q0-3.581,0-7.162c0-.149-.027-.218-.193-.251a1.526,1.526,0,0,1-1.192-1.28,5,5,0,0,1-.018-.651.277.277,0,0,1,.085-.183q.844-1.026,1.687-2.054a.273.273,0,0,1,.232-.108q5.158,0,10.317,0a.288.288,0,0,1,.244.119q.835,1.023,1.676,2.042a.251.251,0,0,1,.08.135,1.851,1.851,0,0,1-.438,1.554,1.438,1.438,0,0,1-.782.43c-.139.024-.176.078-.176.216q.007,3.565,0,7.13c0,.336-.008.344-.352.344l-3.948.008h-1.464Zm5.446-3.995c0-1.162,0-2.323,0-3.485,0-.121-.025-.174-.155-.2a1.464,1.464,0,0,1-1-.7c-.083-.135-.113-.1-.181.007a1.544,1.544,0,0,1-2.625-.01c-.073-.112-.1-.114-.172,0a1.541,1.541,0,0,1-2.631,0c-.08-.122-.1-.1-.172.005a1.544,1.544,0,0,1-2.625.005c-.074-.113-.1-.127-.181,0a1.472,1.472,0,0,1-.973.687c-.142.03-.183.082-.182.227q.007,3.469,0,6.938c0,.155.031.208.2.207q3.033-.01,6.066,0c.17,0,.2-.056.2-.208-.005-1.4,0-2.8,0-4.2a1.369,1.369,0,0,1,1.335-1.4c.2-.009.4-.01.6,0a1.362,1.362,0,0,1,1.114.641,1.66,1.66,0,0,1,.22.961c0,1.342,0,2.684,0,4.026,0,.138.036.186.177.179.265-.011.531-.012.8,0,.154.007.2-.042.2-.2C-4480.164,1256.264-4480.161,1255.1-4480.161,1253.941Zm-4.116,1.352q0,1.081,0,2.162c0,.1.01.157.134.156q1.184-.007,2.37,0c.107,0,.134-.04.134-.14,0-1.42,0-2.841,0-4.261a1.045,1.045,0,0,0-.841-1.055,2.881,2.881,0,0,0-.619-.028,1.067,1.067,0,0,0-1.171,1.162Q-4484.278,1254.292-4484.277,1255.293Zm-1.33-9.007c-.366,0-.733,0-1.1,0-.112,0-.147.036-.146.146q.007.78,0,1.559c0,.105.036.137.138.137q1.1,0,2.212,0c.1,0,.138-.033.137-.137q-.005-.779,0-1.559c0-.111-.037-.147-.146-.146C-4484.875,1246.29-4485.241,1246.286-4485.606,1246.286Zm2.76,1.838c.354,0,.709,0,1.065,0,.105,0,.145-.019.1-.134q-.307-.793-.6-1.59a.157.157,0,0,0-.176-.117c-.481,0-.964,0-1.446,0-.113,0-.145.038-.145.147q.007.771,0,1.541c0,.118.034.157.153.154C-4483.545,1248.12-4483.2,1248.124-4482.846,1248.124Zm-5.55,0c.351,0,.7,0,1.05,0,.1,0,.137-.035.136-.138q-.005-.779,0-1.559c0-.11-.032-.147-.145-.146-.461.005-.923.006-1.384,0a.184.184,0,0,0-.205.147q-.281.769-.578,1.533c-.047.122-.04.167.107.164C-4489.075,1248.118-4488.735,1248.124-4488.4,1248.124Zm-2.686,0c.344,0,.689,0,1.034,0a.157.157,0,0,0,.175-.12q.292-.79.594-1.576c.044-.113.023-.148-.1-.146-.424.005-.848,0-1.272,0a.221.221,0,0,0-.188.092c-.442.542-.888,1.081-1.332,1.622-.024.03-.075.057-.047.105s.068.019.1.02Zm10.933,0h1.065c.034,0,.083.016.094-.031.005-.023-.022-.057-.042-.081q-.675-.823-1.352-1.646a.206.206,0,0,0-.178-.081c-.429,0-.859,0-1.288,0-.1,0-.131.026-.092.129q.3.794.6,1.592a.166.166,0,0,0,.19.121C-4480.816,1248.121-4480.483,1248.124-4480.149,1248.124Zm-11.056.319h-1.112c-.064,0-.122-.008-.137.088a1.288,1.288,0,0,0,.867,1.382,1.261,1.261,0,0,0,1.618-1.383c-.008-.1-.074-.086-.137-.086Zm2.794,0h-1.1c-.069,0-.133-.01-.146.1a1.289,1.289,0,0,0,.845,1.366,1.266,1.266,0,0,0,1.642-1.368c-.014-.107-.08-.094-.147-.094Zm2.8,0c-.367,0-.732,0-1.1,0-.06,0-.124-.016-.141.082a1.29,1.29,0,0,0,.816,1.37,1.261,1.261,0,0,0,1.668-1.361c-.01-.109-.083-.091-.149-.091Zm4.048.265c0-.308.022-.264-.261-.265-.663,0-1.326,0-1.988,0-.237,0-.237,0-.235.243v.016a1.242,1.242,0,0,0,1.237,1.267A1.249,1.249,0,0,0-4481.562,1248.708Zm1.569-.265h-1.113c-.062,0-.123-.011-.139.085a1.283,1.283,0,0,0,1.049,1.427,1.264,1.264,0,0,0,1.438-1.36c-.007-.116-.035-.157-.155-.155C-4479.271,1248.447-4479.632,1248.443-4479.993,1248.443Z" transform="translate(4492.772 -1245.966)" fill="url(#linear-gradient)"/>
      <path id="Path_24973" data-name="Path 24973" d="M-4398.259,1436.111v1.83c0,.227-.032.26-.257.26h-3.678c-.217,0-.26-.043-.26-.262q0-1.83,0-3.66c0-.225.045-.27.271-.271h3.662c.228,0,.262.037.263.273Zm-2.1-1.785c-.542,0-1.083,0-1.623,0-.112,0-.158.023-.158.148q.007,1.63,0,3.259c0,.118.033.155.153.154q1.63-.006,3.261,0c.124,0,.149-.043.149-.156q-.006-1.622,0-3.244c0-.125-.035-.163-.161-.162C-4399.277,1434.33-4399.818,1434.326-4400.358,1434.326Z" transform="translate(4405.337 -1428.006)" fill="url(#linear-gradient)"/>
    </g>
  </g>
</svg>
