<svg xmlns="http://www.w3.org/2000/svg" xmlns:xlink="http://www.w3.org/1999/xlink" width="36.005" height="29.5" viewBox="0 0 36.005 29.5">
  <defs>
    <linearGradient id="linear-gradient" x1="0.5" y1="-1.644" x2="0.5" y2="1" gradientUnits="objectBoundingBox">
      <stop offset="0" stop-color="#89f995"/>
      <stop offset="1" stop-color="#32c8d9"/>
    </linearGradient>
  </defs>
  <path id="Path_28044" data-name="Path 28044" d="M1391.779,1476.657a2.039,2.039,0,0,1-.727,1.662q-7.787,8.147-15.573,16.294c-1.117,1.163-2.191,1.189-3.3.049q-7.839-8.1-15.626-16.243a2.115,2.115,0,0,1-.045-3.222q3.63-4.089,7.233-8.2a2.648,2.648,0,0,1,2.155-.993q7.873.033,15.745,0a2.647,2.647,0,0,1,2.177.935c2.405,2.739,4.851,5.443,7.28,8.161A1.916,1.916,0,0,1,1391.779,1476.657Zm-17.888-8.72c-2.375,0-4.749.009-7.124-.005a2.182,2.182,0,0,0-1.9.725q-3.174,3.714-6.47,7.322c-.6.659-.495,1.024.07,1.608q7.257,7.5,14.446,15.063c.722.763,1.1.727,1.8-.014q7.162-7.589,14.417-15.09c.646-.668.635-1.042.008-1.719-2.139-2.307-4.219-4.671-6.276-7.052a2.189,2.189,0,0,0-1.846-.851C1378.64,1467.958,1376.265,1467.936,1373.891,1467.937Z" transform="translate(-1355.79 -1466.002)" fill="url(#linear-gradient)"/>
</svg>
