<svg xmlns="http://www.w3.org/2000/svg" xmlns:xlink="http://www.w3.org/1999/xlink" width="27.203" height="32.862" viewBox="0 0 27.203 32.862">
  <defs>
    <linearGradient id="linear-gradient" x1="0.5" y1="-1.644" x2="0.5" y2="1" gradientUnits="objectBoundingBox">
      <stop offset="0" stop-color="#89f995"/>
      <stop offset="1" stop-color="#32c8d9"/>
    </linearGradient>
  </defs>
  <g id="Group_43025" data-name="Group 43025" transform="translate(-230.545 -339.273)">
    <path id="Path_9734" data-name="Path 9734" d="M230.563,353.551c0-4.342.023-8.684-.017-13.025-.009-.965.324-1.26,1.267-1.252,4.308.037,8.617.025,12.926.006a1.883,1.883,0,0,1,1.489.609q2.312,2.4,4.691,4.73a1.978,1.978,0,0,1,.657,1.563c-.031,2.916,0,5.833-.025,8.75a.943.943,0,0,0,.737,1.065,8.2,8.2,0,0,1,5.453,8.17,8.293,8.293,0,0,1-15.2,4.25,1.2,1.2,0,0,0-1.134-.579c-3.182.022-6.363.012-9.545.011-1.251,0-1.3-.043-1.3-1.272Q230.559,360.064,230.563,353.551Zm11.031,13.1a8.77,8.77,0,0,1-.3-4.51,8.26,8.26,0,0,1,8.167-6.657c.511-.007.945.091.929-.714-.05-2.651-.03-5.3-.01-7.954,0-.519-.159-.69-.681-.679-1.325.031-2.652,0-3.977.015-.674.01-.964-.277-.952-.952.02-1.226-.044-2.455.022-3.678.044-.808-.176-1.073-1.026-1.061q-5.468.072-10.937,0c-.907-.014-1.09.279-1.086,1.126.031,7.822.018,15.644.018,23.466,0,1.6,0,1.6,1.635,1.6Zm14.968-2.887a7.115,7.115,0,1,0-7.119,7.151A7.082,7.082,0,0,0,256.561,363.769Zm-10.593-22.263c0,1.035,0,1.954,0,2.873,0,.261-.035.576.363.567a19.621,19.621,0,0,0,3.079-.082Z" transform="translate(0 0)" fill="url(#linear-gradient)"/>
    <path id="Path_9735" data-name="Path 9735" d="M254.139,382.134q-3.126,0-6.251,0c-.432,0-.939.047-.946-.579s.479-.614.924-.614h12.7c.457,0,.923.04.9.642-.019.544-.467.552-.879.551Z" transform="translate(-13.134 -33.377)" fill="url(#linear-gradient)"/>
    <path id="Path_9736" data-name="Path 9736" d="M254.247,399.072c-2.084,0-4.168,0-6.252,0-.453,0-1.029.092-1.034-.594s.575-.595,1.026-.6q6.252-.006,12.5,0c.468,0,1.023-.048.988.638-.03.6-.549.554-.981.554Q257.373,399.073,254.247,399.072Z" transform="translate(-13.15 -46.942)" fill="url(#linear-gradient)"/>
    <path id="Path_9737" data-name="Path 9737" d="M252.986,414.145h-5.157c-.448,0-.926,0-.894-.63.027-.539.463-.563.878-.563h10.412c.426,0,.84.064.85.6s-.408.6-.833.6Q255.614,414.143,252.986,414.145Z" transform="translate(-13.127 -59.019)" fill="url(#linear-gradient)"/>
    <path id="Path_9738" data-name="Path 9738" d="M250.946,429.25q-1.583,0-3.166,0c-.411,0-.847-.012-.852-.571-.005-.537.4-.618.827-.619q3.216,0,6.431,0c.454,0,.92.052.9.646-.016.549-.473.545-.879.546Q252.579,429.252,250.946,429.25Z" transform="translate(-13.123 -71.118)" fill="url(#linear-gradient)"/>
    <path id="Path_9739" data-name="Path 9739" d="M250.027,444.385c-.758,0-1.516,0-2.275,0-.411,0-.839-.032-.829-.6.008-.479.37-.585.759-.587q2.324-.012,4.648,0c.383,0,.757.091.78.567.027.56-.39.613-.808.617C251.543,444.39,250.785,444.385,250.027,444.385Z" transform="translate(-13.119 -83.244)" fill="url(#linear-gradient)"/>
    <path id="Path_9740" data-name="Path 9740" d="M312.281,446.884a3.779,3.779,0,0,1-.329.535c-1.364,1.618-2.745,3.222-4.1,4.846-.391.467-.752.576-1.253.161-.865-.717-1.754-1.406-2.637-2.1-.336-.265-.629-.576-.321-1s.695-.231,1.031.032c.312.245.621.494.932.74,1.5,1.193,1.5,1.194,2.772-.3q1.346-1.59,2.693-3.179c.216-.254.444-.51.839-.343A.648.648,0,0,1,312.281,446.884Z" transform="translate(-58.446 -85.668)" fill="url(#linear-gradient)"/>
  </g>
</svg>
