<svg xmlns="http://www.w3.org/2000/svg" width="23.991" height="19.51" viewBox="0 0 23.991 19.51">
  <path id="Path_29746" data-name="Path 29746" d="M51.164,17.913v.022a2.587,2.587,0,0,1-.439.662,9.118,9.118,0,0,1-1.08,1.159,8.19,8.19,0,0,1-.77.634.276.276,0,0,0-.115.223v.7A11.84,11.84,0,0,1,48.6,23.2a14.047,14.047,0,0,1-.569,2.34A14.771,14.771,0,0,1,47.017,27.9a16.818,16.818,0,0,1-1.5,2.253,9.035,9.035,0,0,1-.749.828,11.892,11.892,0,0,1-1.649,1.476,10.063,10.063,0,0,1-1.389.914,13.13,13.13,0,0,1-2.455,1.087,13.72,13.72,0,0,1-2.477.562c-.36.05-.727.072-1.08.086H34.051a11.186,11.186,0,0,1-3.24-.5A13.137,13.137,0,0,1,28.1,33.521c-.288-.151-.562-.31-.842-.49-.1-.058-.108-.1-.065-.166a2.434,2.434,0,0,1,.324,0,6.8,6.8,0,0,0,1.267.036c.374-.036.734-.05,1.094-.108a10.047,10.047,0,0,0,2.549-.778,11.069,11.069,0,0,0,1.807-1.073l.036-.029c-.18-.043-.353-.043-.533-.072a5.29,5.29,0,0,1-1.67-.576,5.008,5.008,0,0,1-1.238-1.008A4.555,4.555,0,0,1,30,27.992c-.065-.13-.115-.266-.173-.418-.043-.13.007-.2.151-.173a3.989,3.989,0,0,0,.713.072,4.856,4.856,0,0,0,1.145-.13,2.8,2.8,0,0,1-.634-.194c-.223-.079-.425-.2-.626-.3a6.256,6.256,0,0,1-.554-.374,5,5,0,0,1-1.929-3.348,3.732,3.732,0,0,1-.022-.562c.007-.122.065-.166.18-.1A5.053,5.053,0,0,0,29.933,23a1.028,1.028,0,0,0,.216.007,5.41,5.41,0,0,1-.612-.533,4.464,4.464,0,0,1-.907-1.253,4.58,4.58,0,0,1-.5-1.742,4.94,4.94,0,0,1,.23-2.124,6.119,6.119,0,0,1,.324-.756c.094-.151.151-.151.274-.007.209.238.418.482.641.706a11.675,11.675,0,0,0,1.361,1.245,14.315,14.315,0,0,0,1.879,1.267,13.223,13.223,0,0,0,2.556,1.13,14.815,14.815,0,0,0,2.491.554c.3.036.59.065.893.086.1.014.115,0,.1-.115a4.546,4.546,0,0,1-.065-.526,4.116,4.116,0,0,1,0-.842,4.583,4.583,0,0,1,.144-.871,5,5,0,0,1,.95-1.843A4.709,4.709,0,0,1,41.6,16.041a3.9,3.9,0,0,1,1.152-.4,3.323,3.323,0,0,1,.533-.043l.05-.007h.1a.273.273,0,0,0,.108,0h.662c.144.014.3.014.439.029a3.937,3.937,0,0,1,1.022.288,4.8,4.8,0,0,1,1.382.849,1.634,1.634,0,0,1,.245.252.227.227,0,0,0,.2.058,10.642,10.642,0,0,0,1.778-.562c.374-.173.734-.346,1.08-.526a.1.1,0,0,1,.13-.022.1.1,0,0,1,.014.122,3.591,3.591,0,0,1-.418.907,4.223,4.223,0,0,1-.893,1.094,2.48,2.48,0,0,1-.648.511h0a8.187,8.187,0,0,0,1.109-.23A8,8,0,0,0,51,17.913C51.056,17.906,51.106,17.856,51.164,17.913Z" transform="translate(-27.173 -15.595)" fill="#9c98b1" fill-rule="evenodd"/>
</svg>
