<svg xmlns="http://www.w3.org/2000/svg" xmlns:xlink="http://www.w3.org/1999/xlink" width="15.918" height="9.334" viewBox="0 0 15.918 9.334">
  <defs>
    <linearGradient id="linear-gradient" x1="0.5" y1="-0.743" x2="0.5" y2="1" gradientUnits="objectBoundingBox">
      <stop offset="0" stop-color="#89f995"/>
      <stop offset="1" stop-color="#32c8d9"/>
    </linearGradient>
  </defs>
  <g id="Group_42794" data-name="Group 42794" transform="translate(0 0)">
    <path id="Path_25366" data-name="Path 25366" d="M-1923.281,1489.689a7.69,7.69,0,0,1,3.667.987,13.961,13.961,0,0,1,4.23,3.558c.059.073.091.129.019.216a13.042,13.042,0,0,1-5.44,4.109,7.037,7.037,0,0,1-5.781-.348,13.714,13.714,0,0,1-4.6-3.748c-.053-.064-.087-.115-.018-.2a13.321,13.321,0,0,1,5.2-4.025A7.028,7.028,0,0,1-1923.281,1489.689Zm-.005,8.837a6.6,6.6,0,0,0,2.552-.54,13.075,13.075,0,0,0,4.683-3.543c.071-.08.044-.129-.014-.2a14.023,14.023,0,0,0-3.821-3.131,6.6,6.6,0,0,0-6.39-.2,13.635,13.635,0,0,0-4.227,3.339c-.076.086-.051.139.013.211a14,14,0,0,0,3.716,3.067A7.262,7.262,0,0,0-1923.286,1498.526Z" transform="translate(1931.242 -1489.689)" fill="url(#linear-gradient)"/>
    <path id="Path_25367" data-name="Path 25367" d="M-1798.947,1560.729a2.315,2.315,0,0,1,2.333-2.3,2.323,2.323,0,0,1,2.3,2.316,2.32,2.32,0,0,1-2.348,2.311A2.312,2.312,0,0,1-1798.947,1560.729Zm4.072.011a1.752,1.752,0,0,0-1.77-1.752,1.764,1.764,0,0,0-1.749,1.756,1.776,1.776,0,0,0,1.753,1.757A1.764,1.764,0,0,0-1794.875,1560.739Z" transform="translate(1804.593 -1556.053)" fill="url(#linear-gradient)"/>
  </g>
</svg>
