<svg xmlns="http://www.w3.org/2000/svg" width="25.111" height="25.308" viewBox="0 0 25.111 25.308">
  <g id="Group_46886" data-name="Group 46886" transform="translate(-7642.22 -724.341)">
    <path id="Path_28898" data-name="Path 28898" d="M27.162,31.486c.033-.133.066-.224.091-.307.672-2.025,1.353-4.041,2.041-6.066a.52.52,0,0,0-.05-.481,12.133,12.133,0,0,1-1.618-6.647,12.288,12.288,0,0,1,10.107-11.6A12.364,12.364,0,0,1,52.206,17.222a12.311,12.311,0,0,1-6.373,12.115,11.944,11.944,0,0,1-5.22,1.477,12.316,12.316,0,0,1-6.365-1.361.553.553,0,0,0-.506-.05c-2.091.68-4.191,1.336-6.29,2.016A2.241,2.241,0,0,1,27.162,31.486Zm3.195-3.153c.183-.05.282-.075.373-.1,1.079-.357,2.174-.714,3.27-1.062a.577.577,0,0,1,.481.041,10.038,10.038,0,0,0,6.7,1.5A9.607,9.607,0,0,0,46.87,26.1a9.946,9.946,0,0,0,3.187-9.385,10.326,10.326,0,0,0-9.6-8.481,9.723,9.723,0,0,0-6.1,1.668,10.071,10.071,0,0,0-4.713,8.589,9.906,9.906,0,0,0,1.792,5.8.584.584,0,0,1,.083.614c-.274.763-.523,1.527-.788,2.3C30.614,27.561,30.506,27.9,30.357,28.333Z" transform="translate(7615.058 718.163)" fill="#9c98b1" fill-rule="evenodd"/>
    <path id="Path_28899" data-name="Path 28899" d="M27.985,9.87a3.388,3.388,0,0,1,1.129-2.539A1.26,1.26,0,0,1,30,7c.888-.025.888-.025,1.245.822.266.647.539,1.311.813,1.958a.558.558,0,0,1-.017.589,11.615,11.615,0,0,1-.73.954.514.514,0,0,0-.066.689A8.126,8.126,0,0,0,35.329,15.5a.452.452,0,0,0,.589-.124c.3-.365.606-.722.888-1.087.232-.307.349-.365.672-.232.846.4,1.676.8,2.506,1.2.249.116.224.34.224.539-.066,1.311-.656,1.975-2.174,2.448a3.718,3.718,0,0,1-2.224-.183,11.432,11.432,0,0,1-6.4-4.8,7.281,7.281,0,0,1-1.278-2.481C28.068,10.476,28.035,10.169,27.985,9.87Z" transform="translate(7621.063 724.103)" fill="#9c98b1" fill-rule="evenodd"/>
  </g>
</svg>
